<?xml version="1.0" encoding="UTF-8"?>
<svg id="Layer_2" data-name="Layer 2" xmlns="http://www.w3.org/2000/svg" viewBox="0 0 209.2 206.41">
  <defs>
    <style>
      .cls-1 {
        fill: #000;
        stroke-width: 0px;
      }
    </style>
  </defs>
  <g id="Layer_1-2" data-name="Layer 1">
    <g>
      <path class="cls-1" d="M102.43,158.38c-2.51.09-5.08.01-7.54.27-4.77.49-9.43,1.25-13.97,2.26s-8.96,2.27-13.21,3.68-8.36,2.98-12.28,4.66-7.65,3.46-11.17,5.28c-3.63,1.87-6.33,3.7-9.49,5.59,17.63,16.27,41.12,26.29,67,26.29.25,0,.5-.04.75-.04l-.09-47.98h0Z"/>
      <path class="cls-1" d="M.48,113.29c2.27,25.24,14.19,47.74,32.23,63.98,3.24-1.88,6-3.72,9.73-5.59,3.62-1.82,7.44-3.6,11.46-5.28s8.23-3.25,12.59-4.66,8.89-2.67,13.55-3.68,9.43-1.77,14.32-2.26c2.52-.25,5.15-.18,7.73-.27l-.09-34.54c-13.04-.11-25.76-.55-37.78-1.29-12.55-.77-24.37-1.82-35-2.93s-20.1-2.28-28-3.37c-.46-.06-.28-.07-.73-.13h0Z"/>
      <path class="cls-1" d="M.5,110.45c.45.06.27.07.73.13,7.92,1.09,17.41,2.27,28.07,3.37s22.51,2.16,35.09,2.93c12.04.73,24.8,1.17,37.87,1.29l-.09-39.24c-.27,0-.51.08-.77.09-4.17.13-8.15.03-11.99-.27s-7.52-.79-11.03-1.46-6.83-1.5-10.03-2.48-6.23-2.12-9.11-3.37-5.66-2.63-8.25-4.08-5.03-2.97-7.34-4.57c-4.61-3.2-8.68-6.66-12.21-10.11s-6.54-6.89-9.07-10.15c-.39-.5-.59-.88-.96-1.37C8.03,57.9,0,78.89,0,101.76c0,2.94.24,5.82.5,8.69h0Z"/>
      <path class="cls-1" d="M23.68,38.31c.36.49.55.87.93,1.37,2.46,3.26,5.39,6.7,8.82,10.15s7.39,6.91,11.88,10.11c2.24,1.6,4.62,3.12,7.14,4.57s5.22,2.83,8.03,4.08,5.76,2.38,8.87,3.37,6.34,1.81,9.75,2.48,7,1.16,10.73,1.46,7.6.39,11.66.27c.26,0,.49-.08.75-.09l-.18-76.09h-.31c-31.77,0-59.99,15.04-78.08,38.31h0Z"/>
      <path class="cls-1" d="M174.48,180.07c-2.05-1.56-4.07-3.1-6.13-4.48-2.57-1.71-5.16-3.27-7.74-4.7s-5.16-2.73-7.74-3.9-5.16-2.23-7.74-3.15c-5.15-1.84-10.29-3.19-15.39-4.12s-10.14-1.44-15.12-1.6c-2.41-.08-4.74.18-7.11.27l.09,47.98c25.82-.19,49.25-10.17,66.86-26.29h0Z"/>
      <path class="cls-1" d="M107.5,121.01l.09,34.54c2.43-.08,4.82-.34,7.29-.27,5.11.16,10.28.66,15.5,1.6s10.49,2.29,15.77,4.12c2.64.92,5.29,1.98,7.93,3.15s5.29,2.47,7.93,3.9,5.3,2.99,7.93,4.7c2.11,1.37,4.18,2.92,6.28,4.48,18.57-16.59,30.67-39.72,32.56-65.62-5.28,1.22-10.63,2.38-16.1,3.33-6.76,1.17-13.65,2.17-20.59,2.97s-13.93,1.43-20.96,1.91-14.09.82-21.09,1.02-13.98.26-20.87.22c-.59,0-1.11-.04-1.7-.04h0Z"/>
      <path class="cls-1" d="M107.49,118.17c.59,0,1.11.04,1.7.04,6.88.04,13.86-.02,20.86-.22s14.07-.54,21.09-1.02,14.01-1.1,20.96-1.91,13.83-1.8,20.59-2.97c5.47-.95,10.81-2.11,16.09-3.33.17-2.32.41-4.64.41-7.01,0-24.65-9.38-47.15-24.81-64.47-1.87,2.41-3.55,4.76-5.78,7.23-1.88,2.08-3.87,4.15-6.01,6.21s-4.42,4.06-6.83,6.03-4.96,3.9-7.66,5.72-5.55,3.54-8.53,5.14-6.08,3.1-9.35,4.43-6.7,2.51-10.27,3.5-7.31,1.8-11.19,2.39c-3.63.55-7.46.83-11.37.98l.09,39.24h0Z"/>
      <path class="cls-1" d="M107.92,76.09c3.78-.15,7.48-.42,11-.98,3.75-.59,7.36-1.4,10.82-2.39s6.77-2.17,9.93-3.5,6.16-2.83,9.05-4.43,5.64-3.33,8.25-5.14,5.07-3.75,7.4-5.72,4.54-3.98,6.61-6.03,4-4.13,5.81-6.21c2.16-2.47,3.78-4.82,5.59-7.23C164.29,13.46,137.61.09,107.74,0l.18,76.09h0Z"/>
    </g>
  </g>
</svg>