<?xml version="1.0" encoding="UTF-8"?>
<svg id="Layer_2" data-name="Layer 2" xmlns="http://www.w3.org/2000/svg" viewBox="0 0 97.4 801.38">
  <defs>
    <style>
      .cls-1 {
        fill: #000;
        stroke-width: 0px;
      }
    </style>
  </defs>
  <g id="Layer_1-2" data-name="Layer 1">
    <path class="cls-1" d="M58.14,0c-9.52,0-18.26,3.44-25.05,9.15l.07.11s-.49,1.46-.72,2.38-1.06,1.04-1.06,1.04l-2.75.9c-6.06,7.01-9.75,16.18-9.75,26.24s3.56,18.88,9.42,25.83c.21.08.35.25.35.25l.18.37c.72.82,1.47,1.62,2.26,2.38l2.03.35c1.36.54.18.88.18.88,0,0-.49-.1-1.09-.21,6.92,6.19,16,9.96,25.95,9.96s19.58-4,26.57-10.53c-1.16.19-2.42.42-2.42.42,0,0-1.19-.32.18-.86l2.73-.48s.73-.08.99-1.04l.74-1.59s.55-.68,1.09.04c5.83-6.95,9.38-15.94,9.38-25.78s-3.85-19.65-10.16-26.71c-.06.05-.14.11-.26.16l-2.79-.92s-.83-.12-1.06-1.04-.72-2.38-.72-2.38c0,0,.06-.15.18-.25C75.89,3.25,67.39,0,58.14,0h0ZM81.33,9.34c.17,0,.4.14.67.58l.65,2.33s.12.6,1.34.88l2.03.72s.89.52-.05.93l-3.09-1.06s-.94-.16-1.2-1.23-.79-2.79-.79-2.79c0,0,.15-.37.44-.37h0ZM83.51,9.43l.49,1.66s.12.52,1.22.76l1.27.42c-.95-1-1.94-1.94-2.98-2.84ZM34.43,9.86c.29,0,.44.37.44.37,0,0-.56,1.71-.81,2.79s-1.18,1.22-1.18,1.22l-3.09,1.06c-.94-.41-.07-.92-.07-.92l2.03-.72c1.22-.28,1.34-.9,1.34-.9l.67-2.31c.27-.44.5-.58.67-.58h0ZM31.94,10.17c-.79.72-1.55,1.46-2.27,2.24l.69-.23c1.09-.24,1.22-.76,1.22-.76l.37-1.25h0ZM78.93,11.05c.21,0,.49.16.81.65l.79,2.59s.15.69,1.62,1.01l2.43.81s1.08.58-.05,1.04l-3.74-1.2s-1.12-.15-1.43-1.36-.97-3.14-.97-3.14c0,0,.18-.41.53-.41h0ZM36.65,11.39c.35,0,.53.42.53.42,0,0-.66,1.91-.97,3.12s-1.43,1.38-1.43,1.38l-3.72,1.18c-1.13-.46-.07-1.04-.07-1.04l2.43-.81c1.47-.31,1.62-.99,1.62-.99l.81-2.61c.32-.49.58-.65.79-.65h0ZM77.01,14.49c.23-.04.56.05,1.02.49l1.41,2.52s.31.67,1.99.67l2.84.32s1.29.35.14,1.08l-4.34-.41s-1.26.07-1.85-1.11-1.71-3.01-1.71-3.01c0,0,.11-.47.49-.55h0ZM38.45,14.83c.48-.02.62.55.62.55,0,0-1.11,1.85-1.69,3.03s-1.87,1.09-1.87,1.09l-4.34.41c-1.15-.72.14-1.08.14-1.08l2.86-.3c1.68,0,1.97-.69,1.97-.69l1.41-2.5c.38-.37.68-.5.9-.51h0ZM74.98,17.97c.23-.04.55.05,1.01.49l1.43,2.52s.3.67,1.97.67l2.86.32s1.29.35.14,1.08l-4.35-.41s-1.26.07-1.85-1.11-1.69-3.01-1.69-3.01c0,0,.11-.47.49-.55h0ZM40.47,18.3c.48-.02.63.55.63.55,0,0-1.12,1.85-1.71,3.03s-1.85,1.09-1.85,1.09l-4.35.41c-1.15-.72.14-1.08.14-1.08l2.86-.3c1.68,0,1.99-.69,1.99-.69l1.41-2.5c.38-.37.66-.5.88-.51h0ZM73.99,22.62c.2,0,.47.1.83.32l1.94,2.13s.44.6,2.08.23l2.86-.34s1.33.06.37,1.02l-4.34.56s-1.21.35-2.05-.67-2.33-2.57-2.33-2.57c0,0,.02-.7.63-.69h0ZM41.6,22.96c.61-.02.62.69.62.69,0,0-1.5,1.55-2.33,2.57s-2.05.67-2.05.67l-4.34-.56c-.96-.96.37-1.02.37-1.02l2.86.34c1.64.37,2.08-.23,2.08-.23l1.94-2.13c.36-.22.64-.31.85-.32h0ZM73.23,27.21c.2-.02.49.04.88.25l2.2,2.26s.53.64,2.1.02l2.77-.74s1.33-.08.51,1.15l-4.2,1.18s-1.15.56-2.12-.53-2.66-2.72-2.66-2.72c0,0-.1-.81.51-.86h0ZM42.18,27.54c.79-.09.69.88.69.88,0,0-1.71,1.61-2.68,2.7s-2.12.53-2.12.53l-4.2-1.18c-.82-1.23.51-1.15.51-1.15l2.77.74c1.57.63,2.1-.02,2.1-.02l2.22-2.26c.29-.16.52-.23.71-.25h0ZM72.62,33.34c.18-.01.43.02.76.16l2.75,2.33s.67.68,2.03-.42l2.5-1.48s1.26-.37.79,1.32l-3.76,2.33s-.98.93-2.2-.21-3.31-2.8-3.31-2.8c0,0-.35-1.16.44-1.22h0ZM42.94,33.66c.83.03.46,1.25.46,1.25,0,0-2.07,1.64-3.3,2.79s-2.2.21-2.2.21l-3.77-2.33c-.47-1.69.79-1.3.79-1.3l2.5,1.48c1.36,1.1,2.03.42,2.03.42l2.77-2.33c.22-.09.4-.16.55-.18.07,0,.12-.02.18-.02h0ZM80.21,38.72c.33,0,.74.2.56,1.29l-3.49,2.73s-.86,1.04-2.2.04-3.6-2.42-3.6-2.42c0,0-.73-1.72,1.08-1.2l2.98,2.03s.75.59,1.97-.65l2.33-1.75s.17-.07.37-.07h0ZM35.36,39.05c.2,0,.37.07.37.07l2.33,1.75c1.23,1.24,1.97.65,1.97.65l3-2.01c1.8-.53,1.06,1.18,1.06,1.18,0,0-2.25,1.41-3.6,2.42s-2.2-.04-2.2-.04l-3.49-2.73c-.17-1.08.23-1.29.56-1.29h0ZM80.3,43.58c.33,0,.74.18.58,1.27l-3.46,2.79s-.85,1.04-2.2.05-3.61-2.38-3.61-2.38c0,0-.77-1.68,1.04-1.18l3.01,1.97s.76.59,1.97-.67l2.29-1.78s.17-.07.37-.07h0ZM35.27,43.92c.2,0,.37.07.37.07l2.29,1.78c1.21,1.26,1.97.67,1.97.67l3.01-1.97c1.81-.5,1.04,1.2,1.04,1.2,0,0-2.26,1.38-3.61,2.36s-2.2-.05-2.2-.05l-3.46-2.77c-.16-1.09.25-1.29.58-1.29ZM81.22,48.75c.07-.01.14,0,.21,0,.28.03.56.23.58.92l-2.96,2.59s-.67.9-2.19.32-4-1.36-4-1.36c0,0-1.04-1.19.85-1.04l3.33,1.13s.84.35,1.83-.78l1.99-1.66s.15-.09.35-.12h0ZM34.16,49.1c.28-.03.56.11.56.11l1.97,1.66c.99,1.12,1.85.78,1.85.78l3.31-1.13c1.88-.15.85,1.06.85,1.06,0,0-2.47.78-3.98,1.36s-2.19-.34-2.19-.34l-2.98-2.59c.02-.69.32-.87.6-.9h0ZM81.55,52.38c.28-.06.62.06.85.71l-2.06,3.33s-.37,1.07-1.99.97-4.21-.11-4.21-.11c0,0-1.35-.84.49-1.25l3.51.09s.9.08,1.52-1.29l1.41-2.17s.21-.23.49-.28h0ZM33.79,52.72c.37-.06.72.28.72.28l1.41,2.17c.61,1.37,1.52,1.29,1.52,1.29l3.51-.09c1.84.42.49,1.25.49,1.25,0,0-2.6,0-4.21.11s-1.99-.95-1.99-.95l-2.06-3.35c.17-.49.39-.67.62-.71h0ZM83.02,56.97c.21.01.44.14.63.53l-1.67,2.87s-.26.89-1.78.92-3.93.19-3.93.19c0,0-1.33-.6.35-1.06l3.28-.16s.87,0,1.34-1.15l1.13-1.87s.3-.31.65-.28h0ZM32.56,57.3c.35-.02.65.28.65.28l1.15,1.87c.47,1.16,1.32,1.15,1.32,1.15l3.28.18c1.69.46.35,1.04.35,1.04,0,0-2.41-.17-3.93-.19s-1.78-.92-1.78-.92l-1.68-2.86c.19-.38.42-.53.63-.55h0ZM83.79,59.86c.21-.02.46.09.71.44l-1.22,3.07s-.13.93-1.62,1.18-3.86.79-3.86.79c0,0-1.4-.38.19-1.09l3.21-.65s.86-.13,1.15-1.34l.85-2.03s.25-.34.6-.37h0ZM31.78,60.19c.35.03.62.39.62.39l.83,2.01c.28,1.21,1.15,1.34,1.15,1.34l3.21.65c1.6.71.19,1.11.19,1.11,0,0-2.36-.54-3.86-.79s-1.62-1.18-1.62-1.18l-1.2-3.09c.25-.35.48-.46.69-.44h0ZM85.57,63.01c.2-.01.42.06.65.37l-1.18,2.68s-.14.81-1.55,1.01-3.65.63-3.65.63c0,0-1.3-.35.21-.95l3.03-.53s.81-.09,1.09-1.15l.81-1.76s.25-.28.58-.3h0ZM30,63.35c.33.02.58.32.58.32l.81,1.75c.29,1.06,1.09,1.15,1.09,1.15l3.05.53c1.51.6.19.97.19.97,0,0-2.24-.43-3.65-.63s-1.53-1.02-1.53-1.02l-1.2-2.66c.23-.31.45-.4.65-.39h0Z"/>
    <path class="cls-1" d="M0,764.43c0,13.6,4.83,37.89,38.84,36.92,34.01-.97,35-36.92,35-36.92-2.71-71.24-3.6-244.96-3.87-392.63-12.18-9.52-26.43-5.7-34.62-2.05C20.89,551.04,0,764.42,0,764.42h0ZM36.91,120.94c2.17,6.88,11.66,10.89,11.66,10.89,1.37,24.6-1.87,85.42-7.24,160.12,12.16-4.46,22.51-.3,28.52,3.43-.05-93.42.09-162.57.09-162.57,16.52-12.63,7.84-21.23,4.37-23.76-9.61-6.99-20.36-6.62-28.96-2.16-4.85,2.51-10.16,7.45-8.43,14.05h0ZM35.76,364.4c14.85-8.14,27.63-2.55,34.21,1.76,0-3.47-.03-7.11-.03-10.54-11.77-8.62-25.24-5.21-33.33-1.7-.27,3.45-.57,7-.85,10.48h0ZM37.02,348.51c14.07-7.42,26.23-2.6,32.92,1.57,0-3.31-.03-6.83-.03-10.1-11.18-8.17-23.86-5.47-32.04-2.17-.27,3.51-.57,7.16-.85,10.7h0ZM38.27,332.23c13.49-6.47,25.1-1.84,31.6,2.2v-7.93c-10.68-7.79-22.75-5.69-30.94-2.61-.21,2.73-.45,5.59-.66,8.34h0ZM39.34,318.29c13.02-5.72,24.17-1.25,30.5,2.68v-7.96c-10.23-7.44-21.73-5.82-29.87-2.96-.2,2.69-.43,5.53-.63,8.25h0ZM40.38,304.38c12.57-5.06,23.29-.74,29.46,3.08v-6.52c-9.85-7.16-20.88-5.93-28.96-3.27l-.5,6.7h0Z"/>
  </g>
</svg>