<?xml version="1.0" encoding="UTF-8"?>
<svg id="Layer_2" data-name="Layer 2" xmlns="http://www.w3.org/2000/svg" viewBox="0 0 513.5 107.64">
  <defs>
    <style>
      .cls-1 {
        fill: #020202;
      }

      .cls-1, .cls-2, .cls-3, .cls-4, .cls-5, .cls-6, .cls-7, .cls-8, .cls-9, .cls-10, .cls-11, .cls-12, .cls-13, .cls-14, .cls-15, .cls-16, .cls-17, .cls-18, .cls-19, .cls-20, .cls-21, .cls-22, .cls-23, .cls-24, .cls-25, .cls-26, .cls-27, .cls-28, .cls-29, .cls-30, .cls-31, .cls-32, .cls-33, .cls-34, .cls-35, .cls-36, .cls-37, .cls-38, .cls-39, .cls-40, .cls-41, .cls-42, .cls-43, .cls-44, .cls-45, .cls-46, .cls-47, .cls-48, .cls-49, .cls-50, .cls-51, .cls-52, .cls-53, .cls-54, .cls-55, .cls-56, .cls-57, .cls-58, .cls-59, .cls-60, .cls-61, .cls-62, .cls-63, .cls-64, .cls-65, .cls-66, .cls-67, .cls-68, .cls-69, .cls-70, .cls-71, .cls-72, .cls-73 {
        stroke-width: 0px;
      }

      .cls-2 {
        fill: #2a2e31;
      }

      .cls-3 {
        fill: #e7e8ea;
      }

      .cls-4 {
        fill: #feffff;
      }

      .cls-5 {
        fill: #000104;
      }

      .cls-6 {
        fill: #a9acb0;
      }

      .cls-7 {
        fill: #606364;
      }

      .cls-8 {
        fill: #8e8f91;
      }

      .cls-9 {
        fill: #010705;
      }

      .cls-10 {
        fill: #010003;
      }

      .cls-11 {
        fill: #111214;
      }

      .cls-12 {
        fill: #f2f2f2;
      }

      .cls-13 {
        fill: #8d8e90;
      }

      .cls-14 {
        fill: #e8e9eb;
      }

      .cls-15 {
        fill: #1c2023;
      }

      .cls-16 {
        fill: #030003;
      }

      .cls-17 {
        fill: #060709;
      }

      .cls-18 {
        fill: #8f8f8f;
      }

      .cls-19 {
        fill: #010204;
      }

      .cls-20 {
        fill: #77787a;
      }

      .cls-21 {
        fill: #fffeff;
      }

      .cls-22 {
        fill: #000002;
      }

      .cls-23 {
        fill: #c8cbcc;
      }

      .cls-24 {
        fill: #cccdcf;
      }

      .cls-25 {
        fill: #2b2e30;
      }

      .cls-26 {
        fill: #080c0e;
      }

      .cls-27 {
        fill: #b3b4b6;
      }

      .cls-28 {
        fill: #000005;
      }

      .cls-29 {
        fill: #f8fbfc;
      }

      .cls-30 {
        fill: #000103;
      }

      .cls-31 {
        fill: #6e6e6e;
      }

      .cls-32 {
        fill: #434949;
      }

      .cls-33 {
        fill: #78797b;
      }

      .cls-34 {
        fill: #fefeff;
      }

      .cls-35 {
        fill: #0b0e0f;
      }

      .cls-36 {
        fill: #0d0e10;
      }

      .cls-37 {
        fill: #030002;
      }

      .cls-38 {
        fill: #020305;
      }

      .cls-39 {
        fill: #050608;
      }

      .cls-40 {
        fill: #000003;
      }

      .cls-41 {
        fill: #b7bbbc;
      }

      .cls-42 {
        fill: #010103;
      }

      .cls-43 {
        fill: #0c0e11;
      }

      .cls-44 {
        fill: #212224;
      }

      .cls-45 {
        fill: #b0b4b8;
      }

      .cls-46 {
        fill: #1c2022;
      }

      .cls-47 {
        fill: #a1a7a5;
      }

      .cls-48 {
        fill: #101213;
      }

      .cls-49 {
        fill: #030708;
      }

      .cls-50 {
        fill: #222629;
      }

      .cls-51 {
        fill: #020304;
      }

      .cls-52 {
        fill: #15191b;
      }

      .cls-53 {
        fill: #87888a;
      }

      .cls-54 {
        fill: #212528;
      }

      .cls-55 {
        fill: #8e9394;
      }

      .cls-56 {
        fill: #fafbfc;
      }

      .cls-57 {
        fill: #919293;
      }

      .cls-58 {
        fill: #adaeaf;
      }

      .cls-59 {
        fill: #5f6062;
      }

      .cls-60 {
        fill: #090c0f;
      }

      .cls-61 {
        fill: #04070a;
      }

      .cls-62 {
        fill: #97999b;
      }

      .cls-63 {
        fill: #858889;
      }

      .cls-64 {
        fill: #030103;
      }

      .cls-65 {
        fill: #757779;
      }

      .cls-66 {
        fill: #fff;
      }

      .cls-67 {
        fill: #8f9092;
      }

      .cls-68 {
        fill: #aeafb1;
      }

      .cls-69 {
        fill: #5e5e5e;
      }

      .cls-70 {
        fill: #151a1b;
      }

      .cls-71 {
        fill: #bfc3c6;
      }

      .cls-72 {
        fill: #67686a;
      }

      .cls-73 {
        fill: #fdfeff;
      }
    </style>
  </defs>
  <g id="Layer_1-2" data-name="Layer 1">
    <path class="cls-18" d="M318.04,5.85c-.66-1.65-.98-6.99.99-5.64.07.36.21,1.11.28,1.47-.42,1.4-.86,2.76-1.27,4.16h0Z"/>
    <path class="cls-58" d="M318.04,5.85c.4-1.4.85-2.76,1.27-4.16.16.75.49,2.25.65,2.99-1.71.41-.16,4.1.33.96l.5,2.87c-.21.24-.63.72-.83.97l-.39.57c-.2-.31-.6-.91-.8-1.21-.12.47-.36,1.42-.48,1.9-1.3,1.02-2.51,2.29-3.58,3.86.21.54.63,1.62.84,2.16-1.24.61-2.47,1.36-3.45,2.8,1.19.31,2.39.56,3.59.74-1,.24-2.02.41-3.02.52-1.35-.05-2.69-.11-4.03-.2-.09.79-.27,2.35-.35,3.14-.56-.02-1.11-.09-1.65-.16,1.64-3.74,4.44-5.35,6.67-7.89,1.44-2.31,2.9-4.59,4.61-6.31l.12-3.56h0Z"/>
    <path class="cls-31" d="M320.3,5.64c-.5,3.14-2.05-.55-.33-.96l.33.96Z"/>
    <path class="cls-20" d="M318.78,8.85c.2.3.6.9.8,1.21-.12.57-.35,1.75-.47,2.34l-.81-1.65c.12-.47.36-1.42.48-1.9Z"/>
    <path class="cls-33" d="M319.96,9.49c.21-.25.63-.74.83-.97v3.62l-.83-2.65Z"/>
    <path class="cls-14" d="M320.8,8.51c2.24-.81,4.18,1.67,6.24,2.64.94.02,2.18-.92,2.49,1.26l.5,1.44c-1.22,1.34-2.61,2.19-4.03,2.64-1.62.6-3.24,1.17-4.85,1.79.08-.99.25-2.95.33-3.94l1.96-.3c-.81-.16-1.62-.31-2.43-.46-.03,1.51-.08,4.52-.11,6.04-.28-1.1-.84-3.31-1.12-4.42l-2.23.27c.1,1.44.19,2.86.28,4.3l-2.13.55c-1.21-.17-2.4-.42-3.59-.74.98-1.44,2.21-2.19,3.45-2.8-.22-.54-.63-1.62-.84-2.16,1.07-1.57,2.28-2.84,3.58-3.86l.81,1.65c.12-.59.35-1.76.47-2.34l.39-.57.83,2.65v-3.62h0Z"/>
    <path class="cls-44" d="M329.53,12.41c5.88,3.5,12.1,4.8,18.12,7.56,2.18,1.11,5.08.12,6.79,2.92-2.16,2.71-5.14,2.95-7.67,1.72.34-.54,1.01-1.64,1.35-2.19-1.38-.81-2.81-2-4.29-1.44-2.11,1.01-4.07-1.01-5.97-2.22-1.55,1.14-3.07,2.35-4.58,3.6-.48-1.24-.95-2.47-1.41-3.72.48-.81.96-1.64,1.44-2.45-1.1-.75-2.21-1.47-3.27-2.35,0,0-.5-1.44-.5-1.44Z"/>
    <path class="cls-46" d="M321,13.57c.8.15,1.62.3,2.43.46l-1.96.3c-.08.99-.25,2.95-.33,3.94,1.62-.61,3.24-1.19,4.85-1.79.13.74.37,2.21.5,2.95-2.18.92-4.32,2.06-6.45,3.27l2.29,1.45c-3.46,1.9-7.17.57-10.64-.56l.98-2.76c1-.11,2.02-.29,3.02-.52l2.13-.55c-.09-1.44-.19-2.86-.28-4.3l2.23-.27c.28,1.11.83,3.32,1.12,4.42.03-1.51.08-4.52.11-6.04Z"/>
    <path class="cls-26" d="M330.02,13.85c1.06.87,2.17,1.6,3.27,2.35-.48.81-.97,1.64-1.44,2.45.46,1.25.93,2.49,1.41,3.72,1.51-1.25,3.04-2.46,4.58-3.6,1.9,1.21,3.86,3.24,5.97,2.22,1.49-.56,2.92.62,4.29,1.44-.33.55-1,1.65-1.35,2.19,2.52,1.22,5.51.99,7.67-1.72l.51-.61c4.4,2.04,8.97,2.52,13.43,3.99,5.68,2.85,11.65,2.51,17.46,3.91,0-.9-.03-2.69-.04-3.59.03-1.06.1-3.21.13-4.29,1.72,1.94.43,6.65.95,9.63-5.46-1.24-11.06-.6-16.5.65l-.62.05c-2.34.07-4.66.75-6.98,1.17-.86.06-1.96-.69-1.38-2.39.25-.62.74-1.89.99-2.52-1.9-1.51-3.95-2.5-6.04-1.51-.46,1.75-.48,4.47-1.9,4.72.16-1.42.32-2.84.5-4.25-.63.81-1.26,1.62-1.88,2.44-.11-.69-.33-2.09-.43-2.79l-1.76-.39c.27.72.53,1.46.8,2.2l-1.81,3.91c.13.62.36,1.87.48,2.5-2.03-1.4-3.35,1.05-4.47,3.59l-.65.39c-.7-2.07.25-4.2.59-6.2.85-.11,1.7-.24,2.57-.36l.02-1.05-3.25.15c-.01-.6-.05-1.79-.07-2.39l1.71.46c-.03-.65-.07-1.94-.1-2.59-.84.4-1.67.81-2.5,1.22.75,3.14.53,6.34-.92,8.81-.52-2.46-.98-4.95-1.4-7.45-1.55-.77-4.49-2.94-4.31,1.7l-1.85.71c1.07.35,2.14.71,3.22,1.06.77,2.52,1.64,4.95,2.65,7.22-.83-.7-1.66-1.39-2.49-2.07-.42.74-.83,1.47-1.27,2.17l-1.44-.67c-.02-1.1-.05-2.2-.07-3.3-.67-.44-1.33-.87-1.99-1.3-1.08.87-2.21,1.51-3.42,1.41-.54-1.34-1.09-2.64-1.66-3.92-2.43,2.02-5.22,1.6-7.79,2.86.61-1.3,1.86-2.15,1.82-4.05-.53-2.05-2.14-1.02-3.16-1.39.31.54.93,1.64,1.24,2.19l-2.05,2.66,1.88.75c-1.26,1.2-2.72.97-4.09,1.09,1.53-2,2.2-4.99,2.23-8.18-1.24.62-1.29,2.96-1.66,4.66-1.53,1.19-3.07,2.25-4.64,3.25-.07-1.31-.16-2.62-.22-3.94,1.23-.54,2.45-1.09,3.68-1.67-1.59-3.14-3.92-1.85-5.84-.45-.66,1.64-1.32,3.39-2.5,4.06-.47-4.05.92-7.21,2.49-9.93-2.26.39-2.94,4.35-4.03,7.05.1-2.16.31-4.3.75-6.32-1.12.16-2.57,2.02-3.42,0,.89-.84,1.8-1.65,2.73-2.36.54.07,1.09.14,1.65.16.08-.79.26-2.35.35-3.14,1.34.09,2.69.15,4.03.2l-.98,2.76c3.48,1.14,7.18,2.46,10.64.56l-2.29-1.45c2.12-1.21,4.26-2.35,6.45-3.27-.13-.74-.37-2.21-.5-2.95,1.43-.45,2.81-1.3,4.03-2.64h0Z"/>
    <path class="cls-29" d="M318.53,16.62l.58-.07-.12,2.05-.57.06c.03-.5.08-1.52.11-2.04Z"/>
    <path class="cls-47" d="M66.05,19.76c1.48.27,2.33-1.77,3.54-2.4.45,1.44.72,3.1,1.39,4.34,4.5,8.45,8.81,17.16,13.27,25.68l.38.72c-2.63.66-5.28.22-7.93.3-5.22-.16-10.41,1.49-15.64,1.29-4.29.22-8.66-.69-12.9.81-2.81,1-5.71-.19-8.5,1-4.31,1.81-8.83-.47-13.13,1.36,1.3.37,2.61.69,3.92.72,22.34-.1,44.67.05,67-.04,2.48,0,4.99-.34,7.43.55l-2.75-.04c-.09,5.99.1,11.98-.16,17.96-.33-5.96-.08-11.95-.16-17.92-1.73-.01-3.46-.01-5.2,0-.07,6.26.15,12.55-.18,18.79-.67-6.19-.14-12.52-.31-18.77-1.82-.05-3.64-.06-5.46-.04-.18,6.14.38,12.38-.36,18.43-.28-6.14-.04-12.28-.12-18.43-1.62,0-3.23.01-4.84.02-.04,6.14.1,12.27-.1,18.41-.39-6.1-.13-12.23-.19-18.36-1.78-.05-3.55-.07-5.32-.1-.22,6.07.3,12.23-.26,18.27-.39-6.05-.1-12.15-.19-18.21-1.68-.02-3.36-.02-5.05-.02-.12,6.2.28,12.43-.23,18.58-.28-6.17-.1-12.37-.16-18.56-1.83-.04-3.67-.05-5.5-.02-.06,6.26.13,12.55-.18,18.79-.69-6.21-.13-12.57-.33-18.83-1.67,0-3.33.02-4.99.06-.01,5.87-.03,11.76.04,17.63-.15,0-.45-.02-.6-.04.07-5.87.06-11.75.04-17.62-1.75,0-3.5.01-5.25.06-.07,6.06,0,12.12-.14,18.18-.23-6.09-.07-12.18-.03-18.27-1.74,0-3.48.02-5.22.06-.09,6.07.15,12.16-.13,18.23-.93-5.89-.07-12.21-.4-18.26-1.75-.01-3.5-.02-5.25-.02-.07,6.09.15,12.17-.14,18.24-.23-6.05-.12-12.12-.1-18.18-1.92-.04-3.84-.06-5.76-.05-.06,6.04.04,12.07-.08,18.11-.16-6.04-.07-12.07-.06-18.11-1.73,0-3.47.01-5.2.02-.07,6.09.19,12.18-.19,18.24-.52-6.06-.05-12.21-.25-18.31l-5.52.04c.14,6.19.11,12.37.04,18.56,1.43.3,3.22-.87,4.34,1.22-2.42,3.19-5.62,1.74-8.45,2.02-3.94-.36-7.89.76-11.8-.25l-.04-.49,2.13-1.8.55-.42c1.07.14,2.14.26,3.22.37.36-1.2.71-2.39,1.07-3.57,1.14.22,1.67,1.97,2.21,3.45,2.01-.32,4.79,1.69,6.2-1.5.46-5.04.09-10.23.19-15.33l-2.26-1.47c-.01-1.02-.06-3.09-.07-4.11,2.51.19,5.02.09,7.47-.95,4.47-.46,9.04.61,13.45-1.27,3.95-.44,7.96.32,11.85-1.25,6.73-.37,13.46-.02,20.2-.15-2.6-5.81-4.45-12.53-7.46-17.81-1.66.76-3.43-.14-4.98-1.14-.03-.49-.09-1.45-.11-1.94,1.43.37,2.87.65,4.32.82-.41-4.27-2.95-4.99-4.64-7.34h0Z"/>
    <path class="cls-50" d="M327.61,20.19c2.02.56,1.68-3.64,3.44-3.41-.15,2.12-.09,4.26.12,6.36-1.18-1.02-2.36-2-3.56-2.95Z"/>
    <path class="cls-54" d="M326.33,22.6c1.02-.31,2.27.16,3.1,1.25-.24,2.35-3.36,1.05-3.1-1.25Z"/>
    <path class="cls-53" d="M454.17,26.52c.31-.85.63-1.7.95-2.55.71,2.32,1.82,4.14,2.74,6.21.38,1.42.76,2.86,1.12,4.31-1.37.1-2.74.25-4.04.96-.03-.26-.1-.8-.13-1.07l-.08-.69,2.38.34c-.36-.89-1.09-2.65-1.45-3.52-.92-2-3.19-.91-3.68-3.7l2.19-.29h0Z"/>
    <path class="cls-15" d="M285.58,40.65c6.21-4.44,12.6-8.56,18.33-14.68.86,2.02,2.31.16,3.42,0-.45,2.02-.65,4.16-.75,6.32,1.09-2.7,1.77-6.66,4.03-7.05-1.58,2.72-2.96,5.89-2.49,9.93,1.18-.67,1.84-2.42,2.5-4.06,1.92-1.4,4.26-2.69,5.84.45-1.24.59-2.46,1.14-3.68,1.67.07,1.31.15,2.62.22,3.94,1.56-1,3.11-2.06,4.64-3.25.37-1.7.42-4.04,1.66-4.66-.02,3.2-.7,6.19-2.23,8.18,1.38-.11,2.84.11,4.09-1.09l-1.88-.75,2.05-2.66c-.31-.55-.92-1.65-1.24-2.19,1.01.36,2.63-.66,3.16,1.39.04,1.9-1.21,2.75-1.82,4.05,2.56-1.26,5.36-.84,7.79-2.86.57,1.29,1.12,2.59,1.66,3.92,1.21.1,2.34-.54,3.42-1.41.66.42,1.32.86,1.99,1.3.01,1.1.04,2.2.07,3.3-3.68-3.19-7.87-3.2-11.92-3.09l.8,5.75c-1.44-1.79-.29-6.82-2.71-6.52.13,2.14.32,4.25.57,6.35-3.49,1.57-7.06.95-10.61.72-.22-.7-.66-2.11-.89-2.81l.98.47c3.18,1.81,6.59.69,9.88.91-.22-1.64-.42-3.26-.64-4.9-2.42.34-4.76,1.4-7.03,2.85-.95-1.99-2.11-1.37-3.24-.35-.48-1.16-.96-2.32-1.43-3.47-1.13-.39-2.25-.76-3.37-1.12-1.08.85-2.13,2.2-3.38,1.92-1.03-.75-2.14-.74-3.16.01.09.7.27,2.1.36,2.81-5.02-.59-10.01.64-15.01.66h0Z"/>
    <path class="cls-50" d="M324.87,26.06c.77-1.47,2.75.21,2.3,2.12-.81,1.17-2.73-.2-2.3-2.12Z"/>
    <path class="cls-63" d="M368.38,26.27c4.96-.55,9.74,3.14,14.66,2.4.26-2.55,1.63-2.05,2.76-2.07.01.9.04,2.69.04,3.59-5.81-1.4-11.78-1.06-17.46-3.91Z"/>
    <path class="cls-25" d="M344.19,28.97c.83-.41,1.66-.82,2.5-1.22.02.65.07,1.94.1,2.59l-1.71-.46c.01.6.05,1.79.07,2.39l3.25-.15-.02,1.05c-.86.12-1.72.25-2.57.36-.33,2-1.29,4.12-.59,6.2-1.21.7-2.4,1.44-3.57,2.26,9.93.44,19.88.31,29.82.01l.47,1.41c-1.5-.05-2.99.05-4.48.26v.02c-1.84-.24-3.68-.14-5.52.09h-.03c-3.8-.26-7.62-.27-11.42.02h-.02c-1.44-.4-2.92-.42-4.36-.12-.31-.04-.94-.09-1.24-.11-1.55-.26-3.13-.41-4.64.12l-.16.07c-2.55-.14-5.1-.22-7.61.47-1.54-.55-3.09-1.06-4.61-1.69,3.11-.61,6.24-.14,9.37-.47l.62-.95c.43-.7.85-1.44,1.27-2.17.83.69,1.66,1.37,2.49,2.07-1-2.27-1.88-4.7-2.65-7.22-1.08-.35-2.14-.71-3.22-1.06l1.85-.71c-.18-4.64,2.76-2.47,4.31-1.7.42,2.5.88,4.99,1.4,7.45,1.45-2.47,1.67-5.67.92-8.81h0Z"/>
    <path class="cls-70" d="M350.86,27.13l1.76.39c.1.7.32,2.1.43,2.79.63-.81,1.25-1.62,1.88-2.44-.18,1.41-.34,2.82-.5,4.25,1.41-.25,1.44-2.97,1.9-4.72,2.08-.99,4.14,0,6.04,1.51-.25.64-.74,1.9-.99,2.52l-.36.89.12-2.49c-.65,1.61-1.27,3.25-1.88,4.9-4.55.79-8.93,3.1-13.4,4.6,1.12-2.54,2.44-4.99,4.47-3.59-.12-.62-.36-1.87-.48-2.5l1.81-3.91c-.27-.74-.53-1.47-.8-2.2h0Z"/>
    <path class="cls-12" d="M73.58,29.33c3.34,5.39,6.19,11.63,9.07,17.71-.88.01-1.76.01-2.64,0-1.73-6.3-5.18-11.13-6.42-17.71Z"/>
    <path class="cls-2" d="M324.58,30.02c1.03-.41,1.41.22,1.12,1.95-1.05.45-1.43-.2-1.12-1.95Z"/>
    <path class="cls-66" d="M359.26,34.73c.61-1.65,1.22-3.29,1.88-4.9l-.12,2.49.36-.89c-.58,1.7.52,2.45,1.38,2.39,2.32-.42,4.64-1.1,6.98-1.17.07.37.2,1.14.28,1.52.47,2.61.9,5.25,1.44,7.82-9.94.3-19.89.42-29.82-.01,1.17-.82,2.36-1.56,3.57-2.26l.65-.39c4.47-1.5,8.86-3.81,13.4-4.6h0Z"/>
    <path class="cls-32" d="M457.86,30.18c1.25,2.07,2.45,4.22,3.59,6.46l1.89-.42c-.04.84-.14,2.5-.19,3.32,2.33,3.39,4.5,7.07,6.64,10.8,1.32,3.15,3.91.9,5.65,2.87,1.15,1.86-.06,4.87,1.35,6.61-.33-.36-.97-1.1-1.3-1.47-.03-.54-.09-1.61-.13-2.15l-.13-2.06c-3.02-.87-6.16-.41-9.09-2.12l-.37-.86,3.89,1.1c-2.14-4.29-4.77-7.77-6.85-12.12-.19-1.27-2.08-3.06-2.06-.72.56,2.6,2.17,4.19,2.88,6.74-2.11-2.5-3.49-6.45-5-9.91-1.24-.17-2.48-.42-3.7-.77,1.3-.71,2.67-.86,4.04-.96-.36-1.45-.74-2.89-1.12-4.31Z"/>
    <path class="cls-61" d="M340.39,32.27c1.06-1.19,1.95,2.16,1.15,3.35-1.06.92-1.72-2.14-1.15-3.35Z"/>
    <path class="cls-59" d="M369.75,32.64l.62-.05c6.79.39,13.58.15,20.37-.05-.39,2.42-.83,4.8-1.4,7.11.16-1.94.32-3.86.45-5.8-1.67.04-3.35.07-5.02.14,0,4.41,0,8.82-.05,13.25h-.52c-.09-4.44-.12-8.87-.11-13.32l-3.32.02c0,4.42,0,8.85-.04,13.27h-.68c-.01-4.41-.02-8.82-.04-13.23l-3.1-.04c-.04,4.44-.07,8.86-.07,13.3h-.62c-.06-4.45-.08-8.88-.08-13.32-2.04-.11-4.09-.02-6.11.25-.07-.39-.21-1.15-.28-1.52Z"/>
    <path class="cls-69" d="M454.81,34.38c-.57,1.49-3.26-.25-1.5-1.16.36.11,1.07.36,1.42.47l.08.69h0Z"/>
    <path class="cls-49" d="M306.77,35.24c1.12.36,2.24.74,3.37,1.12.47,1.15.95,2.31,1.43,3.47,1.12-1.02,2.29-1.64,3.24.35l-2.21,1.14-.98-.47c.22.7.66,2.11.89,2.81h-2.08c-.05-.66-.15-1.96-.2-2.62l-.87.25c-2.94-.17-5.82-1.39-8.78-1.3-.09-.71-.27-2.11-.36-2.81,1.03-.75,2.13-.76,3.16-.01,1.25.27,2.3-1.07,3.38-1.92Z"/>
    <path class="cls-42" d="M370.02,34.17c2.02-.27,4.07-.36,6.11-.25,0,4.44.02,8.87.08,13.31-1.33-.02-2.66-.06-3.97-.14-.1-1.24-.2-2.46-.31-3.69l-.47-1.41c-.54-2.57-.97-5.21-1.44-7.82h0Z"/>
    <path class="cls-22" d="M376.9,33.94l3.1.04c.02,4.41.03,8.82.04,13.23-.8.01-2.41.01-3.22.02,0-4.44.03-8.86.07-13.3Z"/>
    <path class="cls-19" d="M380.77,33.94l3.32-.02c0,4.45.02,8.88.11,13.33l-3.47-.04c.03-4.42.04-8.85.04-13.27h0Z"/>
    <path class="cls-22" d="M384.77,33.99c1.67-.06,3.34-.1,5.02-.14-.13,1.94-.29,3.86-.45,5.8-.31,2.17-.65,4.35-.77,6.59,3.01-.4,5.89,1.62,8.9,1.4,7.18-.34,14.36-.34,21.53.31,13.21-1.26,26.36,2.62,39.55,2.59,2.17.45,4.35.84,6.55.7-.31-1.45-.68-2.85-1.13-4.19.73,1.2,1.21,2.71,1.81,4.1l.37.86c-3.88-.25-7.74-.86-11.62-.34.68,1.35,1.36,2.7,2.05,4.05,1.52.11,3.04.2,4.58.22,2.35,5.9,5.85,10.11,8.55,15.53-1.38.05-2.77.24-4.01,1.32-2.35,1.01-4.79.5-7.19.57-45.37.02-90.75,0-136.12-.04.19-8.56.1-17.12.04-25.69,2.06-.19,4.12-.14,6.19-.04-.1,7.97,0,15.97.07,23.94,1.82.19,2.58-2.9,3.8-4.57,1.59.24,1.5,3.5,1.64,5.46.13-3.07.19-6.16.41-9.23,1.77-1.95,3.01-4.91,4.69-7.05,1.32-.57,1.86,1.82,2.64,3.02,1.88,3.91,3.95,7.67,5.03,12.46,1.74.11,3.49.15,5.25.16-.26-.71-.78-2.16-1.05-2.87-.01-4.89.04-9.78-.02-14.67,1.63-.02,3.26-.02,4.9.01.06,6.02-.14,12.06.16,18.06.25-6.01.13-12.03.11-18.06,1.76-.05,3.52-.06,5.28-.05.1,5.82.08,11.65.01,17.48.13-.01.37-.02.5-.02-.04-5.8-.06-11.58.02-17.37,1.72-.04,3.45-.06,5.17-.04.07,5.82.04,11.66.05,17.48h.64c-.08-5.85-.1-11.68,0-17.52,1.7-.01,3.39-.01,5.09.01.04,6.06-.19,12.15.18,18.19.49-6.02.19-12.12.26-18.18,1.56-.02,3.13-.04,4.7-.04.04,6.16-.21,12.35.18,18.49.89-6.04.22-12.33.42-18.48,1.8-.06,3.6-.05,5.41.05.05,6.1-.17,12.21.17,18.28.72-6.04.2-12.23.36-18.33,1.64-.01,3.27,0,4.93.04.17,5.67-.17,11.4.16,17.06l.68,1.06c.21-6.02.04-12.07.11-18.11,1.55-.05,3.1-.1,4.65-.14.09,6.11-.11,12.25.22,18.34.63-.65.92-1.59.86-2.8.05-5.19-.09-10.37.05-15.56l4.47.2c.19,5.97-.11,11.97.26,17.92.69-5.89,0-11.97.33-17.94,1.73-.05,3.46-.06,5.2-.02.06,6.02-.17,12.07.16,18.08.37-.8.55-1.71.54-2.72.02-5.12-.09-10.26.04-15.38h4.76c.07,5.8.05,11.6,0,17.39l.55.06c0-5.84-.07-11.66.06-17.48,1.7-.01,3.4.01,5.11.07.04,5.91-.04,11.82.09,17.73.15-5.91.06-11.82.04-17.73,1.73-.05,3.45-.06,5.19-.04.08,5.81.05,11.63,0,17.46.22.02.65.09.86.12.1-5.87.07-11.73.04-17.59,1.6-.04,3.2-.04,4.81,0,.04,6.1-.29,12.22.27,18.28.39-6.07.13-12.17.2-18.24,1.77-.09,3.54-.12,5.32-.15.31,6.22-.67,12.78.6,18.78.34-6.26.08-12.55.2-18.81,1.62.06,3.25.12,4.88.21.09,5.79.07,11.57-.01,17.36l.76.15c0-5.85-.07-11.7.01-17.53,1.68-.05,3.36-.05,5.05,0,.01,5.95-.09,11.91.05,17.87.17-6,.1-12.01.09-18.01,1.8.27,3.71.44,5.3,2.1,1.18,5.09.04,10.71.54,16.02.57-4.19-.61-9.61,1.24-12.85,1.1,2.62,1.59,6.59,3.51,7.92,1.99.14,3.98-.17,5.98-.32-2.91-5.07-5.98-9.9-8.83-15.06-19.49-4.15-39.23-3.25-58.84-4.17-3.45-1.12-6.95-1.12-10.44-.57.04-4.42.05-8.83.05-13.25h0Z"/>
    <path class="cls-34" d="M322.54,36.59c2.42-.3,1.27,4.74,2.71,6.52l-.8-5.75c4.04-.11,8.24-.1,11.92,3.09l1.44.67-.62.95c-3.13.34-6.26-.14-9.37.47,1.53.62,3.07,1.14,4.61,1.69,2.52-.7,5.07-.61,7.61-.47-2.2,2.14-4.73.9-7.1.92,3,2,5.89,4.41,8.61,7.35,2.8,3.67,5.58,7.54,7.59,12.51.65,1.46,1.32,2.91,1.96,4.39.27.71.79,2.16,1.05,2.87-1.76-.01-3.51-.05-5.25-.16-1.08-4.79-3.15-8.55-5.03-12.46-.78-1.2-1.32-3.6-2.64-3.02-1.67,2.14-2.92,5.1-4.69,7.05-.22,3.07-.28,6.16-.41,9.23-.15-1.96-.06-5.22-1.64-5.46-1.21,1.67-1.98,4.76-3.8,4.57-.08-7.97-.17-15.97-.07-23.94-2.07-.1-4.13-.15-6.19.04-2.38.22-4.53,2.1-6.67,3.66-4.85,3.86-8.94,10.72-11.16,18.96-1.77,1.06-3.67.99-5.52.84.95-3.49,3.06-5.86,3.67-9.58-.15-2.39-.31-4.79-.35-7.19.25,2.31.43,4.65.63,6.99,2.68-3.45,4.79-8.02,7.74-10.9,1.12-1.14,2.27-2.19,3.39-3.32-2.43,1.31-4.96,2.07-7.52,1.81.09-.8.28-2.37.37-3.16,2.26-.4,4.56-.46,6.78.46.89.34,2.49,1.02,2.47-1.39-3.94.54-7.94.34-11.86.32l-.51-1.32c2.17-.16,4.34-.16,6.52-.16h2.08c3.55.22,7.12.85,10.61-.72-.25-2.1-.45-4.21-.57-6.35h0Z"/>
    <path class="cls-4" d="M314.81,40.19c2.26-1.45,4.61-2.51,7.03-2.85.22,1.64.42,3.26.64,4.9-3.29-.22-6.7.9-9.88-.91l2.21-1.14Z"/>
    <path class="cls-44" d="M279.91,42.25c1.76.15,3.48-.46,5.19-1.07,1.23.41,2.42,1.2,3.69,1.11,5.69-.05,11.38-.02,17.07.01,1.2.11,2.34-.51,3.5-1.01l.87-.25c.05.66.15,1.96.2,2.62-2.18,0-4.35,0-6.52.16l.51,1.32c3.92.01,7.93.21,11.86-.32.01,2.41-1.58,1.72-2.47,1.39-2.22-.92-4.53-.86-6.78-.46-.09.79-.28,2.36-.37,3.16,2.56.26,5.08-.5,7.52-1.81-1.12,1.14-2.28,2.19-3.39,3.32-1.83-1.09-3.83-.54-5.63-1.65l.6-2.35c-9.65.42-19.3-.1-28.95.39.16-.4.46-1.21.62-1.61l1.25.02-.48-2.07c-10.03,1.31-20.16-.32-30.22.52l-.18-.3-.09.12c-9.06-.21-18.15-.65-27.19.2h-.12c-2.06-.16-4.13-.15-6.19.07v-.02c-5.47-.21-10.94-.29-16.4.02l-.1-.11c-1.83-.21-3.68-.19-5.5.1h-.09c-7.67-.19-15.36-.25-23.03-.22l-.04-.02c-3.57.21-7.14-.01-10.7.27h-.04c-1.83-.26-3.67-.31-5.51-.06h0c-3.71-.15-7.44-.27-11.16.05-9.3-.06-18.61-.21-27.92.05l-.42.05c-1.7-.2-3.4-.26-5.11-.2h-.16c-1.92-.11-3.84-.11-5.76.14l-.11-.05c-1.7-.17-3.4-.26-5.11-.14-.06.46-.18,1.37-.25,1.84l-.16,1.24c-4.03-.36-7.99,1.15-12.01,1.4l-.38-.72c1.67-.32,3.35-.25,5.02-.4,1.23-.2,2.21-2.25,3.53-1.39-.98-2.42.99-2.45,1.78-3,1.2-.41,2.43-.32,3.65-.34,60.56.09,121.13-.11,181.68,0Z"/>
    <path class="cls-71" d="M93.46,44.95c.56-1.16,2.25-2.17,2.74-.46-.54,1.24-2.16,1.65-2.74.46Z"/>
    <path class="cls-14" d="M97.06,43.63c1.7-.12,3.4-.04,5.11.14-1.23,2.76-3.6,1.11-5.35,1.7.07-.46.19-1.37.25-1.84Z"/>
    <path class="cls-7" d="M102.16,43.77l.11.05c1.39,2.61,4.3,2.19,5.76-.12h.16c.11,1.12.22,2.26.34,3.4,1.49-.21,3.19.69,4.56-.36-.69-2.71-2.96-.61-4.31-1.31,1.52-.36,3.04-.72,4.51-1.54l.42-.05c1,.69,2.02,1.27,3.07,1.74-1.37-.85-2.36-.46-2.96,1.17.58.11,1.75.32,2.33.42l.92-2.02c7.89-.01,15.8.21,23.69-.07.22-.32.65-.96.88-1.29,1.14,2.82,3.43,1.1,5.13,1.49,2.01-.39,4.47,1.31,6.03-1.54h0c1.21,2.65,4.18,2.36,5.51.06h.04c.88,2.14,2.49,1.49,3.8,1.54,2.13-.14,4.26.07,6.39.05.12-.47.37-1.4.5-1.86l.04.02c.3.41.9,1.22,1.21,1.64,6.26.36,12.53-.19,18.8.15,1.12.21,2.21-.19,3.02-1.57h.09c-.04.59-.12,1.75-.16,2.32,1.74-1.61,4.52.8,5.66-2.41l.1.11.54,1.47c4.99.06,9.99-.01,14.98-.02.22-.37.65-1.1.86-1.47v.02c.21.34.6,1.04.8,1.37,1.82.16,3.99,1.04,5.41-1.45h.12c.13.39.4,1.17.54,1.56,8.52.06,17.05-.09,25.57.06.27-.45.8-1.36,1.07-1.82l.09-.12.18.3,1.12,1.62c9.45-.02,18.89-.04,28.34-.1-.16.4-.46,1.21-.62,1.61-53.32.09-106.65.06-159.97.04.26.6.79,1.82,1.06,2.42-2.46.29-4.91.4-7.35.91-3.8-5.96-9.29-2.4-13.9-3.49l.16-1.24c1.75-.59,4.12,1.06,5.35-1.7h0Z"/>
    <path class="cls-14" d="M102.27,43.81c1.92-.25,3.84-.25,5.76-.12-1.46,2.31-4.37,2.74-5.76.12Z"/>
    <path class="cls-73" d="M108.2,43.68c1.7-.06,3.41,0,5.11.2-1.47.81-2.99,1.17-4.51,1.54,1.35.7,3.62-1.4,4.31,1.31-1.38,1.05-3.07.15-4.56.36-.12-1.14-.23-2.27-.34-3.41h0Z"/>
    <path class="cls-73" d="M113.73,43.83c9.3-.26,18.61-.11,27.92-.05-.22.32-.66.96-.88,1.29-7.89.29-15.8.06-23.69.07l-.92,2.02c-.58-.1-1.75-.31-2.33-.42.6-1.64,1.59-2.02,2.96-1.17-1.04-.46-2.07-1.05-3.07-1.74Z"/>
    <path class="cls-14" d="M141.65,43.78c3.71-.32,7.44-.2,11.16-.05-1.56,2.85-4.02,1.15-6.03,1.54-1.7-.39-3.99,1.34-5.13-1.49Z"/>
    <path class="cls-14" d="M152.81,43.73c1.84-.25,3.68-.2,5.51.06-1.32,2.3-4.3,2.59-5.51-.06Z"/>
    <path class="cls-14" d="M158.35,43.79c3.56-.29,7.13-.06,10.7-.27-.13.46-.38,1.39-.5,1.86-2.14.02-4.26-.19-6.39-.05-1.32-.05-2.93.6-3.8-1.54Z"/>
    <path class="cls-14" d="M169.09,43.54c7.67-.02,15.35.04,23.03.21-.81,1.39-1.91,1.79-3.02,1.57-6.27-.34-12.54.21-18.8-.15-.31-.41-.91-1.22-1.21-1.64h0Z"/>
    <path class="cls-14" d="M192.21,43.77c1.82-.29,3.67-.31,5.5-.1-1.15,3.21-3.92.8-5.66,2.41.04-.57.13-1.74.16-2.31h0Z"/>
    <path class="cls-14" d="M197.82,43.78c5.46-.31,10.93-.24,16.38-.02-.22.37-.65,1.1-.86,1.47-4.99.01-9.99.09-14.98.02l-.54-1.47Z"/>
    <path class="cls-14" d="M214.21,43.78c2.06-.22,4.13-.24,6.19-.07-1.42,2.49-3.59,1.61-5.41,1.45-.2-.34-.59-1.04-.78-1.37h0Z"/>
    <path class="cls-14" d="M220.53,43.7c9.04-.85,18.13-.41,27.19-.2-.27.46-.8,1.37-1.07,1.82-8.52-.15-17.05,0-25.57-.06-.14-.39-.41-1.17-.54-1.56Z"/>
    <path class="cls-14" d="M247.98,43.68c10.06-.85,20.19.79,30.22-.52l.48,2.07-1.25-.02c-9.45.06-18.89.07-28.34.1,0,0-1.12-1.62-1.12-1.62Z"/>
    <path class="cls-14" d="M280.57,46.34c-2.12.86-1.07-3.44.36-3.11.67,1.16.55,2.19-.36,3.11Z"/>
    <path class="cls-14" d="M281.82,45.46c.04-.65.15-1.96.19-2.61,3.41,1.69,7.03.14,10.52.92l.43,1.47c-3.71.55-7.44.09-11.15.21Z"/>
    <path class="cls-14" d="M292.8,43.68c3.6.05,7.23-.42,10.82.19l.68.99c-3.61,1.17-7.51.72-11.15.27,0,0-.35-1.45-.35-1.45Z"/>
    <path class="cls-7" d="M340.05,43.77l.16-.07c1.28,1.15,3.79,2.56,4.64-.12.31.02.93.07,1.24.11,1.12,2.15,3.21,2.32,4.36.12h.02c1.63,2.65,4.02,1.19,6.04,1.52,1.77-.4,4.07,1.17,5.38-1.55h.03c1.17,2.5,4.39,2.55,5.52-.09v-.02c.74,3.27,4.68,4.24,4.48-.26.11,1.22.22,2.45.31,3.69-8.97-.49-17.94-.32-26.9-.24.35.64,1.06,1.91,1.41,2.54-2.12-.09-4.24.21-6.35.49l1.16,2.16c-2.72-2.94-5.61-5.35-8.61-7.35,2.37-.02,4.9,1.21,7.1-.92h0Z"/>
    <path class="cls-24" d="M340.21,43.69c1.52-.54,3.1-.39,4.64-.12-.86,2.69-3.36,1.27-4.64.12Z"/>
    <path class="cls-23" d="M346.1,43.68c1.44-.3,2.92-.27,4.36.12-1.15,2.2-3.24,2.02-4.36-.12Z"/>
    <path class="cls-14" d="M350.49,43.8c3.8-.3,7.61-.29,11.42-.02-1.31,2.72-3.61,1.15-5.38,1.55-2.02-.34-4.41,1.12-6.04-1.52Z"/>
    <path class="cls-14" d="M361.93,43.78c1.83-.22,3.68-.32,5.52-.09-1.12,2.64-4.35,2.59-5.52.09Z"/>
    <path class="cls-41" d="M367.45,43.67c1.49-.21,2.98-.31,4.48-.26.2,4.5-3.74,3.54-4.48.26Z"/>
    <path class="cls-34" d="M336.92,46.93c1.68-2.49,4.62-1.5,6.77-1.25,0,.59,0,1.74,0,2.31-2.26-.26-4.52-.6-6.77-1.06Z"/>
    <path class="cls-4" d="M84.63,48.1c4.03-.25,7.99-1.76,12.01-1.4,4.61,1.09,10.11-2.47,13.9,3.49,3.01,5.44,5.59,11.55,8.88,16.56-2.98.55-5.96.36-8.95.41-1.77-4.45-3.62-8.85-5.59-13.06-2.44-.89-4.95-.55-7.43-.55-22.33.09-44.66-.06-67,.04-1.32-.04-2.63-.35-3.92-.72,4.3-1.84,8.82.45,13.13-1.36,2.79-1.19,5.69,0,8.5-1,4.24-1.5,8.6-.59,12.9-.81,5.23.2,10.41-1.45,15.64-1.29,2.64-.07,5.3.36,7.93-.3Z"/>
    <path class="cls-4" d="M116.85,46.85c53.32.02,106.65.05,159.97-.04,9.65-.49,19.3.04,28.95-.39l-.6,2.35c-1.32.85-2.39,2.44-3.4,4.04-60.75.09-121.5.14-182.25-.01-.55-1.15-1.09-2.34-1.61-3.52-.27-.6-.8-1.82-1.06-2.42h0Z"/>
    <path class="cls-4" d="M345.34,46.85c8.96-.09,17.93-.25,26.9.24,1.32.07,2.64.11,3.97.14h.62c.8,0,2.41,0,3.22-.01h.68l3.47.04h.52c3.49-.56,6.99-.56,10.44.56,19.61.92,39.35.02,58.84,4.17,2.86,5.16,5.92,9.98,8.83,15.06-2,.15-4,.46-5.98.32-1.92-1.34-2.4-5.3-3.51-7.92-.82-3.05-2.52-5.31-4.51-5.74-32.96,0-65.93.04-98.89-.05-1.08-1.4-2.17-2.79-3.2-4.27-.35-.62-1.06-1.9-1.41-2.54h0Z"/>
    <path class="cls-30" d="M301.76,52.81c1.01-1.6,2.08-3.19,3.4-4.04,1.81,1.11,3.8.56,5.63,1.65-2.95,2.87-5.06,7.45-7.74,10.9-.2-2.34-.39-4.67-.63-6.99.04,2.4.2,4.8.35,7.19-2.16.06-4.31.05-6.46-.11l-.22-7.45c1.62.07,3.25.17,4.88.04.19-.3.6-.89.8-1.19h0Z"/>
    <path class="cls-42" d="M315.77,51.31c2.14-1.56,4.29-3.44,6.67-3.66.05,8.57.15,17.13-.04,25.69-2.04.02-4.09.04-6.13.02-.3-7.35.36-14.78-.5-22.06h0Z"/>
    <path class="cls-30" d="M328.73,47.53c3.9,1.41,7.79,4.06,10.94,8.22-2.48-.21-3.18,4.36-4.85,6.44-2.41-3.25.65-7.59-.88-11.27-.17,1.65-.12,3.32-.15,4.99-1.55,1.97-2.69,5.26-4.69,5.96-.77-4.66-.38-9.57-.37-14.33h0Z"/>
    <path class="cls-10" d="M110.55,50.19c2.44-.51,4.9-.62,7.35-.91.52,1.19,1.06,2.37,1.61,3.52,1.53,2.26,3.8.71,5.65,1.16.31,3.76-.24,7.9.74,11.43.84,1.26,1.64,2.64,2.31,4.17l.77,2.41-3.46.42c-.25,1.92-.02,4.29-1.01,5.7-.69-1.45-1.38-2.87-2.09-4.3-3.33-.07-6.68-.06-10.01-.04l-.63-2.15c3.33.34,6.69.11,10.03.42-.4-2.21-1.44-3.75-2.39-5.3-3.29-5.01-5.87-11.12-8.88-16.56Z"/>
    <path class="cls-22" d="M340.4,49.88c2.11-.27,4.23-.57,6.35-.49,1.03,1.49,2.12,2.87,3.2,4.27,1.38,3.32.54,7.67.73,11.45l-1.53-.56c-2.01-4.97-4.79-8.83-7.59-12.51,0,0-1.16-2.16-1.16-2.16Z"/>
    <path class="cls-62" d="M119.51,52.8c60.75.15,121.5.1,182.25.01-.2.3-.6.89-.8,1.19-1.63.14-3.25.04-4.88-.04-.25,0-.76-.02-1.01-.02-2.14-.01-4.26-.01-6.39,0l-.98.02c-1.93.07-3.86.11-5.78.04h-.42c-2.61-.1-5.22-.06-7.83.01-2.34.05-4.67-.04-7-.07l-6.46-.04c-2.58.02-5.16.06-7.74.02-2.2,0-4.4,0-6.59.01-2.48.04-4.96.01-7.44,0-2.23.02-4.45.02-6.67.02-2.53.01-5.05.04-7.58-.02-2.17-.02-4.32-.06-6.48.19-2.56-.11-5.11-.2-7.67-.2-2.01.01-4.02-.02-6.02-.04-7.29-.05-14.57-.27-21.87.05-2.26-.01-4.53.01-6.8.02-2.38.01-4.76-.01-7.15-.02-2.35.01-4.7,0-7.05-.06.03,2.45.06,4.89.03,7.34l-.36.02c.01-2,.04-4,.07-5.99v-1.31c-7.17-.24-14.36-.26-21.55,0-4.59-.09-9.18.27-13.78.02h-.42c-1.85-.45-4.12,1.1-5.65-1.16h0Z"/>
    <path class="cls-22" d="M304.61,70.27c2.22-8.23,6.3-15.1,11.16-18.96.86,7.27.2,14.71.5,22.06-1.55,0-3.1-.12-4.64.01-2.77,2.85-4.23,9.81-7.99,9.23-57.8.06-115.61-.01-173.41.05-1.19,0-2.36-.24-3.51-.75,1.75-2.12,4-1.17,6-1.42-.01-2.86,0-5.71.04-8.57,2.24-.25,4.48-.31,6.72-.17-.15,2.91-.13,5.85.05,8.75,2.43-.1,5.09.96,7.4-.51.19-2.69.11-5.41.12-8.12,2.13-.12,4.26-.4,6.39-.04,1.7,1.97.64,5.95.85,8.85,2.34,0,4.69-.05,7.03-.15.04-2.91,0-5.82-.13-8.73,2.26-.14,4.52-.1,6.78.11.04,2.81.04,5.64.03,8.45,2.43.27,4.88.3,7.32.14.04-2.87.07-5.74.09-8.61,2.23-.3,4.47-.3,6.7.11.07,2.89.32,5.74.6,8.58,2.26.07,4.53.04,6.8-.11-.03-2.87-.05-5.75-.07-8.62,2.23-.17,4.47-.16,6.71.02.15,2.84.21,5.67.11,8.52,2.46.3,4.94.32,7.41.11.02-2.87.04-5.76.06-8.63,2.13-.12,4.26-.14,6.39-.01.01,2.87.02,5.74,0,8.61,2.45.16,4.9.27,7.35.06-.13-.31-.41-.95-.54-1.27-2.03-.31-4.08-.04-6.12-.12.02-1.96.05-3.92.08-5.89,4.56,1.21,8.83-2.76,13.38-1.34.02,2.86.03,5.74.02,8.6,2.38.11,4.76.12,7.15.04.16-2.86.22-5.72.19-8.6,2.26-.27,4.51-.3,6.77-.14.07,2.91.1,5.82.08,8.73,2.48.17,4.96.14,7.44-.09l-.07-8.58c2.24-.17,4.49-.15,6.74.06-.25,2.85-.22,5.74.01,8.58,2.47.17,4.94.16,7.41-.07-.04-2.86-.03-5.71.01-8.56,2.23-.16,4.47-.16,6.71.01l.09,8.48c2.29.21,4.59.3,6.89.31.07-2.72-.46-5.72.26-8.26,2.31-1.62,5.04-.39,7.51-.47.03,2.89.03,5.76.02,8.65,2.3.05,4.59-.01,6.89-.19-.01-2.85-.07-5.7-.2-8.55,2.27-.11,4.59-.55,6.84.35.1.54.29,1.6.39,2.12.75-.34,1.51-.66,2.27-.97,1.48-.01,2.96.1,4.45.2-.06,1.84-.11,3.66-.16,5.5-1.82-.01-3.64-.01-5.45,0,0-2.2-.53-3.66-1.59-4.36.1,2.04.2,4.07.31,6.11,2.52.19,5.05.16,7.56-.09.05-2.62.11-5.25.22-7.86.58-.74,1.09-1.6,1.53-2.59h0Z"/>
    <path class="cls-66" d="M454.54,51.68c3.88-.52,7.74.09,11.62.34,2.93,1.71,6.07,1.25,9.09,2.12l.13,2.06c-.63-.06-1.87-.21-2.49-.27l-.41-.04-2.47-.05c.28,1.3.58,2.61.85,3.94-.39-1.27-.77-2.56-1.13-3.86-2.45.11-4.89.04-7.32.06-.31-.01-.92-.01-1.22-.02-1.53-.02-3.06-.11-4.58-.22-.69-1.35-1.38-2.7-2.05-4.05h0Z"/>
    <path class="cls-8" d="M7.96,53.72c1.85,4.55,1.8,11.15,4.17,14.92,0-.96-.01-2.86-.02-3.82,1.03-.06,1.99.2,2.28,2.16.95-.37,2.35-2.71,3.12-.89l.65,5.06c-1.42.91-2.95.81-4.43.46-.07.42-.23,1.26-.31,1.69l1.96-.36-.55.42h-2.95c-.76-1.35-1.64-2.46-2.58-3.44l-.33,1.65-.61-.51.62-1.2c.37-.14,1.12-.39,1.5-.52-.69-2.42-1.53-4.75-3.4-3.47-.17,1.49.35,3.89-1.03,4.02.76-2.96-.63-5.31-.92-8.11-.6.27-1.41,1.52-1.71-.29-.48-5.24,3.39-4.4,4.56-7.77Z"/>
    <path class="cls-32" d="M139.36,53.94c7.2-.26,14.38-.24,21.57,0v1.31c-2.16-.09-4.31-.1-6.45-.05.04,2.04.09,4.07.14,6.12,2.07.11,4.15.11,6.23-.09l.36-.02c0,.62-.03,1.86-.04,2.49,2.31.26,4.61.25,6.92-.05-.16-3.24-.08-6.49.14-9.71,2.38.01,4.76.04,7.15.02.01,3.24-.04,6.49-.22,9.72,2.47.29,4.95.26,7.42-.07-.24-3.21-.37-6.44-.4-9.67,7.29-.32,14.57-.1,21.87-.05-.04,3.25-.18,6.49-.5,9.68,2.2.26,4.42.34,6.63.2-.07-3.29-.1-6.56-.11-9.85,2.55,0,5.11.09,7.67.2-2.1,1.79-4.52.89-6.77,1.11.03,2.04.05,4.06.08,6.1,1.89.06,3.78.11,5.67.21,1.88,3.81,5.07,2.01,7.61,2.12-.07-3.24-.11-6.49-.12-9.73,2.52.06,5.05.04,7.58.02-.04,3.22-.09,6.46-.14,9.68,2.3.25,4.6.24,6.9-.01-.05-3.24-.08-6.46-.09-9.7,2.48.01,4.96.04,7.44,0,.08,3.22.07,6.46-.07,9.68,2.35.3,4.7.31,7.06.07-.45-3.2-.53-6.5-.39-9.77,2.58.04,5.16,0,7.74-.02-.09,3.22-.18,6.46-.29,9.7,2.32.31,4.66.34,6.99-.04-.16-3.2-.22-6.41-.24-9.62,2.33.04,4.66.12,7,.07.01,3.21.08,6.42.21,9.63,2.55.31,5.11.32,7.66.01,0-3.22-.02-6.45-.04-9.67h.42s.04,7.39.04,7.39c1.87.22,3.75.24,5.63.07.03-2.5.07-5,.11-7.49l.98-.02c.18,3.26.12,6.56-.42,9.72,2.35.29,4.72.31,7.08.02-.21-3.24-.28-6.5-.27-9.75.25,0,.76.02,1.01.02l.22,7.45c2.15.16,4.3.17,6.46.11-.61,3.72-2.72,6.1-3.67,9.58,1.85.15,3.74.22,5.52-.84-.43.99-.95,1.85-1.53,2.59-.11,2.61-.17,5.24-.22,7.86-2.52.25-5.04.27-7.56.09-.11-2.04-.22-4.07-.31-6.11,1.06.7,1.59,2.16,1.59,4.36,1.81-.01,3.62-.01,5.45,0,.04-1.84.1-3.66.16-5.5-1.49-.1-2.97-.21-4.45-.2l.71-2.45c.69-2.15,1.79-4,2.08-6.47-57.02-.06-114.03-.06-171.05-.01-1.2.14-2.58-.42-3.59.97-.98-3.54-.43-7.67-.74-11.43h.42l.31,7.24c1.98.36,3.97.42,5.95.19.07-2,.19-4.01.32-6.01.94,2.42.42,5.44.51,8.13,2.33.46,4.69.46,7.03.09-.4-3.17-.48-6.42-.34-9.66h0Z"/>
    <path class="cls-59" d="M349.95,53.66c32.96.09,65.93.05,98.89.05,1.99.42,3.69,2.69,4.51,5.74-1.85,3.24-.67,8.66-1.24,12.85-.5-5.31.64-10.93-.54-16.02-1.59-1.66-3.5-1.82-5.3-2.1,0,6,.08,12.01-.09,18.01-.14-5.96-.04-11.92-.05-17.87-1.69-.05-3.37-.05-5.05,0-.08,5.84-.02,11.68-.01,17.53l-.76-.15c.08-5.79.1-11.57.01-17.36-1.63-.09-3.25-.15-4.88-.21-.12,6.26.14,12.55-.2,18.81-1.27-6-.28-12.56-.6-18.78-1.78.02-3.55.06-5.32.15-.07,6.07.19,12.17-.2,18.24-.56-6.06-.22-12.18-.27-18.28-1.61-.04-3.21-.04-4.81,0,.02,5.86.06,11.72-.04,17.59-.21-.04-.64-.1-.86-.12.05-5.82.08-11.65,0-17.46-1.73-.02-3.46-.01-5.19.04.02,5.91.11,11.82-.04,17.73-.13-5.91-.04-11.82-.09-17.73-1.7-.06-3.41-.09-5.11-.07-.13,5.82-.06,11.65-.06,17.48l-.55-.06c.06-5.8.08-11.6,0-17.39h-4.76c-.13,5.12-.02,10.26-.04,15.38.01,1.01-.16,1.92-.54,2.72-.33-6.01-.1-12.06-.16-18.08-1.73-.04-3.47-.02-5.2.02-.33,5.97.36,12.06-.33,17.94-.37-5.95-.07-11.95-.26-17.92l-4.47-.2c-.14,5.19,0,10.37-.05,15.56.06,1.21-.22,2.15-.86,2.8-.33-6.1-.13-12.23-.22-18.34-1.56.04-3.1.09-4.65.14-.07,6.04.1,12.08-.11,18.11l-.68-1.06c-.33-5.66.01-11.38-.16-17.06-1.65-.04-3.29-.05-4.93-.04-.16,6.1.36,12.3-.36,18.33-.34-6.07-.12-12.18-.17-18.28-1.81-.1-3.61-.11-5.41-.05-.21,6.15.46,12.45-.42,18.48-.39-6.15-.14-12.33-.18-18.49-1.57,0-3.13.01-4.7.04-.07,6.06.23,12.16-.26,18.18-.37-6.05-.14-12.13-.18-18.19-1.7-.02-3.39-.02-5.09-.01-.11,5.84-.09,11.67,0,17.51h-.64c-.01-5.81.01-11.65-.05-17.47-1.73-.02-3.45,0-5.17.04-.08,5.79-.06,11.57-.02,17.37-.13,0-.37.01-.5.02.07-5.84.08-11.66-.01-17.48-1.76-.01-3.53,0-5.28.05.01,6.02.14,12.05-.11,18.06-.3-6-.1-12.03-.16-18.06-1.64-.04-3.27-.04-4.9-.01.06,4.89,0,9.78.02,14.67-.65-1.47-1.31-2.92-1.96-4.39l1.53.56c-.19-3.77.65-8.12-.73-11.45h0Z"/>
    <path class="cls-22" d="M28.61,54.1l5.52-.04c.2,6.1-.27,12.25.25,18.31.38-6.06.11-12.16.19-18.24,1.73-.01,3.47-.02,5.2-.02-.01,6.04-.1,12.07.06,18.11.13-6.04.02-12.07.08-18.11,1.92-.01,3.84.01,5.76.05-.02,6.06-.13,12.13.1,18.18.29-6.07.07-12.16.14-18.24,1.75,0,3.5.01,5.25.02.33,6.05-.53,12.37.4,18.26.28-6.07.04-12.16.13-18.23,1.74-.04,3.48-.06,5.22-.06-.04,6.09-.2,12.18.03,18.27.13-6.06.07-12.12.14-18.18,1.75-.05,3.5-.06,5.25-.06.02,5.87.04,11.75-.04,17.62.15.01.45.04.6.04-.07-5.87-.05-11.76-.04-17.63,1.67-.04,3.33-.06,4.99-.06.2,6.26-.36,12.62.33,18.83.31-6.25.12-12.53.18-18.79,1.83-.02,3.67-.01,5.5.02.07,6.19-.12,12.38.16,18.56.51-6.15.11-12.38.23-18.58,1.68,0,3.36,0,5.05.02.09,6.06-.19,12.16.19,18.21.56-6.04.04-12.2.26-18.27,1.77.02,3.54.05,5.32.1.06,6.12-.2,12.26.19,18.36.21-6.14.06-12.27.1-18.41,1.61-.01,3.22-.02,4.84-.02.07,6.15-.16,12.3.12,18.43.74-6.05.19-12.3.36-18.43,1.82-.02,3.65-.01,5.46.04.16,6.25-.36,12.58.31,18.77.33-6.25.11-12.53.18-18.79,1.73-.01,3.46-.01,5.2,0,.08,5.97-.17,11.96.16,17.92.25-5.97.07-11.97.16-17.96l2.75.04c1.97,4.21,3.82,8.61,5.59,13.06.44,1.47.88,2.96,1.3,4.46l.63,2.15c-26.47.05-52.95-.15-79.42.11-1.12-2.1-2.91-.92-4.34-1.22.07-6.19.1-12.37-.04-18.56Z"/>
    <path class="cls-5" d="M125.58,53.96c4.59.25,9.18-.11,13.78-.02-.13,3.24-.06,6.49.34,9.66-2.34.37-4.7.37-7.03-.09-.1-2.7.42-5.71-.51-8.13-.13,2-.25,4.01-.32,6.01-1.98.24-3.97.17-5.95-.19l-.31-7.24Z"/>
    <path class="cls-30" d="M147.19,54.49c2.26-.49,4.54-.45,6.77.39.17,2.89.28,5.79.28,8.7-2.46.42-4.94.56-7.39-.1.31-2.96.39-5.97.35-8.98h0Z"/>
    <path class="cls-5" d="M161.18,53.87c2.34.06,4.7.07,7.05.06-.22,3.22-.31,6.47-.14,9.71-2.31.3-4.61.31-6.92.05.01-.62.04-1.86.04-2.49.03-2.45,0-4.89-.03-7.34h0Z"/>
    <path class="cls-22" d="M175.37,53.96c2.26-.01,4.53-.04,6.8-.02.03,3.24.16,6.46.4,9.67-2.47.34-4.95.36-7.42.07.19-3.24.24-6.49.22-9.72Z"/>
    <path class="cls-5" d="M189.64,54.42c2.18-.35,4.38-.25,6.56.15.11,3.01.13,6.04.02,9.05-2.24.3-4.49.32-6.73,0,.09-3.06.13-6.14.15-9.2Z"/>
    <path class="cls-30" d="M204.03,53.89c2,.01,4.01.05,6.02.04,0,3.29.04,6.56.11,9.85-2.21.14-4.43.06-6.63-.2.32-3.2.46-6.44.5-9.68Z"/>
    <path class="cls-40" d="M217.72,54.12c2.15-.25,4.31-.21,6.48-.19,0,3.25.04,6.5.12,9.73-2.54-.11-5.73,1.69-7.61-2.12-1.89-.1-3.78-.15-5.67-.21-.03-2.04-.05-4.06-.08-6.1,2.25-.22,4.67.67,6.77-1.11h0Z"/>
    <path class="cls-30" d="M231.77,53.96c2.22,0,4.44,0,6.67-.02,0,3.24.04,6.46.09,9.7-2.3.25-4.6.26-6.9.01.05-3.22.1-6.46.14-9.68Z"/>
    <path class="cls-22" d="M245.88,53.94c2.2-.01,4.39-.01,6.59-.01-.13,3.27-.05,6.57.39,9.77-2.35.24-4.7.22-7.06-.07.13-3.22.15-6.46.07-9.68h0Z"/>
    <path class="cls-5" d="M260.21,53.9l6.46.04c.01,3.21.08,6.42.24,9.62-2.33.37-4.67.35-6.99.04.11-3.24.2-6.47.29-9.7h0Z"/>
    <path class="cls-40" d="M273.67,54.01c2.61-.07,5.22-.11,7.83-.02.01,3.22.03,6.45.04,9.67-2.55.31-5.11.3-7.66-.01-.13-3.21-.19-6.42-.21-9.63h0Z"/>
    <path class="cls-40" d="M281.92,54c1.93.07,3.86.04,5.78-.04-.04,2.49-.08,4.99-.11,7.49-1.88.16-3.76.15-5.63-.07,0,0-.04-7.37-.04-7.37Z"/>
    <path class="cls-22" d="M288.68,53.94c2.13-.01,4.26-.01,6.39,0,0,3.25.06,6.51.27,9.75-2.36.29-4.73.26-7.08-.02.54-3.16.6-6.46.42-9.72h0Z"/>
    <path class="cls-64" d="M139.91,55.25c2.03-.14,4.06-.14,6.1.01-.01,2.04-.04,4.06-.05,6.1-2.02.15-4.03.16-6.05.04,0-2.05,0-4.1,0-6.15h0Z"/>
    <path class="cls-22" d="M154.48,55.2c2.14-.05,4.29-.04,6.44.05-.03,1.99-.05,3.99-.07,5.99-2.08.2-4.16.2-6.23.09-.05-2.05-.1-4.09-.14-6.12Z"/>
    <path class="cls-37" d="M168.78,55.35c2.05-.2,4.12-.45,6.17.1.01,1.9.04,3.81.07,5.72-2.11.37-4.23.4-6.34.12-.04-1.99-.01-3.97.1-5.95h0Z"/>
    <path class="cls-16" d="M182.82,55.3c1.94-.17,3.88-.19,5.82.02v6.06c-1.88.14-3.76.09-5.63-.11-.13-1.99-.19-3.97-.19-5.97h0Z"/>
    <path class="cls-30" d="M196.69,55.19c2-.09,4.01-.07,6.01.05.03,2.02.03,4.04,0,6.06-1.96.24-3.94.2-5.9-.02-.06-2.02-.1-4.06-.11-6.09Z"/>
    <path class="cls-30" d="M225.18,55.22c1.96-.11,3.94-.07,5.91.11.04,2,.02,4-.05,6-1.96.12-3.94.11-5.9-.05,0-2.02,0-4.04.04-6.06Z"/>
    <path class="cls-30" d="M239.22,55.3c1.88-.12,3.75-.12,5.62-.02,0,2,0,4,0,5.99-1.85.29-3.7.29-5.54-.01-.07-1.99-.1-3.96-.09-5.95Z"/>
    <path class="cls-37" d="M253.01,55.29c2.05-.2,4.11-.19,6.17,0-.01,2.02-.04,4.04-.06,6.06-2.04.16-4.08.15-6.12,0,0-2.01,0-4.04,0-6.06h0Z"/>
    <path class="cls-30" d="M267.68,55.27c1.82-.16,3.65-.17,5.49.02.01,1.99.03,3.97.04,5.97-1.85.22-3.69.2-5.53-.06-.01-1.97-.01-3.96,0-5.94Z"/>
    <path class="cls-59" d="M461.17,55.95c.31.01.92.01,1.22.02,2.95,5.15,6.21,9.85,8.89,15.43l2.93.2c-2.37-5.5-5.87-9.36-8.01-15.13,4.23,3.16,6.62,10.51,10.17,15.28l1.31-.39c-1.79-4.17-4.85-6.81-5.94-11.75,2.61,3.67,4.68,8.38,7.48,11.7l1.5.11c-2.3-5.86-6.15-9.47-8.25-15.55l.41.04c3.1,5.26,6.13,10.67,9.39,15.66.33-.3,1-.89,1.33-1.17,1.1-.5,2.29-.09,3.43-.16.05-.77.15-2.32.2-3.11h1.25c-.06.92-.18,2.75-.24,3.67l1.54-.05c1.98.01,3.95-.36,5.93-.59,5.26.66,10.49-1,15.76-.54-.17-3.3-.19-6.61-.08-9.92-1.25.21-2.48.42-3.71.56.66-1.79,2.02-2.85,3.27-2.44.42-.99.97-1.69,1.64-2.12.23,4.86-.76,10.33.67,14.76-1.46,2.59-3.24,4.69-4.4,7.71l-.26-.45c-.19-.34-.59-1-.78-1.32-3.81-.61-7.99,1.52-11.52-1.32,4.22-.79,8.48-.4,12.71-.17,1.12-.75,1.78-2.62,2.62-3.99-7.57-.09-15.08,1.59-22.65,1.22-7.76.54-15.51.37-23.27.66,1.24-1.09,2.63-1.27,4.01-1.32-2.7-5.42-6.2-9.63-8.55-15.53h0Z"/>
    <path class="cls-5" d="M462.39,55.97c2.43-.02,4.88.05,7.32-.06.36,1.3.74,2.59,1.13,3.86-.27-1.32-.57-2.64-.85-3.94l2.47.05c2.11,6.07,5.95,9.68,8.25,15.55l-1.5-.11c-2.8-3.31-4.87-8.02-7.48-11.7,1.09,4.94,4.15,7.57,5.94,11.75l-1.31.39c-3.54-4.77-5.94-12.12-10.17-15.28,2.14,5.77,5.63,9.63,8.01,15.13l-2.93-.2c-2.68-5.59-5.94-10.28-8.89-15.43h0Z"/>
    <path class="cls-51" d="M472.88,55.92c.63.06,1.87.21,2.49.27.04.54.1,1.61.13,2.15.33.37.97,1.11,1.3,1.47.94.92,1.75,2.17,2.31,3.76,1.77,1.79,2.65,5.19,4.5,6.82-.33.29-1,.87-1.33,1.17-3.27-4.99-6.3-10.4-9.39-15.66h0Z"/>
    <path class="cls-56" d="M5.01,58.04c.76-.29,1.52-.57,2.28-.87.61,2.64,1.22,5.27,1.82,7.91-2.84,1.37-3.89-3.3-4.1-7.04Z"/>
    <path class="cls-39" d="M329.24,62.26c1.7-1.04,2.93-3.26,4.18-5.31.19,2.7,1.44,7.41-.89,8.38-.2,2.74-2.74,2.51-2.49,5.67-2.48-.3-1.09-5.94-1.09-8.61.52.41,1.57,1.22,2.1,1.62l-1.82-1.76Z"/>
    <path class="cls-32" d="M1,64.6c-.63-.96-.65-2.52-.11-3.55.5,2.76.83,5.62,1.53,8.28.98.24,1.96.45,2.95.62-.86,1.55-2.08.64-3.15.56-.51-1.91-.95-3.89-1.22-5.92Z"/>
    <path class="cls-4" d="M125.9,65.4c1.01-1.4,2.39-.84,3.59-.97,57.02-.05,114.03-.05,171.05.01-.29,2.47-1.39,4.32-2.08,6.47-3.7.2-7.41.59-11.1.16-46.65.07-93.31-.01-139.96.05-5.48-.57-10.96.67-16.43-.14-1,.05-1.92-.56-2.75-1.41-.68-1.54-1.47-2.91-2.31-4.17h0Z"/>
    <path class="cls-7" d="M110.48,67.16c2.98-.05,5.97.14,8.95-.41.95,1.55,1.99,3.09,2.39,5.3-3.34-.31-6.7-.09-10.03-.42-.42-1.5-.86-2.99-1.3-4.46h0Z"/>
    <path class="cls-45" d="M488.48,67.15l2.11.39c-.28,1.07-.54,2.15-.8,3.22l-1.54.05c.06-.92.18-2.75.24-3.66Z"/>
    <path class="cls-55" d="M490.59,67.53c.75-1.61,1.82.34,2.55,1.01.54-1.42,1.41-1.91,2.59-1.47,0,.77,0,2.32,0,3.1-1.98.22-3.95.6-5.93.59.26-1.07.53-2.15.8-3.22Z"/>
    <path class="cls-3" d="M14.23,68.48c1.02-.89,1.7-.59,2.03.87-1.03.87-1.7.59-2.03-.87Z"/>
    <path class="cls-6" d="M457.23,68.22c2,.71,5.41-2.39,6.54,1.29-2.17.35-4.35.45-6.53.41v-1.7s-.01,0-.01,0Z"/>
    <path class="cls-59" d="M128.21,69.57c.83.85,1.75,1.46,2.75,1.41,5.47.81,10.96-.44,16.43.14,46.64-.06,93.3.02,139.96-.05,3.7.42,7.41.04,11.1-.16l-.71,2.45c-.76.31-1.52.64-2.27.97l-.39-2.12c-2.25-.9-4.57-.46-6.84-.35.13,2.85.19,5.7.2,8.55-2.3.17-4.59.24-6.89.19,0-2.89,0-5.76-.02-8.65-2.47.09-5.2-1.15-7.51.47-.72,2.54-.19,5.54-.26,8.26-2.3-.01-4.6-.1-6.89-.31l-.09-8.48c-2.23-.17-4.47-.17-6.71-.01-.04,2.85-.05,5.7-.01,8.56-2.47.24-4.94.25-7.41.07-.24-2.85-.27-5.74-.01-8.58-2.25-.21-4.5-.24-6.74-.06l.07,8.58c-2.48.22-4.96.26-7.44.09.02-2.91,0-5.82-.08-8.73-2.26-.16-4.52-.14-6.77.14.03,2.87-.04,5.74-.19,8.6-2.38.09-4.76.07-7.15-.04,0-2.86,0-5.74-.02-8.6-4.56-1.42-8.82,2.55-13.38,1.34-.03,1.96-.06,3.92-.08,5.89,2.04.09,4.09-.19,6.12.12.13.32.41.96.54,1.27-2.45.21-4.9.1-7.35-.06.01-2.87,0-5.74,0-8.61-2.13-.12-4.26-.11-6.39.01-.01,2.87-.04,5.76-.06,8.63-2.47.21-4.95.19-7.41-.11.1-2.85.04-5.69-.11-8.52-2.24-.19-4.48-.2-6.71-.02.01,2.87.04,5.75.07,8.62-2.27.15-4.53.19-6.8.11-.28-2.85-.53-5.7-.6-8.58-2.23-.41-4.47-.41-6.7-.11-.01,2.87-.04,5.74-.09,8.61-2.44.16-4.89.14-7.32-.14.01-2.81,0-5.64-.03-8.45-2.26-.21-4.53-.25-6.78-.11.13,2.91.17,5.82.13,8.73-2.34.1-4.69.15-7.03.15-.21-2.9.86-6.87-.85-8.85-2.13-.36-4.26-.09-6.39.04,0,2.71.07,5.44-.12,8.12-2.31,1.47-4.96.41-7.4.51-.19-2.9-.2-5.84-.05-8.75-2.24-.14-4.48-.07-6.72.17-.04,2.86-.05,5.71-.04,8.57-2,.25-4.25-.7-6,1.42-.98-.76-1.5-2.52-2.21-3.81.99-1.41.77-3.77,1.01-5.7l3.46-.42-.77-2.41h0Z"/>
    <path class="cls-22" d="M9.29,69.93c.94.97,1.82,2.09,2.58,3.42h2.95s-2.13,1.81-2.13,1.81l.04.49c.33,2.17.65,4.36.86,6.59.28,4.2,1.82,7.97,1.61,12.31.45-.19,1.35-.57,1.79-.77-.16-4.25-.8-8.38-1.23-12.57l.29.15c.74,3.94.95,8.07,1.41,12.11,35.93-.24,71.87.15,107.8-.17,2.55-.34,5.13-.52,7.69-.09,2.13.25,4.29.42,6.42-.06l.42-.09c2.23-.21,4.46-.24,6.68.09l.6.09c2.22.31,4.44.25,6.66.07,2.51-.27,5.02-.44,7.52-.09,2.16.25,4.33.25,6.49.12,2.54-.22,5.08-.15,7.62.01,2.2.11,4.4.11,6.6-.01,2.52-.21,5.03-.24,7.55-.02,2.21.14,4.42.15,6.63.02,2.49-.2,4.99-.24,7.49-.05,2.12.15,4.24.16,6.36.04,2.52-.17,5.05-.22,7.58-.02,2.19.16,4.38.15,6.57,0,2.51-.2,5.02-.2,7.54,0,2.23.15,4.45.14,6.68.11h.81s.06-2.62.06-2.62c1.79-.09,3.7.64,5.43-.14-1.73-.16-3.48.15-5.21-.21-.17-.39-.52-1.17-.69-1.57,4.64.32,9.29-.19,13.93.02,2.23.32,4.48.35,6.73.25.04.87.13,2.61.18,3.47-2.29-.11-4.58-.21-6.86.1,2.47.35,4.96.25,7.44.54,2.17.22,4.34.24,6.51.02,2.4-.3,4.82-.36,7.23-.06,2.31.25,4.64.3,6.96.09,2.53-.35,5.08-.42,7.61-.02,2.19.24,4.38.19,6.56-.11,2.58-.35,5.16-.27,7.73.05,65.23.55,130.48-.16,195.71.36,3.1-4.84,5.95-10.1,8.98-15.06-3.19-.24-6.76,1.72-9.7-.64,3.59-.49,7.21-.56,10.81-.15-3.29,5.91-6.86,11.38-10.08,17.39,4.99.14,9.99-.1,14.98.11l-.38.95c-5.85.65-11.74,1.3-17.58.46-3.59,3.55-7.7,5.02-11.51,7.71-1.5,1.04-3.17.96-4.74,1.45-4.54,2.46-9.36,1.69-14.06,1.8H37.16c-3.69.16-7.19-2.3-10.85-2.67v2.49c-.39,0-1.16.02-1.55.04l.03-.9,1.25-.04-.48-2c-.79-.35-2.37-1.04-3.17-1.37l.42,3.75-.77-.16c.04-.95.12-2.86.16-3.81-3.27-1.39-6.61-2.16-9.88-3.55l-.13-1.39c-.22-.27-.67-.82-.89-1.11-3.75-.27-7.67.6-11.3-1.32,4.92-.71,9.88.01,14.82-.36.21-6.07-2.29-11.26-1.85-17.38l-1.53.2c.68-1.01.94-2.31.77-3.91-1.44,1.3-2.37-1.17-3.25-2.51l.33-1.65h0Z"/>
    <path class="cls-72" d="M458.24,70.93c2.2-.5,4.44-.51,6.66-.8l.06,2.01c-2.37.01-4.73.02-7.09-.12,0,0,.36-1.09.36-1.09Z"/>
    <path class="cls-4" d="M488.98,72.14c7.57.36,15.08-1.31,22.65-1.22-.84,1.36-1.5,3.24-2.62,3.99-4.24-.22-8.49-.61-12.71.17,3.54,2.85,7.71.71,11.52,1.32.19.32.59.99.78,1.32-3.59-.41-7.22-.34-10.81.15,2.94,2.36,6.51.4,9.7.64-3.03,4.96-5.88,10.22-8.98,15.06-65.23-.52-130.48.19-195.71-.36.06-.89.19-2.66.25-3.55,45.36-.04,90.72,0,136.08-.01,6.45-.2,12.91.4,19.34-.36l-.87-1.55-2.91-.3c.19-1.61.39-3.22.59-4.84l-1.03-1.85-1.7-1.96c-2.23,1.01-3.27,4.71-1.91,8.13-2.71,1.32-5.58.89-8.29-.17l1.02-1.36c.26-2.76-.27-5.26-1.92-6.27l-1.62.35c-.33.15-1.01.47-1.35.62-.07,2.5-.01,5.01.07,7.51-2.11.02-4.21.04-6.31.05.28-1.95.55-3.9.68-5.89-.25-.25-.74-.76-.99-1.01l-1.76-1.64-1.84,1.21c-.57,1.86-.8,3.84-.5,5.89-.04.36-.14,1.09-.19,1.45-2.69.2-5.38.09-8.05-.51.82-1.02,1.5-2.3,2.05-3.74-.39-.97-.8-1.94-1.21-2.89-.8-3.19-3.54-2.04-4.18.77-.68,2.06.1,4.32.32,6.41-2.53-.02-5.08.12-7.58-.57,1.56-3.16.51-7.35-1.76-8.26-1.92,1.41-2.52,4.44-1.77,7.72-2.2,1.99-4.79.75-7.17.87.25-2,1.06-4.17.35-6.16-.76-3.54-3.9-3.8-4.98-.57-1.41,1.92-.26,4.7.2,6.89-2.3.02-4.59.01-6.88-.1.08-.85.25-2.54.33-3.37l.13-1.01c-.23-.69-.71-2.05-.94-2.74l-1.73-1.44c-.49.39-1.47,1.17-1.96,1.57-.15,2.12-.01,4.24.28,6.32-.1.16-.29.5-.39.67-2.68.27-5.4.39-8.05-.6l.98-3.05.74-.2c-.67-1.45-1.31-2.94-1.79-4.57-.82.1-1.62.21-2.43.32-.4,1.32-.79,2.64-1.18,3.95.26.91.79,2.72,1.05,3.64-2.94.95-5.93.59-8.91.56.88-2.86,1.06-6.95-.97-8.55-1.88-2.21-3.78,1.29-4.18,4.27.31,1.42.62,2.85.92,4.27-3.37-.06-6.78.51-10.12-.51.14-2.2.16-4.4-.06-6.56-.64-.5-1.27-1-1.89-1.5-.59.56-1.17,1.12-1.74,1.7-.24.26-.71.76-.95,1.01.02,1.99.24,3.94.51,5.87-3.39-.09-6.8.49-10.16-.52.36-1.57.59-3.19.68-4.84l-.3-2.69c-2.66-3.32-6.49,2.54-4.03,6.79.36.12,1.06.37,1.42.51-3.38,1.21-6.98,1.36-10.34-.1l.71-.3c1.67-2.05.77-4.96-.06-7.35-1.1-.02-2.39-.86-3.33.46-1.26,1.67-1.19,4.84-.34,6.91l.89.46c-1.4.46-2.81.82-4.24.75-7.93-.17-15.87.1-23.79-.11-1.28-.11-2.52.34-3.72.92-2.1.59-4.26.55-6.36-.02-3.25-1.7-6.67-.5-10-.67-6.3.36-12.77-1.29-18.96,1.09-4.64-.21-9.29.3-13.93-.02l-.56-.75c-13.15-.26-26.31-.05-39.47-.04-3.72.57-7.47,1.04-11.18.09-6.23-.29-12.47-.05-18.7-.12-1.83-.44-.85,3.61-1.11,5.3-2.16.12-4.33.12-6.49-.12.05-1.02.14-3.06.19-4.09,1.88.04,3.77.06,5.66-.19-1.21-1.36-2.71-.96-4.09-1.04-5.42.22-10.87-.34-16.27.74-.1,1.5-.19,3-.27,4.5-2.23-.32-4.46-.3-6.68-.09l.33-.1c2.07-.62,4.18-.29,6.26-.22,0-.96.03-2.87.04-3.82-2.02-.01-4.06.29-6.07-.32-2.57-1.34-5.27-.74-7.9-.8-5.34.01-10.68-.06-16.02.02,0-.31.01-.95.02-1.26.17-2,.25-4.01.09-6.01l-1.91-1.56-1.85,1.4c-.19.67-.54,2.04-.73,2.71l.07,1.12c.05.87.16,2.62.22,3.49-3.3.09-6.6.04-9.9.05.39-2.25,1.53-4.89.42-7.06-.81-2.87-3.42-3.32-4.57-.84-.86,2.54-.14,5.37.27,7.92-2.74-.01-5.49-.01-8.22.02.74-2.61.95-5.44.5-8.22-1.15-1.04-2.45-1.27-3.73-1.44-.57,1.3-1.21,2.55-1.62,4.02-.13,2.09.81,3.77,1.21,5.62l-1.96-.16c.1-3.77.05-7.56-.14-11.32l-4.06-.12c-.13,3.8-.3,7.66.27,11.38.14-3.49.17-6.99.22-10.48l3.13-.15c.07,3.45.1,6.9.09,10.36-1.12.37-2.52.09-3.22,1.94,14.66.7,29.35.05,44.02.27l.21,3.8c-35.93.32-71.87-.06-107.8.17-.46-4.04-.67-8.17-1.41-12.11,19.36-.22,38.73.31,58.08-.27.07-.59.21-1.79.28-2.37-6.94.01-13.9-.39-20.84.37-12.45.04-24.9-.04-37.36.04l-.95-2.21c-.07.97-.22,2.92-.28,3.9l.77.4c.43,4.19,1.07,8.32,1.23,12.57-.45.2-1.35.59-1.79.77.21-4.34-1.33-8.11-1.61-12.31-.21-2.22-.54-4.41-.86-6.59,3.91,1.01,7.87-.11,11.8.25,2.83-.29,6.03,1.16,8.45-2.02,26.47-.26,52.95-.06,79.42-.11,3.33-.02,6.68-.04,10.01.04.71,1.42,1.4,2.85,2.09,4.3.71,1.29,1.24,3.05,2.21,3.81,1.15.51,2.32.75,3.51.75,57.8-.06,115.61.01,173.41-.05,3.76.57,5.22-6.39,7.99-9.23,1.54-.14,3.09-.01,4.64-.01,2.04.01,4.09,0,6.13-.02,45.37.04,90.75.06,136.12.04,2.4-.07,4.84.44,7.19-.57,7.76-.29,15.51-.12,23.27-.66h0Z"/>
    <path class="cls-22" d="M125.7,73.63c2.13-.39,4.27-.41,6.41-.32-.01,1.89-.03,3.79-.04,5.67-2.13.15-4.26.27-6.38.15,0-1.82,0-3.66,0-5.5Z"/>
    <path class="cls-30" d="M139.77,73.41c2.11-.07,4.23-.09,6.34-.05.02,1.87.04,3.75.05,5.64-2.11.21-4.21.21-6.31.05-.03-1.87-.05-3.76-.08-5.64h0Z"/>
    <path class="cls-30" d="M154.69,73.46l6.12-.22c0,1.94,0,3.87,0,5.81-2.04.17-4.08.2-6.11-.01-.06-1.86-.06-3.72-.01-5.57h0Z"/>
    <path class="cls-22" d="M168.59,73.19c2.18.1,4.37.09,6.56.14-.02,1.87-.05,3.76-.09,5.64-2.19.15-4.38.19-6.56.15.03-1.97.06-3.95.1-5.92h0Z"/>
    <path class="cls-30" d="M182.7,73.43c2.03-.14,4.06-.15,6.1-.06-.02,1.92-.04,3.84-.05,5.75-1.94.09-3.87,0-5.81-.2-.11-1.82-.19-3.66-.24-5.49h0Z"/>
    <path class="cls-22" d="M196.72,73.23c2.05.11,4.1.1,6.16-.01,0,1.96-.02,3.92-.04,5.89-2.06.07-4.12.09-6.17.05,0-1.97.02-3.95.05-5.92Z"/>
    <path class="cls-19" d="M225.09,73.31c2.02.02,4.05-.02,6.07-.17.04,2.01.07,4.02.1,6.04-2.09.01-4.18-.01-6.27-.07.02-1.94.05-3.86.1-5.79h0Z"/>
    <path class="cls-30" d="M239.2,73.19c1.95.09,3.91.11,5.86.07-.01,1.89-.02,3.77-.03,5.67-1.98.2-3.95.27-5.93.24.01-2,.04-4,.1-5.99Z"/>
    <path class="cls-22" d="M252.8,73.32c2.16-.02,4.31-.02,6.47-.04.02,1.94.04,3.87.05,5.81-2.13.1-4.26.1-6.39-.05l-.13-5.72h0Z"/>
    <path class="cls-22" d="M267.55,73.24c1.91.04,3.83.11,5.74.25.01,1.82.04,3.66.07,5.5-1.94.21-3.89.21-5.82.04,0-1.92,0-3.86.01-5.79h0Z"/>
    <path class="cls-28" d="M281.89,78.97c.17-1.71-.81-5.47.93-5.6,1.61-.21,3.23-.06,4.85-.09,0,1.91.01,3.81.03,5.72-1.94.17-3.88.21-5.81-.04h0Z"/>
    <path class="cls-27" d="M80.55,76.17l4.06.12c.19,3.76.24,7.55.14,11.32l1.96.16c-.4-1.85-1.34-3.54-1.21-5.62.42-1.47,1.05-2.72,1.62-4.02,1.28.16,2.58.4,3.73,1.44.45,2.79.24,5.61-.5,8.22,2.74-.04,5.49-.04,8.22-.02-.41-2.55-1.12-5.39-.27-7.92,1.15-2.49,3.76-2.04,4.57.84,1.12,2.17-.03,4.81-.42,7.06,3.3-.01,6.6.04,9.9-.05-.05-.86-.16-2.61-.22-3.49.37.67,1.13,2.02,1.5,2.7l2.82-.36c0,.31-.01.95-.02,1.26,5.34-.09,10.67-.01,16.02-.02,2.63.06,5.34-.54,7.9.8-.06,1.1-.17,3.29-.23,4.37l-.33.1-.42.09c-.04-.9-.13-2.7-.16-3.6-1.97-.05-3.94-.02-5.91.07-.09.9-.26,2.7-.34,3.59-2.56-.44-5.14-.25-7.69.09l-.21-3.8c-14.67-.22-29.36.42-44.02-.27.7-1.85,2.1-1.56,3.22-1.94.01-3.46-.02-6.91-.09-10.36l-3.13.15c-.04,3.5-.07,7-.22,10.48-.57-3.72-.39-7.59-.27-11.38h0Z"/>
    <path class="cls-32" d="M15.28,76.9l.95,2.21c12.45-.07,24.9,0,37.36-.04,6.94-.76,13.9-.36,20.84-.37-.07.59-.22,1.79-.28,2.37-19.35.59-38.73.05-58.08.27l-.29-.15-.77-.4c.07-.97.21-2.92.28-3.9Z"/>
    <path class="cls-13" d="M319.23,79.57c.94-1.32,2.23-.49,3.33-.46.83,2.39,1.73,5.3.06,7.35.08-1.16.23-3.49.31-4.64-.91-1.76-2.17-2.24-3.5-2.05-.31,2.21-.47,4.45-.54,6.71-.85-2.07-.92-5.24.34-6.91h0Z"/>
    <path class="cls-57" d="M330.82,86.34c-2.46-4.25,1.38-10.11,4.03-6.79l.3,2.69c-1.01-2.69-3.42-3.7-4.33-.26v4.36Z"/>
    <path class="cls-30" d="M345.07,80.72c.57-.57,1.15-1.14,1.74-1.7.63.5,1.25,1,1.89,1.5.22,2.16.2,4.36.06,6.56-1.3-.59-3.42.57-3.87-2.35.04-1,.13-3,.18-4.01h0Z"/>
    <path class="cls-68" d="M357.97,83.32c.39-2.99,2.29-6.49,4.18-4.27,2.02,1.6,1.85,5.69.97,8.55,2.98.02,5.97.39,8.91-.56.87-.15,1.75-.16,2.63-.09,2.64.99,5.37.87,8.05.6l.39-.67,2.78-.2c.36-.62,1.09-1.89,1.44-2.51-.08.84-.25,2.52-.33,3.37,2.29.11,4.58.12,6.88.1-.46-2.19-1.62-4.96-.2-6.89,1.08-3.22,4.22-2.96,4.98.57.71,1.99-.1,4.16-.35,6.16,2.37-.12,4.96,1.11,7.17-.87,1.18.06,2.36.24,3.54.54,2.51.7,5.05.55,7.58.57-.22-2.09-1-4.35-.32-6.41.63-2.81,3.37-3.96,4.18-.77-.98-.36-1.95-.54-2.94-.5-.25.85-.76,2.57-1.01,3.42.34,1.11.68,2.22,1.04,3.34.51.09,1.56.26,2.07.36,2.67.6,5.37.71,8.05.51.05-.36.15-1.09.19-1.45,1.13.25,2.32.96,3.45.34,1.11-1.46.69-3.79.65-5.8.25.25.74.76.99,1.01-.13,1.99-.4,3.94-.68,5.89,2.1-.01,4.21-.02,6.31-.05-.08-2.5-.14-5.01-.07-7.51.34-.15,1.02-.47,1.35-.62-.45,1.76-.89,3.55-1.3,5.35.37.47,1.12,1.45,1.5,1.94.77-.01,1.53-.01,2.31,0,2.71,1.06,5.58,1.5,8.29.17,1.49-.39,4.21.47,3.91-3.49-.07-.67-.23-2.01-.31-2.69l1.03,1.85c-.2,1.61-.4,3.22-.59,4.84l2.91.3.87,1.55c-6.44.76-12.9.16-19.34.36-45.36.01-90.72-.02-136.08.01-.06.89-.19,2.66-.25,3.55-2.58-.32-5.16-.4-7.73-.05l-.03-3.52c-2.1,0-4.19.01-6.28.04-.06.9-.19,2.7-.25,3.6-2.54-.4-5.08-.32-7.61.02l-.18-3.6c-2.31.04-4.62-.02-6.92-.35-2.25-.34-4.5-.26-6.74-.2-.02.87-.07,2.62-.08,3.5,2.31-.04,4.63-.04,6.95-.01v.57c-2.4-.3-4.82-.24-7.22.06-.03-.9-.1-2.7-.13-3.6-2.03-.01-4.06.01-6.1.06-.07.89-.22,2.64-.28,3.51-2.48-.29-4.96-.19-7.44-.54,2.28-.31,4.57-.21,6.86-.1-.04-.86-.13-2.6-.18-3.47-2.25.1-4.5.07-6.73-.25,6.19-2.37,12.65-.72,18.96-1.09,3.33.17,6.75-1.02,10,.67l-.36,4.24c2.34-.05,4.67-.07,7.02-.11l-.3-4.1c1.21-.59,2.44-1.04,3.72-.92,7.93.21,15.86-.06,23.79.11,1.42.07,2.84-.29,4.24-.75.71-.09,1.41-.15,2.13-.19,3.36,1.46,6.96,1.31,10.34.1.74.01,1.48.09,2.23.22,3.36,1.01,6.77.44,10.16.52-.27-1.94-.48-3.89-.51-5.87.24-.25.71-.75.95-1.01-.04,1.01-.13,3.01-.18,4.01.45,2.92,2.57,1.76,3.87,2.35,3.34,1.02,6.75.45,10.12.51-.31-1.42-.62-2.85-.92-4.27h0Z"/>
    <path class="cls-38" d="M372.15,79.44c.8-.11,1.61-.22,2.43-.32.48,1.64,1.12,3.12,1.79,4.57l-.74.2-.98,3.05c-.88-.07-1.76-.06-2.63.09-.26-.91-.79-2.72-1.05-3.64.39-1.31.78-2.62,1.18-3.95Z"/>
    <path class="cls-51" d="M405.44,86.6c-.75-3.29-.15-6.31,1.77-7.72,2.27.91,3.32,5.1,1.76,8.26-1.18-.3-2.36-.47-3.54-.54Z"/>
    <path class="cls-22" d="M428.32,80.33l1.84-1.21,1.76,1.64c.04,2.01.46,4.34-.65,5.8-1.13.62-2.32-.09-3.45-.34-.3-2.05-.07-4.02.5-5.89h0Z"/>
    <path class="cls-22" d="M88.54,87.81c-2.54-1.59-2.89-7.72.01-8.91,2.87,1.27,2.17,7.04-.01,8.91Z"/>
    <path class="cls-17" d="M98.46,85.24c-.37-2.39.09-6.11,2.01-5.46,1.85-.6,2.28,2.81,2.05,5.2-.68.87-1.36,1.76-2.04,2.66-.68-.81-1.35-1.61-2.02-2.4h0Z"/>
    <path class="cls-38" d="M112.79,80.37l1.85-1.4,1.91,1.56c.16,2,.08,4.01-.09,6.01l-2.82.36c-.37-.67-1.13-2.02-1.5-2.7l-.07-1.12c.19-.67.54-2.04.73-2.71Z"/>
    <path class="cls-30" d="M319.43,79.77c1.32-.19,2.59.29,3.5,2.05-.07,1.15-.22,3.47-.31,4.64l-.71.3c-.71.04-1.42.1-2.13.19l-.89-.46c.07-2.26.23-4.5.54-6.71h0Z"/>
    <path class="cls-22" d="M330.82,81.98c.91-3.44,3.32-2.42,4.33.26-.1,1.65-.32,3.26-.68,4.84-.74-.14-1.49-.21-2.23-.22-.36-.14-1.06-.39-1.42-.51v-4.36Z"/>
    <path class="cls-30" d="M359.54,86.88c-1.53-2.74-.49-8.4,2.05-6.87,1.87.35,1.31,3.94,1.38,6.11-1.13.46-2.28.65-3.43.76Z"/>
    <path class="cls-30" d="M382.79,80.54c.49-.4,1.47-1.19,1.96-1.57l1.73,1.44c.23.69.71,2.05.94,2.74l-.13,1.01c-.36.62-1.08,1.89-1.44,2.51l-2.78.2c-.3-2.09-.43-4.2-.28-6.32h0Z"/>
    <path class="cls-9" d="M394.24,80.35c1.3-.5,3.22-1.34,3.8,1.55-.06,1.17-.16,3.51-.22,4.67-1.21-.26-3.5,1.3-3.82-1.72.06-1.12.18-3.37.23-4.5Z"/>
    <path class="cls-22" d="M439.83,79.47l1.62-.35c1.65,1.01,2.18,3.51,1.92,6.27l-1.02,1.36c-.78-.01-1.55-.01-2.31,0-.38-.49-1.12-1.46-1.5-1.94.41-1.8.84-3.59,1.3-5.35Z"/>
    <path class="cls-30" d="M450.64,86.93c-1.37-3.42-.33-7.12,1.91-8.13l1.7,1.96c.07.67.23,2.01.31,2.69.3,3.96-2.42,3.1-3.91,3.49Z"/>
    <path class="cls-1" d="M417.48,80.03c.99-.04,1.96.14,2.94.5.41.95.82,1.91,1.21,2.89-.56,1.44-1.24,2.71-2.05,3.74-.51-.1-1.56-.27-2.07-.36-.36-1.11-.7-2.22-1.04-3.34.25-.85.76-2.57,1.01-3.42h0Z"/>
    <path class="cls-8" d="M489.23,84.86c2.2.17,4.39.16,6.59-.01-.07,2.21-1.03,3.75-1.85,5.29-1.09-.09-2.19-.04-3.27.11-.01-.39-.04-1.15-.05-1.54,1.14-.3,3.59,1.84,3.43-1.72-.89-2.32-3.05.4-4.41.4-.09,1.55-.51,2.26-1.25,2.12-.35-1.7.49-3.15.81-4.65Z"/>
    <path class="cls-67" d="M146.75,88.64c5.4-1.07,10.85-.51,16.27-.74,1.38.07,2.87-.32,4.09,1.04-1.88.25-3.77.22-5.66.19-.04,1.02-.13,3.06-.19,4.09-2.5-.35-5.02-.19-7.52.09-.03-1.05-.08-3.15-.11-4.2-2.14.01-4.28.09-6.42.26-.04.96-.1,2.9-.13,3.86l-.6-.09c.08-1.5.17-3,.27-4.5h0Z"/>
    <path class="cls-65" d="M167.76,93.34c.26-1.69-.72-5.74,1.11-5.3,6.23.07,12.47-.16,18.7.12,3.71.95,7.46.49,11.18-.09,13.16-.01,26.32-.22,39.47.04l.56.75c.17.4.52,1.19.69,1.57,1.73.36,3.48.05,5.21.21-1.73.77-3.64.05-5.43.14l-.06,2.61h-.81c.01-1.05.04-3.15.06-4.21-2.27-.02-4.54-.02-6.81-.02.01,1.04.05,3.1.07,4.14-2.52-.2-5.03-.2-7.54,0,0-1.04-.01-3.11-.02-4.14-2.17.01-4.32-.01-6.49-.06l-.06,4.2c-2.52-.2-5.05-.15-7.58.02,0-1.05-.01-3.14-.02-4.19-2.11.05-4.23.02-6.34-.07v4.22c-2.49-.19-4.99-.15-7.49.05.01-1.05.03-3.14.04-4.19-2.16.15-4.32.2-6.48.12-.04,1.01-.14,3.02-.19,4.04-2.52-.21-5.03-.19-7.55.02.04-1.1.1-3.31.14-4.41-2.32.07-4.64.07-6.97-.01.06,1.11.16,3.34.22,4.44-2.54-.16-5.08-.24-7.62-.01h0Z"/>
    <path class="cls-52" d="M281.66,88.48c2.1.57,4.26.61,6.36.02l.3,4.1c-2.34.04-4.68.06-7.02.11,0,0,.36-4.24.36-4.24Z"/>
    <path class="cls-35" d="M125.97,89.18c2.08-.16,4.15-.02,6.24-.15.04.87.13,2.62.16,3.51-2.23-.02-4.44.02-6.67.16.07-.89.2-2.65.27-3.52Z"/>
    <path class="cls-73" d="M133.3,89.61c1.96-.1,3.94-.12,5.91-.07.04.9.12,2.7.16,3.6-2.13.49-4.29.31-6.42.06.08-.89.25-2.69.34-3.59h0Z"/>
    <path class="cls-5" d="M140.36,88.58c2,.61,4.05.31,6.07.32,0,.95-.03,2.86-.04,3.82-2.08-.06-4.19-.4-6.26.22.06-1.09.17-3.27.23-4.37h0Z"/>
    <path class="cls-4" d="M147.21,89.36c2.14-.17,4.27-.25,6.42-.26.03,1.05.08,3.15.11,4.2-2.22.17-4.44.24-6.66-.07.04-.96.1-2.9.13-3.86h0Z"/>
    <path class="cls-11" d="M153.97,92.52c.16-.84.48-2.5.64-3.34,1.87.1,3.74.11,5.62.1.13.71.41,2.15.55,2.87-2.26.51-4.54.51-6.81.36h0Z"/>
    <path class="cls-43" d="M168.08,92.36c-.25-3.4,1.84-2.86,3.16-2.9,1.56.3,4.27-1.27,3.8,3.02-2.32.17-4.64.2-6.95-.12h0Z"/>
    <path class="cls-73" d="M175.15,88.91c2.32.09,4.64.09,6.97.01-.04,1.1-.1,3.31-.14,4.41-2.2.12-4.41.12-6.6.01-.06-1.1-.16-3.32-.22-4.44Z"/>
    <path class="cls-35" d="M182.97,89.63c1.88.51,6.24-2.26,6.19,2.6-2.17.72-4.38.2-6.56.19.1-.7.28-2.09.37-2.79Z"/>
    <path class="cls-4" d="M189.71,89.28c2.16.07,4.32.02,6.48-.12,0,1.05-.02,3.14-.04,4.19-2.21.12-4.42.11-6.63-.02.04-1.01.14-3.02.19-4.04Z"/>
    <path class="cls-48" d="M196.37,92.32c.19-4.62,3.55-2.35,5.34-2.85,1.02-.72,2.2,2.37.83,2.99-2.05.31-4.12.14-6.18-.14Z"/>
    <path class="cls-4" d="M203.64,89.06c2.11.1,4.23.12,6.34.07,0,1.05.01,3.14.02,4.19-2.12.12-4.24.11-6.36-.04v-4.22Z"/>
    <path class="cls-60" d="M210.78,89.73c2-.36,4.03-.31,6.04-.06.07.7.24,2.09.32,2.79-2.22.11-4.44.16-6.65.09l.3-2.81h0Z"/>
    <path class="cls-73" d="M217.64,89.1c2.17.05,4.32.07,6.49.06,0,1.02.01,3.1.02,4.14-2.19.15-4.38.16-6.57,0l.06-4.2Z"/>
    <path class="cls-35" d="M224.62,92.42c-.01-5.09,4.29-2.26,6.21-2.84.1.72.32,2.16.42,2.87-2.22.14-4.43.12-6.64-.04Z"/>
    <path class="cls-21" d="M231.63,89.16c2.27,0,4.54,0,6.81.02-.01,1.06-.04,3.16-.06,4.22-2.23.02-4.46.04-6.68-.11-.01-1.04-.05-3.1-.07-4.14Z"/>
    <path class="cls-4" d="M245.72,89.36c2.33-.14,4.67-.17,7-.07,0,1.04,0,3.11,0,4.15-2.31-.04-4.63-.04-6.94,0,0-1.02-.03-3.06-.04-4.07Z"/>
    <path class="cls-4" d="M260.47,89.74c2.03-.05,4.06-.07,6.1-.06.03.9.1,2.7.13,3.6-2.17.21-4.34.2-6.51-.02.07-.87.22-2.62.28-3.51h0Z"/>
    <path class="cls-36" d="M267.04,89.15c2.24-.06,4.5-.14,6.74.2.03.82.09,2.46.13,3.29-2.32-.02-4.64-.02-6.95.01.01-.87.06-2.62.08-3.5Z"/>
    <path class="cls-4" d="M273.79,89.35c2.3.32,4.61.39,6.92.35l.18,3.6c-2.32.21-4.64.16-6.96-.09v-.57c-.05-.82-.11-2.46-.14-3.29h0Z"/>
    <path class="cls-4" d="M288.75,89.68c2.09-.02,4.18-.04,6.28-.04,0,.89.02,2.65.03,3.52-2.18.3-4.38.35-6.56.11.07-.9.19-2.7.25-3.6Z"/>
    <path class="cls-60" d="M295.8,88.93c2.04.12,4.09.14,6.14.05l.09,3.6c-2.09-.07-4.18-.1-6.27-.02.01-.91.03-2.72.04-3.62h0Z"/>
  </g>
</svg>