<?xml version="1.0" encoding="UTF-8"?>
<svg id="Layer_2" data-name="Layer 2" xmlns="http://www.w3.org/2000/svg" xmlns:xlink="http://www.w3.org/1999/xlink" viewBox="0 0 50.51 96.34">
  <defs>
    <style>
      .cls-1 {
        fill: #000;
      }

      .cls-1, .cls-2, .cls-3, .cls-4 {
        stroke-width: 0px;
      }

      .cls-2 {
        fill: #565657;
      }

      .cls-5 {
        isolation: isolate;
      }

      .cls-3 {
        fill: #4c4d4d;
      }

      .cls-4 {
        fill: #5e5e5e;
      }
    </style>
  </defs>
  <g id="Layer_1-2" data-name="Layer 1">
    <path class="cls-2" d="M10.33,28.09l7.03,16.29-5.2-17.25c-.63.36-1.29.63-1.92.99l.1-.02Z"/>
    <path class="cls-4" d="M17.45,24.14l-.62.19c-.14.49-.32.81-.63,1.09-.21.24-.78.6-1.52,1.01l6.13,16.39-3.43-18.57.06-.11Z"/>
    <path class="cls-3" d="M22.43,38.87l-3.15-15.15-1.11.46,4.26,14.69Z"/>
    <image class="cls-5" width="88" height="76" transform="translate(3.3 48.47) scale(.54 .63)" xlink:href="../../../../Downloads/AdobeStock_578275109-1.png"/>
    <path class="cls-1" d="M10.04,27.7c.57,1.13,1.06,2.37,1.56,2.29,1.41,0,7.03-2.37,7.94-3.01.27-.24.59-.8.7-1.42.16-.93-.08-1.91-.6-2.64-.63-.82-1.06-1.66-1.39-2.52h0c-.06-.4-.32-.76-.38-1.16-2.44,2.59-7.53,3.76-7.72,3.79-.3.04-.52-.12-.57-.42s.12-.52.42-.57c0,0,6.83-1.63,8.08-4.75,1.39-3.55,2.26-9.84-.1-12.12-1.05-.95-2.13-1.4-2.88-.98-.85.43-1.28,1.61-1.15,3.11.16,3.11,1.44,4.23,1.44,4.23.23.17.27.46.1.69s-.46.27-.69.1c0,0-1.52-1.39-1.76-4.99-.08-1.91.5-3.41,1.73-4,.2-.03.48-.17.68-.2l.4-.06c-.06-.4-.06-1.1-.45-1.65-.51-.73-1.3-1.22-2.53-1.34-2.38-.35-6.88.63-9.96,3.01C1.73,3.97.24,5.5.04,7.56c-.53,5.24,4.32,13.31,6.97,15.44,1.49,1.19,2.4,3.18,3.13,4.69h-.1Z"/>
  </g>
</svg>