<?xml version="1.0" encoding="UTF-8"?>
<svg id="Layer_2" data-name="Layer 2" xmlns="http://www.w3.org/2000/svg" viewBox="0 0 295.18 400.66">
  <defs>
    <style>
      .cls-1 {
        fill: #000;
        stroke-width: 0px;
      }
    </style>
  </defs>
  <g id="Layer_1-2" data-name="Layer 1">
    <path class="cls-1" d="M71.34,133.81c-15.85-.05-27.26,1.68-27.26,1.68-1.59,7.16-10.17,63.22-10.17,63.22-17.5,12.73-29.6,96.63-29.6,96.63-8.44,7.79-1.9,24.26-1.9,24.26,0,0-4.46,7.01-.4,26.78,7.45,36.33,24.58,49.16,75.48,53.93s72.85-40.93,66.99-40.72c-11.91.42-20.01-12.79-20.64-22.61,15.22-26.44,11.71-48,11.71-48,3.98,2.39,4.5,26.41-4.24,41.53s4.31,25.69,12.18,24.48c9.2-1.43,20.69-25.34,25.46-33.29s-1.17-38.71-1.17-38.71c0,0,1.87-25.45-10.76-36.15-11.19-9.48-26.27-37.39-26.27-37.39l16.72-53.27c-20.31-18.42-52.97-22.28-76.14-22.35h0ZM64.5,138.83c21.46-.3,58.7,1.9,77.45,18.84l-17.16,47.96s-45.31-25.98-85.8-9.26l9.26-56.75s6.49-.67,16.24-.8h0ZM36.36,206.07c-30.93,90.65-16.25,91.94-20.67,91.94-11.88,8.36-1.76,19.35-1.76,19.35-11,25.08,10.1,62.93,10.1,62.93-26.4-21.56-15.4-61.57-15.4-61.57-7.92-8.8-.44-21.15-.44-21.15,3.08-40.04,28.17-91.5,28.17-91.5h0Z"/>
    <path class="cls-1" d="M164.57,6.58c15.11-4.81,26.5-6.58,26.5-6.58,3.67,6.35,28.69,57.25,28.69,57.25,20.51,6.88,57.25,83.28,57.25,83.28,10.38,4.89,9.1,22.57,9.1,22.57,0,0,6.36,5.35,8.43,25.42,3.81,36.89-8.68,54.27-55.8,74.11s-81.78-17.16-76.13-18.72c11.49-3.17,15.24-18.2,12.89-27.76-22.45-20.65-25.58-42.27-25.58-42.27-3.08,3.47,3.64,26.55,16.52,38.33s3.6,25.81-4.27,27.01c-9.2,1.4-27.35-17.96-34.29-24.11s-10.51-37.27-10.51-37.27c0,0-9.43-23.72-.6-37.71,7.83-12.4,13.83-43.55,13.83-43.55l-31.95-45.79c13.84-23.67,43.83-37.16,65.91-44.19h0ZM172.6,9.31c-20.56,6.16-55.42,19.44-68.22,41.23l30.77,40.6s35.42-38.39,79.06-34.6l-25.87-51.35s-6.39,1.31-15.74,4.11h0ZM219.63,65c56.73,77.17,43.12,82.82,47.33,81.49,13.84,4.41,7.49,17.93,7.49,17.93,18.03,20.62,9.27,63.06,9.27,63.06,18.71-28.5-3.8-63.36-3.8-63.36,4.91-10.77-5.93-20.3-5.93-20.3-14.96-37.27-54.35-78.82-54.35-78.82h0Z"/>
  </g>
</svg>