<?xml version="1.0" encoding="UTF-8"?>
<svg id="Layer_2" data-name="Layer 2" xmlns="http://www.w3.org/2000/svg" viewBox="0 0 196.52 268.46">
  <defs>
    <style>
      .cls-1 {
        fill: #000;
        stroke-width: 0px;
      }
    </style>
  </defs>
  <g id="Layer_1-2" data-name="Layer 1">
    <path class="cls-1" d="M65.91,6.58C81.01,1.77,92.41,0,92.41,0c3.67,6.35,28.69,57.25,28.69,57.25,20.51,6.88,57.25,83.28,57.25,83.28,10.38,4.89,9.1,22.57,9.1,22.57,0,0,6.36,5.35,8.43,25.42,3.81,36.89-8.68,54.27-55.8,74.11s-81.78-17.16-76.13-18.72c11.49-3.17,15.24-18.2,12.89-27.76-22.45-20.65-25.58-42.27-25.58-42.27-3.08,3.47,3.64,26.55,16.52,38.33s3.6,25.81-4.27,27.01c-9.2,1.4-27.35-17.96-34.29-24.11s-10.51-37.27-10.51-37.27c0,0-9.43-23.72-.6-37.71,7.83-12.4,13.83-43.55,13.83-43.55L0,50.77C13.84,27.11,43.83,13.62,65.91,6.59h0ZM73.94,9.31C53.38,15.47,18.52,28.75,5.72,50.54l30.77,40.6s35.42-38.39,79.06-34.6L89.68,5.2s-6.39,1.31-15.74,4.11h0ZM120.97,65c56.73,77.17,43.12,82.82,47.33,81.49,13.84,4.41,7.49,17.93,7.49,17.93,18.03,20.62,9.27,63.06,9.27,63.06,18.71-28.5-3.8-63.36-3.8-63.36,4.91-10.77-5.93-20.3-5.93-20.3-14.96-37.27-54.35-78.82-54.35-78.82h0Z"/>
  </g>
</svg>