<?xml version="1.0" encoding="UTF-8"?>
<svg viewBox="0 0 123.55 123.54" xmlns="http://www.w3.org/2000/svg">
 <path d="m35.983 16.581c-7.6078-8e-6 -11.647 4.1717-13.51 9.0333l-9.8653 25.515c-3.9207 0.50274-10.896 5.1092-10.896 13.827v32.488h9.6276v10.38c-3.1e-5 12.778 18.106 12.627 18.106 0v-10.38h65.056v10.38c-3.1e-5 12.627 18.067 12.778 18.067 0v-10.38h9.6276v-32.488c-3.1e-5 -8.7182-6.9352-13.325-10.856-13.827l-9.905-25.515c-1.8632-4.8617-5.9026-9.0333-13.51-9.0333h-51.942zm-0.0792 9.3107h52.14c3.2603 0.030365 4.6548 2.0898 5.5864 4.9129l7.4485 20.087h-78.25l7.4485-20.087c0.93157-2.8231 2.3654-4.8825 5.626-4.9129zm-15.214 34.747c4.6134 0 8.3598 3.8824 8.3598 8.6371 0 4.755-3.7465 8.5975-8.3598 8.5975-4.613 0-8.3598-3.8425-8.3598-8.5975 1.5e-5 -4.7547 3.7468-8.6371 8.3598-8.6371zm82.568 0c4.6133 0 8.3598 3.8824 8.3598 8.6371 0 4.755-3.7465 8.5975-8.3598 8.5975-4.613 0-8.3598-3.8425-8.3598-8.5975-1.5e-5 -4.7547 3.7468-8.6371 8.3598-8.6371z" stroke="#fff"/>
</svg>
