<?xml version="1.0" encoding="UTF-8"?>
<svg id="Layer_2" data-name="Layer 2" xmlns="http://www.w3.org/2000/svg" viewBox="0 0 150.98 251.74">
  <defs>
    <style>
      .cls-1 {
        fill: #000;
        stroke-width: 0px;
      }
    </style>
  </defs>
  <g id="Layer_1-2" data-name="Layer 1">
    <path class="cls-1" d="M.01,123.76c.15,11.9,1.63,25.79,5.05,42.26,2.94,14.15,7.86,26.4,13.57,36.8,19.69,4.77,45.65,8.37,54.54,9.36.37.04.82.02,1.24.04v-21.77c-10.12-.3-17.25-6.39-17.25-6.39-1.1-2.26-1.57-3.85-1.6-5.01-.12-5.01,7.94-1.15,7.94-1.15,1.44,1.31,2.93,2.23,4.43,2.88v-8.78c-5.86-1.87-9.62-5.01-9.62-5.01-1.1-2.26-1.57-3.9-1.6-5.05-.12-5.01,7.94-1.15,7.94-1.15,1.07.97,2.17,1.71,3.28,2.31v-7.49s-7.01-.04-7.01-.04c-3.26-1.53-4.52-2.92-4.66-4.17-.31-2.74,4.66-4.61,4.66-4.61l7.01.18v-6.83s-7.36-.04-7.36-.04c-3.26-1.53-4.47-2.92-4.61-4.17-.31-2.74,4.61-4.61,4.61-4.61l7.36.18v-8.91s-6.52-.04-6.52-.04c-3.26-1.53-4.47-2.97-4.61-4.21-.31-2.74,4.61-4.61,4.61-4.61l6.52.13v-6.61s-6.52-.04-6.52-.04c-3.26-1.53-4.47-2.97-4.61-4.21-.31-2.74,4.61-4.57,4.61-4.57l6.52.13v-9.18c-1.44.65-2.87,1.54-4.26,2.79,0,0-7.47,3.56-7.94-.62-.13-1.17.31-2.95,1.6-5.59,0,0,4.16-3.51,10.6-5.32v-7.41c-1.67.66-3.32,1.65-4.92,3.1,0,0-8.06,3.86-7.94-1.15.03-1.16.5-2.75,1.6-5.01,0,0,7.35-6.32,17.74-6.43v-22.92c-.18.01-.4.03-.58.04-9,.85-35.45,4.04-55.29,8.56-.63,1.41-1.22,2.84-1.73,4.26C10.94,70.15-.44,88.05.01,123.76h0ZM30.43,30.37c7.77-1.99,23.14-5.04,43.99-4.66V0c-.53.03-1.03.11-1.55.18-8.38,1.07-16.33,5.53-22.92,10.82-6.93,5.56-13.74,12.2-19.51,19.38h0ZM31.76,222.46c13.88,17.33,27.4,25.67,27.4,25.67,4.33,3,10.21,3.71,15.25,3.59v-24.52c-19.48.13-34.27-2.62-42.66-4.74h0ZM76.55,251.6c3.65-.26,6.61-.86,7.76-1.24,2.86-.95,21.3-13.73,31.17-25.45.57-.68,1.26-1.55,2-2.48-15.14,3.24-28.88,4.58-40.93,4.79v24.39h0ZM76.55,212.26c12.75-.18,39.87-6.23,54.05-9.62,13.51-24.05,28-63.7,15.79-110.81-4.26-16.43-8.94-29.52-13.97-40.17-13.74-3.56-42.93-10.78-55.87-10.95v23.06c4.86.35,10.26,2.16,15.83,6.52,0,0,3.4,10.74-6.21,5.85,0,0-2.29-1.57-5.68-2.75v6.7c3.95.81,8.18,2.64,12.5,6.03,0,0,3.45,10.74-6.16,5.85,0,0-2.59-1.83-6.34-3.02v9.89s8.96.22,8.96.22c10.91,5.38-.49,8.29-.49,8.29l-8.47-.04v6.83s8.96.22,8.96.22c10.91,5.38-.49,8.29-.49,8.29l-8.47-.04v9.18s8.11.18,8.11.18c10.91,5.38-.49,8.29-.49,8.29l-7.63-.04v7.01s8.47.22,8.47.22c10.91,5.38-.49,8.29-.49,8.29l-7.98-.04v8.56c4.28-1.15,7.32-3.28,7.32-3.28,9.61-4.89,6.16,5.85,6.16,5.85-4.68,3.67-9.26,5.5-13.48,6.21v7.94c3.66-1.19,6.16-2.93,6.16-2.93,9.61-4.89,6.21,5.9,6.21,5.9-5.75,4.5-11.34,6.21-16.32,6.47v21.86s0,0,0,0ZM76.55,25.76c12.91.38,27.84,2.11,44.3,6.12-10.56-14.41-22.25-22.12-34.63-29.13C83.33,1.12,79.92.16,76.55,0v25.76s0,0,0,0Z"/>
  </g>
</svg>