<?xml version="1.0" encoding="UTF-8"?>
<svg id="Layer_2" data-name="Layer 2" xmlns="http://www.w3.org/2000/svg" viewBox="0 0 127.17 380.56">
  <defs>
    <style>
      .cls-1 {
        fill: #000;
        stroke-width: 0px;
      }
    </style>
  </defs>
  <g id="Layer_1-2" data-name="Layer 1">
    <path class="cls-1" d="M62.93,0h-.27c-2.27,1.58-3.17,4.78-2.29,7.37.96.45,1.97.8,3.01,1.04.52-.75.91-1.58,1.31-2.4.47.14.89.43,1.34.63-.66,2.06-1.26,4.15-1.87,6.23-.16-.04-.47-.12-.63-.16-.28.02-.57.04-.85.05.2-.94.33-1.9.34-2.86-1.02-.25-2.04-.52-3.05-.78-2.32,1.56-3.26,4.81-2.35,7.41.96.45,1.96.81,3,1.03.51-.78.96-1.6,1.32-2.47.43.26.88.5,1.35.7-.6,2.05-1.2,4.11-1.82,6.15-.18-.05-.54-.15-.73-.21-.26.04-.51.07-.77.1.17-.96.32-1.92.35-2.9-.93-.2-1.83-.51-2.76-.69-.54-.14-.91.39-1.26.7-1.45,1.59-2.09,3.94-1.59,6.04.07.26.13.56.41.66.88.47,1.85.74,2.82.94.48-.8.94-1.62,1.31-2.48.21.15.43.29.64.43.25.1.49.2.74.29-.62,2.08-1.24,4.17-1.85,6.26-.5-.1-1-.14-1.51-.1.18-.95.32-1.9.31-2.87-1.01-.2-1.99-.58-3.02-.71-.84.37-1.41,1.17-1.85,1.94-.87,1.65-1.17,3.65-.52,5.42.96.45,1.96.8,3,1.03.56-.73.84-1.66,1.39-2.37.46.15.86.43,1.31.61-.58,2.12-1.26,4.21-1.83,6.34-.52-.08-1.05-.09-1.57-.09.2-.93.32-1.88.34-2.84-1.01-.28-2.03-.53-3.05-.81-1.83,1.19-2.75,3.45-2.71,5.58.06.62.04,1.32.43,1.83.88.51,1.87.83,2.87,1,.64-.68.97-1.58,1.36-2.41.46.26.94.5,1.43.7-.58,2.01-1.18,4.02-1.79,6.02-.53-.11-1.06-.17-1.6-.14.19-.93.3-1.87.37-2.82-1-.25-1.98-.59-3-.76-.65.17-1.08.77-1.49,1.26-1.08,1.59-1.63,3.64-1.12,5.53.07.24.12.52.37.63.87.49,1.84.73,2.8.96.5-.79.96-1.6,1.32-2.46.47.29.96.54,1.49.73-.54,1.76-1.02,3.54-1.59,5.28-.42,1.34-.6,2.98.36,4.14,1.24,1.49,3.2,2.31,4.13,4.08.52.92.49,2.01.46,3.03-.08,5.46-.05,10.93-.17,16.39-.13,6.14-.08,12.27-.22,18.41-.1,4.4-.08,8.8-.12,13.2-.18,5.99-.14,11.99-.22,17.99-.14,5.2-.14,10.4-.17,15.61-.14,5.53-.19,11.07-.2,16.61-.14,5.93-.19,11.87-.21,17.8-.2,6.66-.13,13.33-.26,19.99-.15,5.66-.06,11.33-.2,16.99-.07,1.22.19,2.57-.5,3.66-.6,1.14-1.75,2.02-3.07,2.04-1.99.06-3.82-.88-5.56-1.73-3.75-1.97-7.66-3.63-11.71-4.86.21-.01.64-.04.86-.05-.06-.45-.45-.71-.78-.97h-.24c.04-.28.09-.57.13-.86.13.01.39.04.52.05.69-.45,1.38-.9,2.06-1.35-.26-.3-.58-.57-.98-.65-1.54-.41-3.11-.73-4.7-.95-.42-.09-.82.04-1.2.2.59.76.95,1.74,1.81,2.25-.04.25-.08.5-.12.74-.23.05-.47.09-.7.14-.12,0-.35,0-.47.01-.02.11-.05.33-.07.44.22.13.43.25.65.38-2.43-.19-4.92-.23-7.29.43-3.98,1.04-7.55,3.67-9.64,7.22-1.57,2.67-2.29,5.76-2.49,8.83-.3,5.01.63,10.01,1.96,14.83,1,3.46,2.19,6.87,3.62,10.17,1.8,3.92,3.09,8.1,3.5,12.4.5,4.7-.1,9.48-1.59,13.96-1.04,3.25-2.65,6.27-4.05,9.37-2.99,6.25-6.1,12.46-8.64,18.91-2.91,7.46-5.25,15.3-5.42,23.37-.16,6.32,1.22,12.73,4.3,18.28,2.95,5.39,7.3,9.91,12.2,13.59,2.17,1.58,4.64,2.7,7.15,3.6,4.5,1.59,9.21,2.49,13.92,3.14,6.76.92,13.57,1.27,20.39,1.4,1.29,0,2.59.08,3.88,0-.37.14-.79.26-.76.75,1.62-.12,3.25-.1,4.87-.01,0-.46-.37-.6-.72-.75,3.93.12,7.86-.01,11.79-.13,8.33-.36,16.74-.99,24.76-3.4,3.72-1.15,7.4-2.72,10.42-5.24,4.43-3.75,8.28-8.26,10.93-13.44,2.07-4.04,3.35-8.47,3.81-12.98.8-7.84-.68-15.72-3.03-23.17-2.57-8.06-6.1-15.77-9.88-23.32-1.2-2.25-1.94-4.71-2.83-7.1-1.4-4.06-2.58-8.28-2.58-12.61-.07-4.99,1.32-9.85,3.08-14.48,1.39-3.44,2.83-6.87,3.93-10.41,1.73-5.66,2.97-11.61,2.38-17.55-.37-4.01-1.8-8.05-4.67-10.97-1.26-1.36-3.14-2.17-5-1.91-2.09.29-4.08,1.52-5.13,3.37-1.46,2.33-2.18,5-3.03,7.59-1.09,3.24-2.63,6.35-4.75,9.03-.8.99-1.59,2.02-2.64,2.77-2.5,1.97-5.56,3.55-8.83,3.37-2.76-.12-5.28-1.76-6.79-4.03-1.25-1.9-2.11-4.11-2.26-6.39,0-4.87-.14-9.73-.21-14.6.02-2.93-.04-5.86-.09-8.79-.18-6-.05-12-.28-18,.03-3.23-.11-6.46-.04-9.69-.25-5.83-.14-11.67-.28-17.51-.15-5.33-.08-10.67-.22-16-.13-4.74-.04-9.48-.19-14.21-.13-4.6-.05-9.2-.18-13.8-.16-6.19-.08-12.39-.28-18.58-.06-4.8-.02-9.61-.19-14.41-.07-5-.03-10.01-.2-15.01-.03-3.2-.07-6.4-.06-9.6-.35-5.26.42-10.54,1.9-15.59.91-3.15,2.17-6.17,3.31-9.24,1.41-3.89,2.5-8,2.26-12.17-.12-2.63-.84-5.22-2.04-7.55-.46-.98-1.29-1.9-1.18-3.05.29-2.73,2.6-4.55,3.68-6.94,1.06-2.21,1.33-4.86.44-7.17-.92-2.48-2.74-4.71-5.21-5.75-1.96-.86-4.27-.93-6.25-.1-1.18.51-1.95,1.62-2.51,2.74-.29-.08-.59-.16-.88-.25-.25.04-.5.08-.75.12.18-.95.3-1.92.35-2.89-.96-.25-1.92-.51-2.88-.76h0Z"/>
  </g>
</svg>