<?xml version="1.0" encoding="UTF-8"?>
<svg id="Layer_2" data-name="Layer 2" xmlns="http://www.w3.org/2000/svg" viewBox="0 0 69.33 27.92">
  <defs>
    <style>
      .cls-1 {
        fill: #010101;
        stroke-width: 0px;
      }
    </style>
  </defs>
  <g id="Layer_1-2" data-name="Layer 1">
    <g id="layer1">
      <path class="cls-1" d="M36.19,21.42c.07,0,.14.04.22.11.16.15.16.24,0,.24-.07,0-.18.02-.25.03-.07.02-.25.04-.41.05l-.28.02v-.09c0-.09,0-.09.4-.26.05-.02.13-.06.18-.08.05-.02.1-.04.15-.04ZM34.39,22.35v.46c0,.41,0,.46-.05.49-.03.02-.19.04-.36.05-.17.01-.42.04-.56.07-.14.02-.35.04-.46.04-.11,0-.27.02-.35.03-.08.02-.33.05-.55.06-.23.02-.44.05-.47.06-.03.02-.18.03-.33.03s-.33.02-.41.04c-.08.02-.29.05-.48.06-.19.02-.42.04-.52.05l-.19.02v-.11c0-.06-.02-.13-.05-.15-.05-.04-.07-.26-.02-.26.02,0,.05-.04.08-.1.04-.08.07-.1.19-.1.07,0,.2-.02.28-.04.08-.02.26-.05.4-.08.14-.02.37-.07.51-.09.14-.03.35-.06.48-.08.12-.02.24-.04.27-.06.03-.01.12-.04.21-.05.09-.01.18-.04.19-.05,0-.02.07-.03.14-.03s.18-.02.25-.04c.32-.11.5-.15.85-.18.21-.02.39-.04.4-.05,0,0,.14-.02.28-.02h.27ZM21.96,24.49c.09,0,.1.01.1.06,0,.04.01.07.03.08s.02.06.01.12v.11s-.24.02-.24.02c-.07,0-.12.01-.15.01-.08,0-.1-.02-.18-.09-.07-.07-.11-.13-.11-.19,0-.1.03-.11.46-.12.03,0,.06,0,.08,0ZM37.42,22.1c.05,0,.08.02.1.07.03.07.03.09-.02.12-.06.04-.04.09.06.15.04.02.06.05.05.08,0,.03,0,.07.04.1.03.03.04.08.04.11,0,.04,0,.13.04.22.03.09.06.19.06.24s.04.22.08.39c.04.17.09.38.1.46,0,.08.03.2.05.27.02.09.02.13,0,.16-.02.02-.04.12-.04.22,0,.12-.02.19-.04.22-.07.06-.44.1-1.02.11-.39,0-.57.02-.65.06-.07.03-.27.05-.51.07-.22.01-.49.04-.61.05-.07,0-.12.01-.15.01-.05,0-.08,0-.1-.03-.06-.06-.12-1.23-.07-1.36.02-.05.02-.09,0-.09-.04,0-.04-.25,0-.32.03-.05.02-.09-.03-.2-.04-.08-.07-.19-.07-.24,0-.11.09-.62.11-.64.03-.04.34-.07.64-.07.18,0,.49-.02.7-.05.21-.03.53-.05.7-.05.18,0,.35-.02.4-.03.05-.02.1-.03.13-.03ZM26.25,24.04c.12,0,.13.01.12.07,0,.06-.04.08-.11.08-.09,0-.11.02-.11.09,0,.05.03.09.07.11.04.02.09.06.11.08.02.02.07.04.1.04.17,0,.26.2.12.26-.04.02-.09.06-.09.1-.02.09-.13.12-.54.16-.2.02-.44.05-.54.06-.1.02-.3.04-.45.05-.15.01-.33.03-.4.05-.07.02-.28.04-.46.06-.19.02-.42.04-.53.06-.07.01-.11.02-.15.02-.08,0-.15-.03-.36-.13-.05-.03-.12-.04-.15-.04-.04,0-.11-.05-.16-.1-.08-.09-.09-.12-.09-.31,0-.2,0-.21.11-.27.16-.1.27-.14.34-.14.04,0,.07.02.08.05.08.24.12.3.2.3.1,0,.15-.05.25-.23.04-.06.08-.14.11-.16.05-.05.61-.11,1.48-.15.32-.02.62-.04.67-.06.05-.02.19-.03.3-.03.03,0,.05,0,.07,0ZM34.17,23.66c.11,0,.12.01.12.08,0,.04.03.11.06.14.07.07.11.42.11,1.01,0,.32,0,.38-.04.38,0,0,0,0-.01,0,0,0-.01,0-.02,0-.03,0-.07.01-.09.03-.03.03-.28.04-.74.06-.68.03-1.21.06-1.78.13-.64.07-1.16.11-1.44.11-.13,0-.21,0-.23-.03-.06-.05-.24-.41-.3-.61-.03-.09-.05-.21-.05-.28s-.02-.18-.04-.25c-.02-.07-.03-.16-.02-.2.02-.08.04-.08.19-.09.09,0,.25-.02.34-.03.1-.02.34-.04.54-.06.2-.02.45-.04.56-.06.22-.04.72-.1,1.2-.14.19-.01.39-.04.46-.06.07-.02.22-.04.34-.04.11,0,.29-.02.4-.04.11-.03.27-.04.38-.05.02,0,.05,0,.06,0ZM29.14,24.23c.1,0,.14.01.15.05,0,.03.04.18.07.33.03.15.06.29.07.3.03.04.03.39,0,.42-.01.01-.02.08-.02.14,0,.18-.08.23-.41.26-.81.07-1.07.09-1.3.12-.14.02-.34.03-.46.03h-.2v-.49c0-.41,0-.5.05-.51.03-.01.05-.04.05-.06s-.02-.04-.05-.04c-.03,0-.05-.03-.05-.09,0-.16.18-.26.44-.28.12,0,.28-.03.36-.04.08-.02.32-.04.53-.05.21,0,.43-.03.48-.05.05-.02.17-.03.26-.03.01,0,.02,0,.04,0ZM26.58,25.19s.05.05.05.17c0,.1.01.18.03.18.02,0,.03.1.03.21v.22s-.26.03-.26.03c-.16.02-.32.02-.48.02-.61,0-1.22-.1-1.55-.28-.04-.03-.11-.04-.15-.04-.05,0-.07-.02-.07-.08,0-.11.19-.18.52-.18.14,0,.37-.02.51-.05.14-.03.32-.05.41-.05.19,0,.82-.09.89-.13.03-.02.06-.03.08-.03ZM19.94,26.08l.02.16c.01.09.01.18,0,.19,0,.02-.11.03-.22.03-.18,0-.21,0-.28-.09-.09-.09-.11-.25-.04-.27.02,0,.15-.02.28-.02h.24ZM34.44,25.65c.05,0,.06.06.06.22,0,.12-.03.26-.06.35-.05.13-.08.15-.22.2-.04.01-.12.03-.21.04h-.06s0,0,0,0h0c-.27.04-.65.08-.79.08-.03,0-.04,0-.05,0,0,0-.01,0-.03,0-.04,0-.12,0-.2.02-.2.04-.78.1-1.4.16-.19.02-.43.04-.54.06-.11.02-.32.04-.45.05-.13,0-.33.03-.43.05-.19.03-.88.1-1.18.11-.09,0-.28.02-.43.04-.61.07-.86.09-.99.09-.04,0-.08,0-.1,0-.11-.02-.12-.03-.12-.11,0-.05-.02-.11-.05-.14-.03-.03-.05-.11-.05-.26,0-.2,0-.21.07-.21.04,0,.19-.02.33-.03s.42-.04.62-.06c.2-.02.43-.05.5-.06.07-.02.22-.03.34-.04.11,0,.3-.01.42-.03.12-.02.41-.04.64-.06.23-.02.46-.05.51-.06.05-.02.2-.03.34-.04.13,0,.32-.02.42-.03.1-.02.38-.04.63-.06.25-.02.49-.04.54-.06.05-.02.22-.03.38-.03.16,0,.36-.02.44-.04s.33-.04.56-.06c.23-.01.45-.04.49-.06.04-.02.06-.02.08-.02ZM22.85,25.68s.02,0,.04,0c.03,0,.1.03.15.04.09.02.2.06.38.14.04.02.14.06.24.1.19.07.27.11.43.18.05.03.14.05.2.06.06.01.11.04.12.05,0,.02.05.03.1.03.05,0,.19.04.31.08.29.11.47.14.96.14.08,0,.17,0,.27,0h.65s0,.2,0,.2c0,.11-.02.22-.04.24-.02.02-.03.06-.03.11,0,.13-.22.24-.56.27-.42.04-.84.08-1.57.17-.41.04-.85.07-1.2.07-.25,0-.46-.01-.59-.04-.38-.07-.51-.11-.61-.19-.1-.07-.3-.17-.5-.24-.07-.02-.12-.05-.12-.07,0,0,0-.01-.02-.01,0,0-.02,0-.03,0,0,0-.01,0-.02,0-.03,0-.07-.01-.1-.03-.04-.03-.09-.05-.12-.05s-.06-.02-.06-.03c0-.02-.02-.03-.05-.03s-.1-.03-.17-.06c-.07-.04-.14-.06-.16-.06s-.09-.05-.16-.11c-.11-.09-.12-.12-.14-.28v-.18s.17-.11.17-.11c.2-.13.54-.2.93-.21.12,0,.3-.02.38-.04.09-.02.32-.04.51-.06.19-.02.35-.04.36-.05,0,0,.02,0,.03,0ZM61.04,0s0,0,0,0c-.02,0-.12.02-.21.03-.16.02-.28.05-.7.15-.07.02-.16.05-.19.06-.08.04-.32.12-.55.18-.11.03-.28.07-.37.1-.09.03-.26.07-.38.1-.12.03-.27.07-.34.09-.06.02-.2.06-.3.09-.11.03-.34.09-.51.13-.18.04-.49.12-.7.18-.21.05-.41.11-.45.12s-.21.06-.38.1c-.18.04-.33.08-.35.09-.02.01-.21.06-.43.11-.22.05-.44.11-.5.13-.05.03-.13.04-.17.04-.04,0-.18.04-.32.08-.13.04-.35.1-.48.13-.13.03-.27.07-.3.1-.04.02-.16.05-.27.06-.11.01-.21.04-.22.05s-.05.03-.09.03-.12.02-.18.04c-.06.02-.18.06-.26.08-.39.09-.55.13-.7.16-.09.02-.19.04-.22.06-.07.04-.24.08-.65.17-.17.04-.34.09-.4.11-.05.03-.15.05-.21.06-.07,0-.18.03-.24.04-.07,0-.17.04-.23.07-.06.03-.16.06-.22.07-.41.1-.51.12-.57.15-.04.02-.12.04-.18.04-.06,0-.11.01-.11.03,0,.03-.12.05-.61.15-.15.03-.33.08-.41.11-.08.03-.19.06-.26.06-.07,0-.15.02-.18.05-.04.03-.1.05-.14.05s-.12.02-.18.05c-.05.03-.12.05-.16.05-.04,0-.19.04-.35.08-.16.04-.32.09-.37.1-.04,0-.11.03-.14.04-.07.03-.64.18-.88.23-.08.02-.19.05-.26.07-.11.04-.51.15-.83.21-.08.02-.17.04-.19.06s-.11.04-.18.05c-.07,0-.14.03-.16.04-.02.01-.11.04-.2.05-.09.01-.18.03-.19.05,0,.01-.08.04-.17.05-.09.01-.17.03-.19.04-.03.02-.16.05-.52.13-.07.02-.16.04-.19.06-.03.02-.17.05-.31.09-.14.03-.31.07-.38.1-.07.03-.16.04-.2.04-.04,0-.12.02-.18.05-.06.03-.16.05-.2.05s-.13.02-.18.05c-.05.03-.13.05-.19.05-.05,0-.13.02-.18.04-.05.03-.2.07-.34.1-.14.03-.36.09-.49.13-.13.04-.31.09-.4.11-.26.05-.44.1-.51.13-.07.03-.27.08-.53.13-.09.02-.17.04-.19.05-.02.01-.13.04-.25.07-.42.09-.49.11-.53.13-.02.02-.12.04-.22.05-.1.01-.19.04-.2.05-.01.02-.07.03-.14.03s-.15.02-.18.05c-.03.03-.11.04-.17.05-.06,0-.18.02-.26.04-.18.06-.42.12-.59.14-.07.01-.16.04-.2.06-.04.02-.11.04-.16.04s-.17.02-.25.04c-.33.1-.49.14-.57.14-.04,0-.07-.01-.08-.03-.03-.03-.12-.05-.21-.05s-.18.02-.22.05c-.03.03-.12.05-.2.05s-.17.02-.2.04c-.04.02-.14.05-.23.06-.17.03-.38.07-.64.15-.1.03-.17.04-.21.04s-.06-.01-.06-.04c0-.07-.1-.14-.29-.19-.15-.04-.3-.05-.81-.05-.35,0-.72.02-.83.04-.11.02-.26.05-.34.06-.46.09-.94.28-1.07.44-.07.08-.16.12-.36.12-.04,0-.09,0-.14,0-.17,0-.32-.04-.36-.06-.04-.03-.19-.05-.35-.05-.18,0-.38.02-.47.06-.08.03-.16.07-.19.1-.03.03-.16.04-.31.04-.13,0-.27-.01-.39-.03-.1-.02-.44-.04-.78-.06-.77-.04-1.33-.09-1.53-.12-.09-.02-.31-.05-.49-.07-.19-.02-.52-.06-.75-.08-.23-.03-.56-.06-.73-.08-.17-.02-.33-.04-.34-.04-.01,0-.32-.04-.69-.08-.37-.04-.79-.08-.93-.1-.24-.03-.37-.04-1.26-.13-.2-.02-.45-.05-.56-.06-.11-.02-.37-.05-.58-.06-.22-.02-.41-.04-.43-.05-.02,0-.18-.03-.36-.04-.53-.04-1.58-.15-2.05-.21-.07,0-.28-.03-.48-.05-.35-.03-.77-.08-1.23-.13-.35-.04-1.03-.12-1.58-.17-.26-.03-.59-.06-.73-.08-.14-.02-.4-.05-.57-.06-.18-.02-.46-.06-.64-.08-.66-.09-1.06-.15-1.37-.18-.18-.02-.5-.05-.72-.08-.22-.03-.66-.06-.98-.08-.32-.02-.6-.04-.61-.04-.04-.03-.66-.08-1.05-.1-.19,0-.52-.04-.73-.06-.21-.03-.7-.08-1.1-.11-.4-.04-.85-.09-1.01-.11-.43-.07-.68-.1-.84-.1-.04,0-.07,0-.1,0h0l-.45-.05s-.04,0-.05,0C.1,5.07.03,5.13,0,5.25c0,.08.02.13.06.17h0s.03.04.12.05h0s0,0,.01,0l26.53,2.88v.06c0,.12.08.2.2.2.02,0,.04,0,.06,0,.02,0,.04,0,.06,0,.05,0,.08.02.12.07.04.04.06.06.08.06.02,0,.03-.01.05-.03.03-.03.07-.04.17-.04.06,0,.15,0,.27.01.49.03.66.07.77.2.04.05.08.11.08.13,0,.02.04.1.08.19s.08.17.08.19c0,.03.03.07.06.1.07.07.08.35.02.41-.06.06-.33.24-.36.24-.02,0-.05.03-.09.06-.03.04-.08.06-.1.06-.02,0-.05.02-.06.05-.01.03-.04.05-.06.05s-.04,0-.04.02c0,.02-.04.05-.1.09-.05.04-.13.12-.16.2-.04.08-.1.16-.14.19-.08.05-.27.11-.38.11,0,0,0,0,0,0,0,0,0,0,0,0-.04,0-.15.03-.23.06-.09.04-.21.06-.26.06s-.13.02-.18.05c-.05.03-.12.05-.15.06-.04,0-.12.04-.19.09-.07.04-.28.15-.47.25-.32.16-.52.28-.62.36-.02.02-.05.03-.06.03s-.1.08-.2.18c-.1.1-.19.18-.2.18s-.16.13-.32.29c-.17.16-.4.38-.5.47-.11.1-.23.21-.27.25-.06.06-.11.07-.38.08-.07,0-.13,0-.18,0-.12,0-.14-.01-.15-.06,0-.02-.01-.03-.02-.03,0,0-.02.02-.04.07-.03.08-.05.1-.15.1-.01,0-.02,0-.03,0,0,0-.01,0-.02,0-.15,0-.33.03-.38.07,0,0-.02,0-.04,0-.04,0-.1-.01-.16-.03-.07-.02-.12-.03-.16-.03-.02,0-.04,0-.05.01-.02.02-.09.04-.15.05s-.13.04-.16.05c-.12.06-.29.11-.48.13-.11.02-.23.04-.26.05-.03.02-.19.05-.35.08-.17.03-.36.07-.43.1-.07.03-.15.04-.19.04-.03,0-.05.01-.05.03,0,.02-.05.04-.11.06-.13.04-.27.15-.27.22,0,.03-.21.17-.27.17,0,0-.03-.04-.05-.09-.04-.09-.06-.12-.2-.35-.07-.1-.12-.16-.14-.16,0,0,0,0,0,.02,0,.01.05.12.11.25.15.31.15.38-.04.49-.35.22-.49.33-.95.76-.12.11-.23.2-.24.2-.02,0-.04.02-.06.04-.02.04-.22.22-.95.86-.08.07-.28.26-.44.41-.16.16-.3.28-.32.28s-.04.02-.05.05c-.01.03-.04.05-.05.05s-.08.05-.13.1c-.06.06-.18.17-.27.25-.09.08-.25.23-.37.34-.11.11-.28.25-.36.32-.09.07-.19.16-.23.21-.04.05-.09.09-.11.09-.06,0-.27.22-.31.31-.02.05-.05.07-.07.07-.03,0-.05-.03-.07-.09-.02-.09-.09-.15-.16-.15-.02,0-.03,0-.05.01-.07.04-.42.37-.42.4,0,.01-.03.06-.07.11-.04.06-.05.09-.02.09s.08-.03.14-.1c.06-.06.11-.1.13-.1.03,0,.04.04.03.12-.01.11-.05.16-.2.3-.17.16-.34.33-.49.49-.03.04-.08.09-.11.11-.13.11-.34.36-.34.4,0,.03-.01.04-.03.04-.07,0-.27.54-.32.82-.02.13.09.54.16.63.1.11.25.31.25.34,0,.02.02.03.04.03s.09.04.16.1c.07.05.13.1.14.1,0,0,.07.04.12.08.11.08.57.31.63.31.02,0,.05.02.08.04.02.03.12.07.23.1.1.03.21.07.23.08.03.01.13.05.24.08.11.03.23.07.27.09.04.02.19.05.34.08s.33.05.42.07c.31.05,1.18.18,2,.29.5.07,1.41.1,3.02.1,1.15,0,1.74.01,1.76.04.05.08-.07.12-.52.14-.25.01-.46.04-.47.05,0,.01-.09.03-.19.03s-.26,0-.37.02c-.17.02-.19.03-.19.09,0,.1.14.21.28.23.07,0,.15.02.19.03.07.01.23.16.48.43.13.15.35.25.53.25.04,0,.1.02.13.05.04.03.09.05.12.05.07,0,.11.06.06.11-.02.03-.16.05-.36.06-.18,0-.41.04-.5.05-.25.04-.78.1-1.22.13-.2.01-.4.04-.44.06-.04.02-.18.04-.32.04-.14,0-.31.02-.39.04-.08.02-.23.04-.33.05-.21.02-.25.05-.16.13.1.1.19.13.33.13.13,0,.15.01.43.3l.29.3h.16c.09,0,.19.02.22.05.03.03.1.05.14.05.05,0,.1.02.12.05.02.03.06.05.1.05s.1.02.15.05c.05.03.11.05.14.05s.08.02.11.05c.04.03.1.05.13.05s.09.02.11.05.07.05.11.05.08.01.1.03c.03.03.2.1.51.22.21.08.28.11.38.16.05.03.15.05.21.06.06.01.13.03.14.04.02.01.09.04.16.05.07.01.14.04.15.05.03.05.37.08.77.08.33,0,.69-.02.97-.05.4-.05,1.08-.12,1.45-.16.2-.02.4-.04.43-.05.09-.03.83-.11,1.28-.14.21-.02.46-.04.54-.06.09-.02.28-.04.43-.05.15,0,.31-.03.36-.05.05-.02.21-.04.35-.04s.34-.02.42-.05.27-.05.41-.05c.14,0,.34-.02.45-.03s.39-.04.62-.06c.24-.02.47-.04.52-.06.05-.02.2-.04.34-.04s.33-.02.44-.05.32-.04.48-.05c.16,0,.37-.02.47-.05.1-.03.3-.05.43-.05.05,0,.12,0,.19,0h0v.02s6.63-.44,6.63-.44c.18-.06.22-.17.13-.33h0s-.09-.07-.15-.07c0,0-.01,0-.02,0l-4.93.33h0s-.1-.01-.18-.02c-.17-.02-.33-.04-.35-.04-.11-.03-.26-.58-.17-.63.02-.01.11-.03.2-.04.09,0,.2-.03.23-.04s.29-.04.56-.04c.27,0,.55-.03.62-.05.07-.02.29-.03.48-.03.22,0,.41-.02.51-.05,0,0,0,0,0,0h0s.04,0,.06,0c0,0,0,0,.01,0l4.74-.25c.09-.01.15-.06.17-.15.02-.09-.01-.16-.09-.21h0s-.07-.03-.11-.03c0,0,0,0-.01,0l-2.81.15h0c-.08-.04-.18-.05-.44-.06h-.37s-.15-.24-.15-.24c-.08-.12-.15-.26-.15-.31s-.01-.12-.03-.18c-.06-.19-.16-.66-.26-1.19-.08-.43-.08-.49,0-.57.06-.06.06-.07.02-.09-.03-.01-.05-.05-.05-.11,0-.07.02-.09.09-.11.06-.01.13-.07.2-.18.1-.13.11-.17.07-.21-.02-.03-.05-.05-.11-.05-.03,0-.07,0-.12.01-.15.02-.25.03-.31.03-.1,0-.11-.03-.14-.12-.03-.07-.05-.16-.07-.19-.09-.19-.18-.13,1.51-.94.86-.41,1.77-.84,2.01-.96.25-.12.52-.23.62-.25.1-.02.25-.05.33-.07.08-.02.23-.05.32-.06.09-.01.28-.05.41-.08.13-.03.33-.07.45-.09.11-.02.22-.05.24-.06.02-.01.18-.04.35-.06.37-.04.89-.15,1.01-.2.08-.04.34-.1.68-.15.1-.02.21-.04.25-.06.03-.02.11-.03.18-.03.07,0,.18-.02.25-.05s.17-.05.22-.05.18-.02.27-.04c.1-.03.29-.07.42-.1.13-.03.43-.09.67-.15,12.42-2.73,14.83-3.25,15.02-3.25,0,0,.01,0,.01,0,.15.12.19.17.19.21,0,.02.03.04.06.04.03,0,.08.02.1.05.02.03.05.05.07.05.01,0,.07.04.13.1.06.05.12.1.14.1.05,0,.15.11.12.14-.01.01,0,.03.05.04.04,0,.07.03.07.04s.02.03.05.03c.03,0,.06.02.07.05,0,.03.07.08.13.11.06.04.1.08.09.1,0,.02,0,.03.02.03s.09.05.15.11c.06.06.21.18.32.26.11.08.2.16.2.18,0,.02.01.03.03.03.02,0,.07.03.11.07.04.04.16.11.27.17.19.1.24.14.21.18,0,.01.02.04.05.04.07.02.25.2.25.25,0,.02.03.05.06.09.03.03.08.11.12.18.06.12.17.29.26.42.03.04.11.09.17.11.06.02.13.05.15.06.02.01.11.05.21.08.1.03.22.08.28.1.06.03.16.04.22.04s.15.02.18.05c.04.03.11.05.18.05.06,0,.14.02.18.05.04.03.11.05.17.05.05,0,.14.02.19.05.05.03.14.05.19.05.05,0,.11.02.13.04s.09.05.16.06c.15.03.38.09.49.12.02,0,.04,0,.06,0,.03,0,.07,0,.1-.02l.08-.04h-.08s-.13-.03-.18-.05c-.05-.03-.12-.05-.16-.05-.04,0-.11-.02-.16-.05-.05-.03-.13-.05-.19-.05-.05,0-.13-.02-.18-.05-.04-.03-.11-.04-.15-.05-.04,0-.11-.02-.16-.05-.05-.03-.12-.05-.16-.05-.04,0-.11-.02-.16-.05-.05-.03-.13-.05-.18-.05s-.09-.01-.11-.03c0-.02-.06-.04-.11-.05-.07-.02-.1-.04-.1-.09,0-.08.17-.24.28-.27.04-.01.07-.03.07-.04,0-.02.04-.04.1-.05.05-.01.1-.04.1-.05s.02-.03.04-.03c.06,0,.55-.24.6-.29.03-.04.03-.06,0-.09-.03-.02-.05-.07-.05-.11,0-.04-.02-.12-.05-.17-.03-.05-.07-.14-.1-.2-.03-.05-.05-.12-.05-.14s-.02-.08-.04-.13c-.03-.05-.06-.12-.08-.17-.02-.04-.06-.15-.1-.23-.04-.08-.07-.17-.07-.2s-.01-.05-.03-.06c-.02,0-.04-.06-.05-.11-.01-.05-.04-.13-.06-.19-.05-.1-.08-.18-.16-.4-.07-.18-.12-.3-.18-.45-.03-.06-.06-.15-.07-.2-.01-.05-.04-.09-.05-.09-.02,0-.03-.06-.03-.13v-.13h.17c.09,0,.22-.02.29-.05s.18-.05.23-.05.16-.02.22-.05c.06-.03.17-.05.23-.05.18,0,.43-.21.45-.37,0-.07.01-.13,0-.13,0,0-.01,0-.03,0-.17,0-.96.03-1.5.07h-.17s0-.14,0-.14c0-.08.02-.19.05-.24.03-.05.05-.14.05-.19,0-.06.02-.14.05-.19.03-.05.05-.14.05-.19s.02-.15.05-.21c.03-.06.05-.16.05-.21,0-.05.02-.11.03-.12.02-.02.05-.11.06-.19.02-.09.05-.25.08-.36.03-.11.06-.28.08-.37.02-.09.05-.19.06-.22.02-.04.04-.13.05-.21,0-.08.03-.16.05-.19.01-.03.04-.11.04-.2,0-.08.03-.16.05-.17.02-.01.03-.06.03-.11,0-.05.02-.15.05-.23s.05-.17.05-.22c0-.04.02-.12.05-.18.03-.05.05-.13.05-.18,0-.05.02-.15.05-.21.03-.06.05-.15.05-.19s.02-.12.05-.19c.03-.06.05-.16.05-.22,0-.06.02-.13.05-.17.03-.03.05-.11.05-.18s.02-.16.05-.21c.03-.05.05-.13.05-.18,0-.05.02-.14.05-.2.03-.06.05-.17.05-.23,0-.06.02-.15.05-.2.03-.05.05-.14.05-.19,0-.05.02-.13.05-.18.03-.04.04-.14.05-.21,0-.07.02-.14.04-.16.08-.05-.07-.08-.47-.08h-.42l-.06-.17c-.05-.16-.12-.23-.21-.23-.02,0-.04,0-.06,0-.07.02-.07.04-.08.3,0,.08-.02.15-.04.17s-.11.03-.2.03c-.19,0-.27.05-.33.24-.02.07-.07.18-.1.24-.04.06-.06.13-.06.15s-.02.04-.04.04-.03.03-.02.06c.01.04,0,.08-.04.12-.04.03-.05.07-.05.08,0,.01,0,.04-.03.06-.03.02-.05.08-.05.13s-.01.09-.03.09c-.02,0-.03.03-.03.06,0,.04-.01.07-.03.08-.02,0-.03.04-.03.07s-.03.11-.06.18c-.04.07-.06.16-.06.19s-.03.08-.07.12c-.04.04-.06.08-.05.1,0,.02,0,.07-.03.11-.02.05-.04.11-.04.13,0,.03-.03.07-.06.11s-.05.08-.04.11c0,.03,0,.07-.04.1-.04.03-.06.08-.05.11,0,.03,0,.07-.04.1-.03.03-.05.08-.05.12s-.03.11-.06.14c-.04.04-.05.07-.05.07,0,0-.02.07-.05.15-.04.07-.06.14-.05.16,0,.01-.01.05-.05.08-.04.03-.06.08-.05.11.01.03-.01.09-.06.14-.04.05-.07.11-.06.13,0,.03,0,.07-.04.1-.03.03-.04.07-.03.09.01.02,0,.06-.04.1-.03.04-.06.09-.06.12,0,.04-.03.09-.06.12-.03.04-.05.08-.04.1s0,.06-.04.1c-.04.04-.06.08-.05.1.01.02,0,.05,0,.07-.01.02-.03.05-.03.06,0,.02-.1.24-.17.4-.03.07-.09.21-.11.3-.03.1-.09.23-.13.3-.04.07-.07.15-.07.19,0,.04-.09.24-.15.34-.01.02-.62.06-1.04.07-.58.02-1.6.09-1.78.11-.11.02-.2.05-.22.07-.02.02-.06.03-.09.03s-.06-.01-.06-.03c0-.02-.02-.03-.04-.03-.02,0-.08-.04-.13-.1-.05-.05-.1-.1-.12-.1-.02,0-.04-.02-.05-.04-.07-.13-.51-.6-.69-.73-.07-.05-.12-.11-.12-.14s-.02-.04-.04-.04c-.05,0-.17-.14-.24-.27-.03-.06-.08-.11-.11-.12-.03,0-.07-.04-.08-.08-.03-.06-.07-.12-.13-.18-.09-.07-.19-.18-.36-.37-.16-.17-.3-.26-.42-.26-.04,0-.08,0-.11.03-.04.03-.14.11-.21.2l-.12.16.06.09s.06.11.06.13c0,.03,0,.06.02.07s.03.04.03.07c0,.05.09.16.3.38.08.08.13.16.12.17,0,.02.04.07.11.11.07.04.16.13.2.19.04.06.11.13.15.15.04.02.08.06.09.09.04.11.27.34.57.58.1.08.21.22.21.28,0,.07-.11.09-.75.11-1.22.04-2.37.1-2.77.13-.22.02-.76.05-1.2.06-.43.02-1.17.05-1.63.08s-1.22.06-1.68.08c-.46.02-.92.05-1.04.06-.11.02-.49.04-.83.05-.34,0-.72.03-.85.05-.12.02-.59.05-1.04.07s-1.13.05-1.52.06c-.39.02-.79.04-.89.06-.11.02-.53.04-.95.04-.17,0-.3,0-.4,0-.44,0-.43-.04-.53-.28-.09-.2-.33-.47-.42-.47-.03,0-.08-.02-.11-.04-.03-.02-.16-.1-.29-.17-.13-.06-.32-.17-.41-.23-.09-.06-.18-.11-.19-.11-.03,0-.31-.14-.36-.18-.08-.06-.42-.23-.48-.23-.03,0-.18-.08-.35-.18-.16-.1-.31-.18-.32-.18s-.06-.04-.11-.08-.12-.08-.17-.08c-.04,0-.08-.02-.08-.03,0-.02-.03-.03-.06-.03-.04,0-.11-.05-.18-.11-.06-.06-.13-.11-.15-.11-.02,0-.09-.03-.16-.06-.13-.07-.14-.07-1.48-.11-.27,0-.58-.02-.69-.02h-.19s-.04-.2-.04-.2c-.03-.19-.09-.32-.21-.45-.03-.04-.07-.05-.12-.05-.06,0-.12.02-.19.07-.04.03-.1.06-.13.08s-.08.04-.13.07c-.03.02-.06.03-.07.03s-.03-.01-.04-.03c-.02-.03-.08-.1-.13-.16-.06-.07-.11-.17-.13-.25l-.03-.13h-.56c-.31.01-.8.03-1.09.05-.26.02-.68.03-.99.03-.04,0-.07,0-.1,0-.04,0-.08,0-.12,0-.34,0-.51.01-.66.05-.12.03-.28.05-.37.05-.08,0-.21.02-.29.03-.08.02-.3.04-.5.06-.19.02-.37.04-.4.05,0,0,0,0-.01,0-.02,0-.05-.02-.06-.06-.02-.04-.06-.08-.11-.08-.2-.02-.23-.04-.22-.14,0-.05,0-.38-.02-.71-.02-.54-.02-.61.03-.65.01-.01.03-.03.04-.04h0c10.75-2.85,17.64-4.71,20.67-5.59.82-.23,1.65-.47,2.48-.72h0c.36-.09.88-.23,1.31-.35.46-.13.55-.16.7-.19.07-.02.15-.04.19-.06.06-.03.6-.19.82-.25.06-.01.3-.09.53-.16.23-.07.44-.13.48-.13.04,0,.08,0,.09-.02.01-.01.18-.05.36-.09.19-.04.52-.12.74-.19.22-.06.46-.13.53-.15.07-.02.14-.04.16-.05.02-.02.1-.04.18-.05.08-.01.16-.04.17-.05,0-.02.08-.04.15-.05.07-.01.15-.03.17-.05.02-.01.09-.04.17-.06.11-.03.13-.05.13-.11,0-.04-.02-.1-.05-.12-.03-.03-.05-.07-.05-.11,0-.07-.17-.23-.23-.23Z"/>
    </g>
  </g>
</svg>