<?xml version='1.0' encoding='utf-8'?>
<svg xmlns="http://www.w3.org/2000/svg" version="1.1" width="600px" height="976px" viewBox="0 0 600 976"> <g id="layer1"> <g style="fill:rgb(0,0,0); fill-opacity:1.0; stroke-linejoin: miter"> <path d="M303.3275,518.086C303.62424,518.086,303.8839,518.22656,304.18903,518.5236C304.82758,519.13666,304.81482,519.48145,304.18903,519.48145C303.92084,519.48145,303.47382,519.54535,303.19287,519.6092C302.91187,519.6731,302.1839,519.76245,301.57086,519.81354L300.44702,519.90295L300.44702,519.5581C300.44702,519.2005,300.45978,519.2005,302.04343,518.5364C302.26056,518.447,302.56705,518.3065,302.74585,518.22986C302.964,518.135,303.15222,518.086,303.3275,518.086 Z M296.10474,521.78033L296.10474,523.6322C296.10474,525.25415,296.07916,525.484,295.88763,525.599C295.7599,525.66284,295.10855,525.75226,294.44446,525.80334C293.78033,525.8544,292.7714,525.96936,292.20947,526.07153C291.64752,526.1609,290.81738,526.2503,290.3576,526.2503C289.89783,526.26306,289.27203,526.3142,288.95276,526.37805C288.63348,526.45465,287.6373,526.5696,286.7433,526.6335C285.83655,526.7101,284.99362,526.8251,284.8659,526.8889C284.7382,526.9655,284.1507,527.0166,283.56323,527.0166C282.97574,527.0166,282.24777,527.08044,281.92847,527.1571C281.6092,527.2337,280.7535,527.34863,280.01276,527.41254C279.27203,527.48914,278.33972,527.57855,277.94382,527.6168L277.20306,527.6807L277.20306,527.2337C277.20306,526.9911,277.11368,526.7229,277.0115,526.6335C276.80716,526.45465,276.7433,525.61176,276.94763,525.61176C277.0115,525.61176,277.15198,525.433,277.2669,525.22864C277.43295,524.89655,277.53513,524.84546,278.00766,524.84546C278.3014,524.8327,278.7995,524.7816,279.11877,524.70496C279.43805,524.62836,280.15326,524.48785,280.7152,524.38574C281.27716,524.29626,282.1967,524.1175,282.7586,524.0153C283.32056,523.91315,284.17627,523.7599,284.67432,523.6833C285.15964,523.6066,285.64496,523.5045,285.7599,523.4406C285.86206,523.3895,286.258,523.3002,286.6156,523.249C286.98596,523.198,287.318,523.1085,287.36908,523.0447C287.4074,522.98083,287.66284,522.92975,287.93103,522.92975C288.212,522.92975,288.659,522.85315,288.91443,522.751C290.1788,522.30396,290.91956,522.1507,292.3244,522.03577C293.15454,521.9719,293.86975,521.8825,293.90805,521.8442C293.94635,521.8059,294.4572,521.78033,295.0447,521.78033 Z M246.39575,530.3546C246.74945,530.3546,246.80716,530.4054,246.80716,530.57983C246.80716,530.72034,246.85825,530.8608,246.90933,530.8991C246.96042,530.93744,246.98596,531.15454,246.96042,531.3972L246.90933,531.8442L246.01532,531.9336C245.73743,531.9618,245.54588,531.9811,245.40027,531.9811C245.08414,531.9811,244.9844,531.8901,244.6871,531.60156C244.40613,531.32056,244.25287,531.0651,244.25287,530.83527C244.25287,530.43933,244.38058,530.4138,246.0792,530.3627C246.20479,530.35767,246.30914,530.3546,246.39575,530.3546 Z M308.23477,520.78076C308.4386,520.78076,308.55206,520.87384,308.64624,521.0779C308.76117,521.34607,308.7484,521.43555,308.5824,521.56323C308.33972,521.742,308.42914,521.9336,308.8378,522.1507C309.00385,522.2401,309.09323,522.3678,309.05493,522.4828C309.0166,522.58496,309.08044,522.76373,309.1954,522.87866C309.31036,522.99365,309.3742,523.198,309.34866,523.3257C309.31036,523.4662,309.38696,523.8493,309.52747,524.2069C309.65518,524.5645,309.7701,524.98596,309.7701,525.1648C309.7701,525.34357,309.92337,526.046,310.10217,526.7229C310.28098,527.41254,310.45978,528.22986,310.48532,528.5492C310.52362,528.86847,310.60025,529.341,310.67688,529.62195C310.7663,529.9668,310.7663,530.1584,310.67688,530.2478C310.60025,530.3244,310.5364,530.72034,310.5364,531.1162C310.5364,531.58875,310.47253,531.89526,310.3576,531.9847C310.06384,532.2401,308.5824,532.3934,306.258,532.44446C304.6999,532.47,303.95914,532.5338,303.63983,532.6743C303.37164,532.7765,302.5415,532.8915,301.59644,532.9425C300.7152,532.99365,299.62964,533.083,299.16986,533.14685C298.89896,533.184,298.70316,533.20355,298.55676,533.20355C298.35117,533.20355,298.24295,533.1651,298.16092,533.083C297.91827,532.85315,297.66284,528.15326,297.8672,527.62964C297.9438,527.4253,297.9438,527.27203,297.87994,527.27203C297.71393,527.27203,297.73947,526.28864,297.91827,526.0077C298.0332,525.8161,298.00766,525.66284,297.79056,525.20306C297.6373,524.89655,297.50958,524.46234,297.50958,524.258C297.50958,523.8237,297.8672,521.7676,297.95657,521.67816C298.0843,521.5377,299.29758,521.41,300.51086,521.3972C301.2133,521.3972,302.47766,521.3078,303.32056,521.2056C304.16348,521.10345,305.42786,521.01404,306.13025,521.0013C306.8327,521.0013,307.5479,520.93744,307.72668,520.88635C307.94336,520.8174,308.10684,520.78076,308.23477,520.78076 Z M263.5536,528.5587C264.0327,528.5587,264.05557,528.60205,264.02298,528.83014C263.99744,529.06006,263.8825,529.13666,263.576,529.16223C263.23117,529.2005,263.15454,529.2516,263.15454,529.507C263.15454,529.6986,263.26947,529.87744,263.43552,529.9668C263.60153,530.0562,263.80588,530.19666,263.89526,530.2988C263.98468,530.38824,264.16348,530.46484,264.2784,530.46484C264.9553,530.47766,265.3129,531.2567,264.76373,531.4994C264.59772,531.58875,264.41888,531.75476,264.39337,531.8825C264.30396,532.2273,263.85696,532.35504,262.235,532.5083C261.44318,532.58496,260.47253,532.6999,260.08942,532.76373C259.70627,532.8276,258.90167,532.917,258.3014,532.9553C257.70114,533.0064,256.98596,533.083,256.705,533.15967C256.424,533.2235,255.59387,533.3257,254.85312,533.40234C254.1124,533.4662,253.1673,533.5811,252.74585,533.6577C252.4819,533.7045,252.3102,533.7372,252.15173,533.7372C251.83482,533.7372,251.57086,533.6066,250.72797,533.198C250.52362,533.0958,250.24266,533.01917,250.11494,533.01917C249.97446,533.01917,249.69348,532.8276,249.47638,532.6105C249.14432,532.2401,249.106,532.1124,249.106,531.3589C249.106,530.5543,249.11877,530.516,249.52747,530.2733C250.16124,529.89307,250.61812,529.7044,250.90416,529.7044C251.07925,529.7044,251.19034,529.7751,251.23883,529.9157C251.54535,530.8608,251.71136,531.10345,252.04343,531.10345C252.42657,531.10345,252.65645,530.88635,253.02682,530.19666C253.1673,529.9413,253.35889,529.6475,253.46106,529.54535C253.66539,529.32825,255.90039,529.0983,259.38696,528.9323C260.65134,528.86847,261.86462,528.7663,262.06897,528.6897C262.28607,528.6258,262.8097,528.56195,263.2567,528.56195C263.37122,528.56006,263.46945,528.5587,263.5536,528.5587 Z M295.25137,527.0263C295.69345,527.0263,295.7216,527.07324,295.7216,527.3359C295.7216,527.5147,295.82376,527.7573,295.95148,527.8851C296.23242,528.166,296.39847,529.5581,296.41125,531.9336C296.42282,533.2197,296.4134,533.43365,296.24942,533.43365C296.23264,533.43365,296.21426,533.4314,296.19412,533.42786C296.17188,533.4234,296.14767,533.42126,296.12238,533.42126C296.00238,533.42126,295.85706,533.46893,295.77267,533.5428C295.6577,533.64496,294.63602,533.72156,292.8097,533.78546C290.07663,533.88763,287.95657,534.0409,285.69604,534.3091C283.13824,534.59814,281.0611,534.75507,279.92197,534.75507C279.40027,534.75507,279.07532,534.7221,278.99106,534.65393C278.7484,534.4496,278.04596,533.01917,277.79056,532.2018C277.6756,531.85693,277.5862,531.34607,277.5862,531.0651C277.5862,530.7842,277.52234,530.33716,277.44574,530.0817C277.35632,529.81354,277.33078,529.4432,277.38187,529.2644C277.4585,528.9579,277.52234,528.9323,278.13538,528.91956C278.49298,528.91956,279.11877,528.8557,279.50192,528.7919C279.88507,528.72797,280.86847,528.61304,281.67303,528.56195C282.47766,528.4981,283.48657,528.3832,283.90805,528.3193C284.80206,528.15326,286.79437,527.93616,288.69733,527.77014C289.43805,527.719,290.2682,527.6041,290.5492,527.5402C290.83014,527.4636,291.43042,527.3998,291.89017,527.3998C292.34995,527.38696,293.06512,527.31036,293.48657,527.22095C293.90805,527.1188,294.58493,527.0421,294.99362,527.0294C295.0923,527.0276,295.1776,527.0263,295.25137,527.0263 Z M275.1223,529.32635C275.53333,529.32635,275.6651,529.38257,275.73438,529.5326C275.77267,529.6603,275.9004,530.2478,276.00256,530.83527C276.10474,531.43555,276.23242,531.9847,276.2963,532.0485C276.41125,532.2146,276.39847,533.6066,276.27075,533.7344C276.21967,533.78546,276.18137,534.0409,276.18137,534.29626C276.18137,535.0243,275.86206,535.22864,274.54663,535.3308C271.31546,535.61176,270.28098,535.7012,269.36145,535.82886C268.7995,535.8927,267.98212,535.95654,267.53513,535.95654L266.73053,535.95654L266.73053,533.97705C266.73053,532.32947,266.76883,531.9719,266.9221,531.92084C267.02426,531.86975,267.11368,531.7676,267.11368,531.6654C267.11368,531.56323,267.02426,531.4866,266.9221,531.4866C266.79437,531.4866,266.73053,531.3589,266.73053,531.1162C266.73053,530.4904,267.43295,530.0562,268.49298,530.0051C268.9655,529.97955,269.6041,529.90295,269.92337,529.8391C270.24268,529.77527,271.18774,529.6858,272.03064,529.6475C272.87357,529.6092,273.742,529.5326,273.94635,529.45593C274.16348,529.3921,274.62323,529.32825,274.98083,529.32825C275.03137,529.327,275.07843,529.32635,275.1223,529.32635 Z M264.86542,533.1563C265.02814,533.1563,265.07025,533.3584,265.07025,533.8493C265.07025,534.2324,265.12134,534.55176,265.17242,534.55176C265.23627,534.55176,265.2746,534.9349,265.2746,535.4074L265.2618,536.2759L264.2401,536.37805C263.60776,536.43994,262.9544,536.4695,262.30145,536.4695C259.8555,536.4695,257.4152,536.05457,256.10474,535.3691C255.92593,535.26697,255.64496,535.1903,255.50447,535.1903C255.3129,535.1903,255.23627,535.11365,255.23627,534.8838C255.23627,534.43677,256.00256,534.1686,257.318,534.1686C257.89273,534.1686,258.81226,534.0792,259.36145,533.97705C259.91058,533.8749,260.65134,533.78546,261.00894,533.78546C261.788,533.78546,264.2912,533.42786,264.5594,533.2746C264.69156,533.1985,264.79108,533.1563,264.86542,533.1563 Z M238.33972,536.7229L238.42912,537.36145C238.4802,537.719,238.4802,538.06384,238.4419,538.1277C238.40358,538.20435,238.00766,538.25543,237.56067,538.25543C236.85825,538.25543,236.73053,538.2171,236.42401,537.8978C236.0664,537.52747,235.96423,536.9144,236.24521,536.81226C236.32184,536.7739,236.8327,536.7356,237.3691,536.7356L238.33972,536.7229 Z M296.31134,534.9909C296.51782,534.9909,296.54813,535.2221,296.53894,535.8544C296.53894,536.3525,296.43677,536.9017,296.2835,537.2593C296.0664,537.79565,295.97702,537.8723,295.40228,538.0511C295.24603,538.09827,294.93536,538.157,294.5478,538.218L294.54483,538.218L294.32452,538.2326L294.3256,538.25244L294.32266,538.25244C293.23083,538.415,291.70453,538.5815,291.1708,538.5815C291.06857,538.5815,291.00278,538.5754,290.9834,538.56195C290.9706,538.55554,290.9355,538.55237,290.88297,538.55237C290.72552,538.55237,290.41183,538.5811,290.07663,538.63855C289.25928,538.77905,286.9604,539.04724,284.48276,539.27716C283.742,539.341,282.7714,539.45593,282.31165,539.5198C281.85187,539.59644,281.04724,539.6731,280.52362,539.7241C280.0,539.76245,279.22095,539.85187,278.7995,539.9157C278.0332,540.04346,275.2746,540.31165,274.07407,540.3755C273.72925,540.401,272.9502,540.46484,272.34995,540.5415C269.89554,540.8185,268.90515,540.9169,268.38013,540.9169C268.20303,540.9169,268.0789,540.9057,267.96936,540.88635C267.5479,540.8097,267.49683,540.75867,267.49683,540.4266C267.49683,540.2222,267.4074,539.9796,267.30524,539.8646C267.17752,539.73694,267.11368,539.4176,267.11368,538.8429C267.11368,538.0511,267.13922,538.0,267.4074,537.98724C267.56067,537.98724,268.14813,537.92334,268.71008,537.8595C269.27203,537.79565,270.3959,537.6807,271.2005,537.6169C272.00513,537.5402,272.91187,537.4253,273.20563,537.36145C273.49936,537.2848,274.0996,537.2337,274.54663,537.22095C274.99362,537.22095,275.7599,537.16986,276.2452,537.09326C276.7433,537.0294,277.89273,536.9144,278.7995,536.8506C279.71902,536.7739,280.6258,536.659,280.83014,536.59515C281.0345,536.51855,281.63474,536.4674,282.17114,536.45465C282.70752,536.45465,283.46106,536.3908,283.84418,536.32697C284.22733,536.26306,285.36398,536.1482,286.34738,536.0843C287.34357,536.02045,288.31418,535.9055,288.49298,535.82886C288.68457,535.765,289.3742,535.7012,290.01276,535.7012C290.66412,535.68835,291.44318,535.6373,291.76245,535.56067C292.08173,535.484,293.0907,535.38184,293.99744,535.318C294.917,535.26697,295.79822,535.152,295.97702,535.08813C296.12137,535.0268,296.23,534.9909,296.31134,534.9909 Z M249.97218,535.0959C250.01797,535.0959,250.06905,535.1022,250.11494,535.11365C250.22989,535.152,250.49808,535.2158,250.70242,535.25415C251.04726,535.3308,251.5198,535.5096,252.23499,535.82886C252.37549,535.8927,252.80971,536.07153,253.19284,536.21204C253.9336,536.493,254.2912,536.6335,254.91699,536.92725C255.1341,537.0294,255.4917,537.1443,255.72159,537.1826C255.95148,537.2337,256.16858,537.3231,256.2069,537.3742C256.2452,537.43805,256.424,537.48914,256.6156,537.48914C256.80716,537.50195,257.36908,537.6424,257.8544,537.82117C259.02908,538.2493,259.72247,538.3661,261.6949,538.3661C262.01706,538.3661,262.37332,538.363,262.7714,538.3576L265.38953,538.3193L265.3512,539.1494C265.32568,539.6092,265.2618,540.03064,265.18518,540.0945C265.12134,540.17114,265.07025,540.35,265.07025,540.516C265.07025,541.0396,264.20178,541.46106,262.84802,541.58875C261.18774,541.74207,259.50192,541.92084,256.57727,542.25287C254.92973,542.4326,253.1812,542.52893,251.76683,542.52893C250.76913,542.52893,249.93771,542.481,249.4253,542.3806C247.89273,542.08685,247.3691,541.92084,246.99872,541.6399C246.60281,541.34607,245.81097,540.96295,244.99362,540.6692C244.72542,540.57983,244.5083,540.45215,244.5083,540.38824C244.5083,540.3483,244.47339,540.3284,244.41916,540.3284C244.3866,540.3284,244.34708,540.3356,244.30396,540.35C244.27809,540.3586,244.24771,540.3627,244.2144,540.3627C244.09967,540.3627,243.9502,540.31415,243.83142,540.235C243.67816,540.1328,243.46106,540.04346,243.33334,540.04346C243.20563,540.04346,243.10345,539.9796,243.10345,539.9157C243.10345,539.8391,243.01405,539.78796,242.91188,539.78796C242.80971,539.78796,242.5032,539.6731,242.24777,539.5326C241.97957,539.3921,241.6986,539.27716,241.62198,539.27716C241.54535,539.27716,241.26437,539.0856,240.99617,538.8557C240.56195,538.48535,240.49808,538.3576,240.44699,537.719L240.3959,536.9911L241.11111,536.5313C241.91571,536.02045,243.28226,535.7139,244.82759,535.7012C245.32567,535.68835,246.01532,535.6245,246.36015,535.56067C246.71774,535.4968,247.62451,535.38184,248.39081,535.318C249.15709,535.25415,249.80844,535.1648,249.84674,535.12646C249.86784,535.10535,249.91606,535.0959,249.97218,535.0959 Z M402.72168,432.39264C402.7168,432.39264,402.7121,432.39288,402.70752,432.39337C402.61813,432.40613,402.235,432.4572,401.85187,432.52106C401.2133,432.61047,400.74072,432.7254,399.0677,433.1341C398.77396,433.21075,398.42914,433.32568,398.3014,433.38953C397.96936,433.56836,397.02426,433.87488,396.10474,434.10474C395.64496,434.21967,394.99362,434.39844,394.63602,434.48785C394.2912,434.59003,393.60153,434.76886,393.10345,434.8838C392.61813,434.99872,392.00513,435.16473,391.76245,435.25415C391.5198,435.34357,390.97064,435.50958,390.5492,435.61176C390.12772,435.72668,389.2082,435.96936,388.50574,436.14813C387.80334,436.32697,386.53894,436.64624,385.69604,436.86334C384.85315,437.0677,384.04852,437.2976,383.90805,437.36145C383.76758,437.4253,383.0779,437.60413,382.3755,437.75732C381.67303,437.91058,381.04724,438.07666,380.97064,438.1277C380.90677,438.17883,380.12772,438.38318,379.2465,438.5747C378.36526,438.7663,377.47125,439.0089,377.2414,439.09833C377.02426,439.2005,376.705,439.27716,376.55173,439.27716C376.38568,439.27716,375.82376,439.4176,375.28735,439.58368C374.76373,439.7497,373.89526,439.9923,373.37164,440.1073C372.84802,440.235,372.29886,440.401,372.1584,440.49042C372.01788,440.57983,371.53256,440.69476,371.09833,440.74585C370.66412,440.79694,370.2682,440.88635,370.2299,440.9502C370.1916,441.01404,370.02554,441.06512,369.8595,441.06512C369.69348,441.06512,369.36145,441.14178,369.13153,441.24396C368.90167,441.33337,368.42914,441.48657,368.07153,441.576C366.52618,441.94635,365.86206,442.0996,365.2618,442.2146C364.917,442.27844,364.5083,442.3806,364.3678,442.44446C364.0741,442.58496,363.42273,442.75098,361.7497,443.12134C361.08557,443.26184,360.37036,443.4662,360.15326,443.55554C359.9489,443.6577,359.553,443.7599,359.29758,443.79822C359.02936,443.83655,358.59515,443.91315,358.33972,443.95148C358.07153,443.9898,357.6501,444.1175,357.4074,444.23242C357.16473,444.3346,356.75607,444.4751,356.51343,444.52618C354.8659,444.9093,354.48276,445.01147,354.2401,445.13922C354.0996,445.21582,353.76758,445.27966,353.5249,445.27966C353.26947,445.27966,353.06512,445.3308,353.06512,445.38184C353.06512,445.484,352.5926,445.599,350.63855,445.98212C350.03833,446.09705,349.31036,446.3014,349.0166,446.4419C348.71008,446.56958,348.2503,446.68457,347.99487,446.68457C347.72668,446.68457,347.39465,446.77393,347.2669,446.8761C347.12643,446.97827,346.87103,447.0677,346.6922,447.0677C346.51343,447.0677,346.19412,447.1571,345.9898,447.25928C345.79822,447.36145,345.50446,447.4508,345.3512,447.4508C345.21072,447.4508,344.57214,447.60413,343.9336,447.7829C343.3078,447.96167,342.64368,448.1405,342.46487,448.17883C342.28607,448.20435,342.03064,448.29376,341.89017,448.34485C341.6092,448.47253,339.32312,449.06006,338.37805,449.2516C338.05875,449.31543,337.599,449.44318,337.35632,449.54535C336.93488,449.71136,335.3129,450.1328,334.03577,450.401C333.7165,450.47766,333.37164,450.57983,333.2567,450.64368C333.14178,450.70752,332.82248,450.79694,332.55426,450.84802C332.27332,450.88635,332.00513,450.9757,331.92847,451.02686C331.86462,451.07788,331.49426,451.1673,331.13666,451.21838C330.7663,451.26947,330.43423,451.34613,330.39594,451.40997C330.3576,451.46106,330.06384,451.5504,329.7318,451.60156C329.38696,451.6526,329.0677,451.72925,328.99106,451.76758C328.8761,451.84418,328.35248,451.98468,326.92212,452.30396C326.62836,452.3678,326.2835,452.46997,326.15582,452.5338C326.0281,452.61047,325.46616,452.75098,324.90424,452.87866C324.3423,452.99365,323.65262,453.17242,323.37164,453.2746C323.0779,453.37677,322.7331,453.45337,322.57983,453.45337C322.43933,453.45337,322.1073,453.5428,321.86462,453.64496C321.6092,453.74713,321.23883,453.83655,321.04724,453.83655C320.85568,453.83655,320.52362,453.9259,320.31927,454.02808C320.12772,454.13025,319.79565,454.21967,319.57855,454.21967C319.3742,454.21967,319.05493,454.29626,318.86334,454.38568C318.67178,454.48785,318.05875,454.6667,317.49683,454.79437C316.93488,454.92212,316.04086,455.15198,315.51724,455.318C314.99362,455.47125,314.2784,455.66284,313.92084,455.7395C312.88635,455.94385,312.1456,456.13538,311.87738,456.26306C311.6092,456.37805,310.77905,456.5824,309.74457,456.77393C309.39975,456.83783,309.0677,456.9272,308.99106,456.97827C308.90167,457.02936,308.45465,457.1443,307.99487,457.24646C306.30908,457.60413,306.02808,457.66797,305.88763,457.7829C305.81097,457.84674,305.41507,457.93616,305.01917,457.9745C304.61047,458.0255,304.25287,458.1277,304.21454,458.1916C304.16348,458.25543,303.92084,458.30652,303.65262,458.30652C303.3972,458.30652,303.06512,458.39594,302.92465,458.4981C302.79694,458.60028,302.47766,458.67688,302.235,458.6897C301.99234,458.6897,301.53256,458.7663,301.2133,458.86847C300.4981,459.09833,299.5147,459.341,298.8506,459.44318C298.5696,459.49426,298.212,459.6092,298.05875,459.6858C297.9055,459.7752,297.61176,459.8391,297.4074,459.8391C297.20306,459.8391,296.7433,459.9157,296.41125,460.01788C295.0737,460.40356,294.46375,460.5625,294.14777,460.5625C293.97195,460.5625,293.88715,460.5133,293.81866,460.42657C293.70752,460.2893,293.34204,460.21893,292.96548,460.21893C292.6064,460.21893,292.23727,460.2829,292.06897,460.41382C291.94125,460.516,291.58365,460.60535,291.27716,460.60535C290.97064,460.60535,290.60025,460.6692,290.45978,460.74585C290.31927,460.8225,289.89783,460.93744,289.54022,460.98853C288.8506,461.0907,288.0332,461.28223,286.98596,461.576C286.59088,461.6926,286.31403,461.75006,286.13712,461.75006C285.96518,461.75006,285.88763,461.69577,285.88763,461.58875C285.88763,461.3078,285.4917,461.0396,284.7254,460.8097C284.13794,460.63092,283.51215,460.5926,281.4687,460.5926C280.06384,460.5926,278.5824,460.65643,278.16092,460.7331C277.73947,460.8097,277.13922,460.92468,276.81992,460.9757C274.96808,461.32056,273.0779,462.0996,272.5415,462.73816C272.2688,463.0738,271.88412,463.2027,271.09744,463.2027C270.9262,463.2027,270.73593,463.1966,270.52362,463.18518C269.84674,463.14685,269.2465,463.04468,269.09323,462.95532C268.9188,462.829,268.33353,462.76785,267.6911,462.76785C266.9695,462.76785,266.1758,462.845,265.81097,462.99365C265.50446,463.10858,265.17242,463.2746,265.05746,463.37677C264.92642,463.48715,264.41904,463.54535,263.8171,463.54535C263.3046,463.54535,262.7235,463.50314,262.24777,463.41504C261.86462,463.3512,260.47253,463.23627,259.13153,463.15967C256.04086,462.99365,253.81865,462.81482,253.00128,462.66156C252.65645,462.59772,251.76245,462.46997,251.02171,462.39337C250.28098,462.30396,248.93997,462.16345,248.02045,462.06128C247.11368,461.9591,245.78543,461.81866,245.0958,461.742C244.40613,461.67816,243.7931,461.60156,243.75479,461.56323C243.7037,461.53766,242.46487,461.39722,240.99617,461.2567C239.51468,461.1162,237.8544,460.93744,237.29247,460.86078C236.32184,460.7331,235.81097,460.682,232.24777,460.34998C231.44318,460.27332,230.43423,460.1584,230.01277,460.09448C229.59131,460.01788,228.53128,459.90295,227.6756,459.8391C226.80716,459.76245,226.0281,459.67303,225.96423,459.62195C225.8876,459.58368,225.24905,459.50702,224.53384,459.45593C222.40103,459.30267,218.22478,458.86847,216.34738,458.6258C216.0664,458.58752,215.21072,458.4981,214.43167,458.4342C213.0396,458.30652,211.341,458.1277,209.51468,457.91058C208.1226,457.7318,205.4023,457.43805,203.19284,457.22095C202.1456,457.11877,200.81737,456.97827,200.25543,456.91443C199.69348,456.83783,198.659,456.7229,197.95657,456.659C197.25415,456.5824,196.10472,456.42914,195.4023,456.32697C192.7714,455.9566,191.14943,455.7395,189.9106,455.6245C189.20818,455.56067,187.91826,455.42017,187.03703,455.318C186.1558,455.20306,184.38058,455.06256,183.10345,454.98596C181.81354,454.92212,180.7152,454.8327,180.66411,454.80713C180.51086,454.70496,178.02043,454.4751,176.4751,454.39844C175.69604,454.37292,174.38058,454.258,173.53767,454.15582C172.70753,454.05365,170.74074,453.8493,169.15709,453.7088C167.57344,453.55554,165.77267,453.364,165.1341,453.26184C163.4323,452.99747,162.43053,452.8774,161.75893,452.8774C161.61824,452.8774,161.49205,452.8827,161.37694,452.893L161.37694,452.893L159.57835,452.69754Q159.46739,452.67896,159.3676,452.67896Q158.75055,452.67896,158.56007,453.38892Q158.55849,453.84485,158.81895,454.07248L158.81737,454.07248C158.80348,454.166,158.95016,454.2314,159.27972,454.27368L159.27814,454.27368Q159.30432,454.27832,159.33147,454.2821L265.45337,465.81424L265.45337,466.04596C265.45337,466.53122,265.7867,466.83554,266.27246,466.83554C266.3492,466.83554,266.42978,466.82794,266.51343,466.81226C266.6057,466.79517,266.68338,466.7854,266.75226,466.7854C266.94077,466.7854,267.06366,466.85852,267.2414,467.05493C267.3982,467.21887,267.47943,467.2953,267.55835,467.2953C267.62082,467.2953,267.68185,467.2474,267.77777,467.1571C267.8985,467.04443,268.04456,466.99768,268.4715,466.99768C268.72217,466.99768,269.0697,467.0138,269.56577,467.04214C271.53256,467.14432,272.20944,467.32312,272.65643,467.84674C272.83527,468.06384,272.98853,468.30652,272.98853,468.37036C272.98853,468.44702,273.129,468.77905,273.3078,469.1111C273.4866,469.44318,273.62708,469.788,273.62708,469.87738C273.62708,469.97955,273.72925,470.1584,273.85696,470.28607C274.12515,470.55426,274.17624,471.67816,273.94635,471.90805C273.69092,472.1507,272.63092,472.8659,272.5032,472.8659C272.43933,472.8659,272.28607,472.98083,272.15836,473.12134C272.03064,473.2618,271.85187,473.37677,271.7497,473.37677C271.66028,473.37677,271.54535,473.46616,271.50702,473.56833C271.45593,473.6705,271.35376,473.7599,271.2516,473.7599C271.1494,473.7599,271.0728,473.79822,271.0728,473.8493C271.0728,473.91315,270.89398,474.0664,270.68967,474.2069C270.47253,474.34738,270.1788,474.705,270.03833,475.0115C269.88507,475.318,269.62964,475.6501,269.4636,475.765C269.12796,475.97632,268.36887,476.19977,267.93997,476.19977C267.92822,476.19977,267.91672,476.1996,267.9055,476.19925C267.89764,476.1986,267.8891,476.19827,267.87982,476.19827C267.708,476.19827,267.29907,476.30856,266.94763,476.4419C266.59003,476.5824,266.1175,476.69733,265.92593,476.69733C265.73438,476.69733,265.40228,476.7867,265.19797,476.8889C264.99362,476.99106,264.7254,477.09323,264.59772,477.11877C264.4572,477.13153,264.12515,477.2848,263.85696,477.46362C263.576,477.62964,262.7331,478.07663,261.97955,478.44702C260.7152,479.0728,259.88507,479.5581,259.48914,479.89017C259.39975,479.95404,259.29758,480.01788,259.25928,480.01788C259.22095,480.01788,258.8506,480.33716,258.45465,480.7203C258.05875,481.10345,257.6884,481.42273,257.65005,481.42273C257.61176,481.42273,257.02426,481.95914,256.36017,482.59772C255.68327,483.24905,254.7765,484.10474,254.34229,484.48785C253.89528,484.871,253.42273,485.318,253.26947,485.47125C253.03958,485.71393,252.83525,485.75226,251.74968,485.79056C251.451,485.80063,251.22287,485.80716,251.04767,485.80716C250.55615,485.80716,250.48131,485.7557,250.43423,485.5862C250.40208,485.49512,250.37892,485.44675,250.35156,485.44675C250.31369,485.44675,250.26776,485.53934,250.1788,485.73947C250.04063,486.07336,249.97513,486.1374,249.59857,486.1374C249.55745,486.1374,249.51263,486.13663,249.4636,486.13538C249.43703,486.13483,249.41023,486.13458,249.38326,486.13458C248.77481,486.13458,248.0756,486.2696,247.87994,486.41635C247.85498,486.43716,247.80156,486.4471,247.72762,486.4471C247.57458,486.4471,247.33368,486.40445,247.07535,486.32697C246.80394,486.24713,246.5874,486.2072,246.44136,486.2072C246.35374,486.2072,246.2915,486.2216,246.25798,486.2503C246.16858,486.31418,245.90039,486.41635,245.65773,486.46744C245.41507,486.51852,245.1341,486.6079,245.01917,486.659C244.53384,486.8889,243.86974,487.08047,243.11621,487.1954C242.65645,487.25928,242.19669,487.36145,242.09451,487.41254C241.97957,487.47638,241.341,487.61685,240.67688,487.74457C240.01277,487.85953,239.23372,488.03833,238.95274,488.1405C238.659,488.24268,238.33972,488.31927,238.212,488.31927C238.09706,488.31927,237.9949,488.37036,237.9949,488.44702C237.9949,488.51086,237.79056,488.6258,237.53513,488.68967C237.02426,488.83014,236.46233,489.28992,236.46233,489.5581C236.46233,489.68582,235.60664,490.235,235.38953,490.235C235.36398,490.235,235.2746,490.08173,235.19797,489.87738C235.04471,489.5198,234.95529,489.37933,234.39336,488.48532C234.1272,488.08118,233.90671,487.8292,233.81995,487.8292C233.7943,487.8292,233.78033,487.8512,233.78033,487.89783C233.78033,487.9489,233.98468,488.39594,234.22733,488.88123C234.84036,490.12006,234.82759,490.40103,234.07407,490.86078C232.65645,491.742,232.13281,492.17624,230.29373,493.9004C229.8212,494.34738,229.38696,494.705,229.32312,494.705C229.24649,494.705,229.14432,494.78162,229.09323,494.8838C229.00383,495.0498,228.22478,495.75226,225.3129,498.31927C224.98083,498.61304,224.18903,499.35376,223.55045,499.9668C222.91188,500.5926,222.33716,501.0907,222.27332,501.0907C222.20944,501.0907,222.12006,501.18008,222.08174,501.28226C222.03065,501.38443,221.94125,501.47382,221.8774,501.47382C221.81354,501.47382,221.57089,501.6654,221.341,501.8825C221.11111,502.1124,220.63858,502.5594,220.28098,502.87866C219.93614,503.19797,219.27203,503.79822,218.81226,504.23245C218.3525,504.6539,217.70114,505.2286,217.35632,505.50958C217.0115,505.77777,216.60281,506.16092,216.43678,506.35248C216.27075,506.55682,216.0664,506.71008,215.97702,506.71008C215.74713,506.71008,214.87866,507.57855,214.75096,507.93616C214.67172,508.13123,214.56339,508.22736,214.46207,508.22736C214.35109,508.22736,214.24852,508.11203,214.20178,507.88507C214.13016,507.5371,213.8371,507.28757,213.56575,507.28757C213.49847,507.28757,213.43254,507.3029,213.37164,507.33588C213.09068,507.48914,211.68582,508.83014,211.68582,508.9451C211.68582,508.99615,211.57088,509.2005,211.41763,509.40485C211.24106,509.6571,211.23264,509.78168,211.32776,509.78168C211.42531,509.78168,211.63171,509.6507,211.8774,509.3921C212.12215,509.1354,212.30272,509.00708,212.4165,509.00708C212.54617,509.00708,212.58913,509.1737,212.5415,509.50702C212.49042,509.92847,212.33716,510.1456,211.73691,510.69476C211.06003,511.32056,210.3576,512.023,209.79565,512.6488C209.66794,512.7893,209.46361,512.99365,209.33589,513.0958C208.82503,513.5428,207.98212,514.53894,207.98212,514.70496C207.98212,514.8071,207.93103,514.8838,207.86719,514.8838C207.59898,514.8838,206.76883,517.0294,206.60281,518.17883C206.52618,518.7152,206.96042,520.35,207.25415,520.69476C207.66284,521.1418,208.23755,521.9336,208.23755,522.0485C208.23755,522.1124,208.3014,522.16345,208.37804,522.16345C208.45467,522.16345,208.73563,522.32947,209.00383,522.54663C209.27203,522.751,209.52747,522.92975,209.57855,522.92975C209.61685,522.92975,209.84674,523.07025,210.06386,523.23627C210.48532,523.55554,212.3627,524.46234,212.59259,524.46234C212.66922,524.46234,212.79694,524.53894,212.89911,524.62836C212.98851,524.7305,213.39719,524.89655,213.81865,525.0243C214.22733,525.1392,214.64879,525.2925,214.75096,525.34357C214.85312,525.39465,215.28735,525.5479,215.70882,525.66284C216.13028,525.7905,216.61559,525.95654,216.79437,526.0332C216.97318,526.10986,217.57343,526.2503,218.13538,526.3397C218.69733,526.42914,219.45084,526.54407,219.79565,526.6079C221.03448,526.8251,224.5083,527.3359,227.77777,527.7829C229.79565,528.06384,233.40997,528.17883,239.85951,528.17883C244.45721,528.17883,246.8327,528.22986,246.88379,528.3193C247.10089,528.65137,246.59004,528.7919,244.78928,528.8812C243.7931,528.9323,242.93742,529.0217,242.89911,529.0856C242.8608,529.13666,242.52875,529.18774,242.15836,529.18774C241.788,529.18774,241.12389,529.2261,240.68967,529.2644C240.01277,529.341,239.9106,529.37933,239.9106,529.62195C239.9106,530.0179,240.45978,530.46484,241.02171,530.5415C241.28992,530.57983,241.63474,530.6309,241.788,530.6692C242.0562,530.72034,242.70753,531.3078,243.69093,532.3934C244.21457,532.98083,245.0958,533.40234,245.81097,533.40234C245.97702,533.40234,246.21967,533.4917,246.34738,533.5939C246.48787,533.69604,246.70499,533.78546,246.81992,533.78546C247.11368,533.78546,247.24138,534.0153,247.07535,534.21967C246.98596,534.32184,246.44955,534.41125,245.63219,534.4751C244.9042,534.5134,243.99744,534.6156,243.6143,534.67944C242.6309,534.84546,240.49808,535.0753,238.74841,535.1903C237.93103,535.2414,237.1392,535.3563,236.99872,535.433C236.85825,535.5096,236.28352,535.5734,235.73436,535.5734C235.18518,535.5862,234.48276,535.6373,234.16348,535.7139C233.8442,535.7905,233.25671,535.87994,232.84802,535.9183C232.01788,535.9949,231.85185,536.1354,232.20944,536.45465C232.61813,536.83777,232.97574,536.9783,233.53767,536.9783C234.04852,536.9783,234.12515,537.0294,235.24905,538.1916L236.41124,539.40485L237.0498,539.40485C237.42018,539.40485,237.80331,539.48145,237.94382,539.59644C238.07152,539.6986,238.33972,539.78796,238.51852,539.78796C238.71008,539.78796,238.92722,539.87744,239.0166,539.9796C239.106,540.0817,239.27203,540.17114,239.39975,540.17114C239.52747,540.17114,239.79565,540.2605,239.98723,540.3627C240.19157,540.46484,240.44699,540.5543,240.54916,540.5543C240.65134,540.5543,240.85568,540.6437,240.9834,540.74585C241.12389,540.848,241.36655,540.93744,241.5198,540.93744C241.67305,540.93744,241.86462,541.02686,241.95403,541.129C242.04343,541.2312,242.23499,541.32056,242.38824,541.32056C242.5415,541.32056,242.7203,541.37164,242.78416,541.43555C242.89911,541.5377,243.58876,541.8314,244.82759,542.30396C245.68327,542.636,245.96423,542.751,246.36015,542.92975C246.57727,543.0319,246.94763,543.14685,247.19029,543.1852C247.43295,543.23627,247.70114,543.31287,247.76501,543.364C247.84164,543.41504,248.1226,543.5045,248.40358,543.55554C248.68454,543.6067,248.95274,543.69604,248.99106,543.7727C249.11082,543.97,250.46648,544.0739,252.06967,544.0739C253.37271,544.0739,254.83926,544.00525,255.93869,543.86206C257.52234,543.6577,260.24268,543.364,261.7497,543.23627C262.5543,543.1724,263.33334,543.083,263.47382,543.0447C263.84418,542.92975,266.78162,542.5977,268.58237,542.47C269.4253,542.4061,270.4087,542.30396,270.7535,542.2273C271.1111,542.1507,271.87738,542.0741,272.47766,542.03577C273.0779,541.99744,273.72925,541.92084,273.92084,541.8442C274.12515,541.7676,274.76373,541.70374,275.33844,541.70374C275.92593,541.70374,276.67944,541.6143,277.02426,541.51215C277.36908,541.41,278.10983,541.32056,278.67178,541.3078C279.2337,541.3078,280.03833,541.2439,280.45978,541.18005C280.88123,541.1162,282.00513,541.0013,282.9502,540.9502C283.89526,540.88635,284.84036,540.77136,285.03192,540.69476C285.23627,540.61816,285.83655,540.5543,286.37292,540.5543C286.90933,540.5543,287.70117,540.46484,288.12262,540.3627C288.54407,540.2605,289.41254,540.1839,290.03833,540.17114C290.67688,540.17114,291.53256,540.0817,291.92847,539.9796C292.33716,539.87744,293.1162,539.78796,293.65262,539.78796C293.8666,539.78796,294.1314,539.77374,294.40323,539.7502L294.4062,539.7502L294.4105,539.8302L320.94263,538.07513Q321.99518,537.71606,321.45535,536.7564L321.45532,536.7564Q321.19495,536.4785,320.85205,536.4785Q320.81952,536.4785,320.78625,536.481L301.0627,537.78656L301.0627,537.78656C300.88065,537.76025,300.65283,537.7358,300.3576,537.7063C299.66794,537.6424,299.04214,537.5658,298.95276,537.5402C298.5313,537.4253,297.91827,535.2158,298.2631,535.0115C298.33972,534.96045,298.69733,534.89655,299.0677,534.8583C299.43805,534.81995,299.8595,534.7433,300.0,534.67944C300.1405,534.6156,301.1494,534.53894,302.235,534.5006C303.32056,534.46234,304.44446,534.3729,304.7254,534.29626C305.0064,534.2324,305.87485,534.1686,306.6411,534.1686C307.50958,534.1686,308.28864,534.0919,308.67178,533.97705C308.67355,533.9765,308.67532,533.97595,308.67712,533.9754L308.6802,533.9754Q308.7869,534.00543,308.9039,534.00543Q308.9286,534.00543,308.95374,534.0041L327.89395,533.0057Q328.4248,532.92206,328.58148,532.39496Q328.68237,531.8602,328.23895,531.53864L328.23816,531.53815Q328.04037,531.4094,327.7978,531.4094Q327.772,531.4094,327.7457,531.4109L316.4916,532.00415L316.4916,532.00415C316.16083,531.85236,315.766,531.80994,314.7382,531.7676L313.2567,531.7165L312.66922,530.79694C312.33716,530.2988,312.06897,529.73694,312.06897,529.5581C312.06897,529.37933,312.01788,529.06006,311.95404,528.8557C311.72412,528.1149,311.31546,526.21204,310.91956,524.0792C310.60025,522.35504,310.60025,522.0996,310.94507,521.7931C311.18774,521.56323,311.18774,521.5249,311.00894,521.44824C310.88123,521.3972,310.7918,521.2312,310.7918,521.01404C310.7918,520.7331,310.85568,520.6437,311.1622,520.5926C311.40485,520.5415,311.67303,520.31165,311.97955,519.87744C312.36273,519.341,312.4138,519.21326,312.27332,519.0345C312.18048,518.9079,312.08765,518.8538,311.85107,518.8538C311.72964,518.8538,311.57034,518.86804,311.35376,518.89404C310.74078,518.9659,310.35947,519.0125,310.11282,519.0125C309.7017,519.0125,309.66476,518.8828,309.553,518.5236C309.45084,518.2427,309.33588,517.8978,309.25928,517.7573C308.91443,516.9783,308.5313,517.22095,315.3001,513.98975C318.7484,512.3423,322.3755,510.61813,323.3589,510.1328C324.3423,509.66028,325.45337,509.2133,325.8493,509.13666C326.2452,509.0728,326.8327,508.9451,327.16473,508.86847C327.49683,508.79184,328.07153,508.67688,328.4419,508.61304C328.81226,508.56195,329.553,508.4087,330.07663,508.30652C330.60025,508.1916,331.40485,508.02554,331.86462,507.9489C332.3244,507.85953,332.7586,507.75735,332.82248,507.71902C332.8991,507.66794,333.5249,507.5658,334.22736,507.48914C335.7088,507.31036,337.79056,506.8889,338.2503,506.68457C338.5696,506.5313,339.62964,506.28864,340.97064,506.07153C341.37933,506.00766,341.8263,505.89273,341.95404,505.8161C342.08173,505.75226,342.41382,505.6884,342.682,505.6884C342.9502,505.6756,343.3972,505.599,343.67816,505.49683C343.95914,505.39465,344.35504,505.30524,344.5594,505.30524C344.76373,505.30524,345.2618,505.2286,345.64496,505.12643C346.0409,505.02426,346.79437,504.84546,347.318,504.7433C347.84164,504.62836,349.05493,504.37292,350.0,504.15582C399.6889,493.23044,409.33072,491.14737,410.0921,491.14737C410.1184,491.14737,410.1341,491.14984,410.1405,491.15454C410.74075,491.63986,410.91956,491.83142,410.91956,491.98468C410.91956,492.0741,411.02173,492.1507,411.1622,492.1507C411.28992,492.1507,411.46872,492.2401,411.5581,492.3423C411.64752,492.44446,411.76245,492.53384,411.82632,492.53384C411.8774,492.53384,412.12006,492.6999,412.34995,492.917C412.57983,493.12134,412.83527,493.30014,412.9119,493.30014C413.1162,493.30014,413.49936,493.74713,413.38443,493.86206C413.33334,493.91315,413.42273,493.97702,413.576,494.0281C413.72925,494.0664,413.85696,494.14304,413.85696,494.2069C413.85696,494.27075,413.94635,494.32184,414.04852,494.32184C414.16348,494.32184,414.2784,494.41125,414.31674,494.51343C414.35504,494.6156,414.58493,494.81995,414.82758,494.97318C415.07025,495.11368,415.23627,495.29248,415.18518,495.35632C415.14688,495.42017,415.18518,495.47125,415.2618,495.47125C415.33844,495.47125,415.61942,495.66284,415.87485,495.9055C416.13028,496.14816,416.705,496.6079,417.15198,496.92722C417.5862,497.2465,417.94382,497.5658,417.94382,497.6424C417.94382,497.70627,417.9949,497.7701,418.05875,497.7701C418.13538,497.7701,418.32697,497.89783,418.50574,498.06384C418.67178,498.2299,419.1571,498.52362,419.56577,498.72797C420.31927,499.1111,420.52362,499.27716,420.42145,499.44318C420.3959,499.49426,420.48532,499.58365,420.63858,499.62198C420.91956,499.71136,421.64752,500.4138,421.64752,500.60538C421.64752,500.66922,421.7497,500.82248,421.8774,500.96295C421.99234,501.0907,422.20944,501.42273,422.34995,501.69092C422.60538,502.18903,423.02682,502.84036,423.38443,503.35123C423.49936,503.50446,423.80588,503.69604,424.0613,503.78546C424.31674,503.86206,424.58493,503.97702,424.6488,504.0281C424.72543,504.0792,425.0958,504.21967,425.47894,504.34738C425.86206,504.46234,426.37292,504.6539,426.6028,504.7433C426.8327,504.84546,427.2286,504.9221,427.4968,504.9221C427.75223,504.9221,428.0843,505.0115,428.212,505.11368C428.3525,505.21585,428.67178,505.30524,428.91443,505.30524C429.16986,505.30524,429.48914,505.39465,429.61685,505.49683C429.75735,505.599,430.0511,505.6884,430.28098,505.6884C430.49808,505.6884,430.85568,505.77777,431.04727,505.87994C431.2516,505.98212,431.59644,506.07153,431.81354,506.07153C432.01788,506.07153,432.26053,506.13538,432.33716,506.212C432.4138,506.28864,432.70755,506.40356,432.97574,506.46744C433.56323,506.59515,434.49554,506.82504,434.94254,506.95276C435.02216,506.97617,435.1035,506.98755,435.18402,506.98755C435.3231,506.98755,435.45978,506.95358,435.58112,506.8889L435.8876,506.72287L435.55557,506.71008C435.36398,506.71008,435.0447,506.6207,434.85312,506.51852C434.6488,506.41635,434.35504,506.32697,434.21457,506.32697C434.0613,506.32697,433.76758,506.23755,433.576,506.13538C433.37164,506.0332,433.03958,505.94382,432.82248,505.94382C432.61813,505.93103,432.29886,505.8544,432.12006,505.75226C431.94125,505.6501,431.67307,505.57343,431.53256,505.56067C431.3793,505.56067,431.08557,505.47125,430.894,505.36908C430.68967,505.26694,430.3959,505.17752,430.25543,505.17752C430.10217,505.17752,429.80844,505.08813,429.61685,504.98596C429.4125,504.8838,429.09323,504.79437,428.90167,504.79437C428.71008,504.79437,428.53128,504.7433,428.4802,504.67944C428.4419,504.6156,428.23755,504.52618,428.0332,504.4751C427.75223,504.41125,427.65005,504.32184,427.65005,504.13028C427.65005,503.82376,428.33972,503.15964,428.76117,503.05746C428.92722,503.0064,429.05493,502.92975,429.05493,502.87866C429.05493,502.81482,429.23373,502.7382,429.43805,502.6871C429.65518,502.63602,429.8212,502.54663,429.8212,502.48276C429.8212,502.4189,429.88507,502.36783,429.9617,502.36783C430.2171,502.36783,432.17114,501.3972,432.34995,501.19287C432.47766,501.02682,432.46487,500.96295,432.3116,500.83527C432.20944,500.74585,432.12006,500.5415,432.12006,500.38824C432.12006,500.22223,432.03064,499.9157,431.9285,499.6986C431.82632,499.48148,431.64752,499.1239,431.54535,498.90677C431.44318,498.68967,431.35376,498.43423,431.35376,498.34485C431.35376,498.25543,431.27713,498.0128,431.17496,497.80844C431.0728,497.61685,430.9323,497.31036,430.85568,497.13156C430.79184,496.95276,430.61304,496.54407,430.47253,496.212C430.31927,495.87994,430.20435,495.52234,430.20435,495.42017C430.20435,495.318,430.15326,495.20306,430.08942,495.16476C430.02554,495.12643,429.93616,494.93488,429.89783,494.7433C429.84674,494.53894,429.7318,494.2069,429.6424,494.00256C429.45084,493.59387,429.33588,493.30014,428.99106,492.40613C428.72287,491.67816,428.51852,491.19287,428.2631,490.61813C428.14816,490.3755,428.02045,490.01788,427.98212,489.81354C427.93103,489.62198,427.84164,489.46872,427.77777,489.46872C427.70114,489.46872,427.65005,489.23883,427.65005,488.95786L427.65005,488.44702L428.32697,488.44702C428.68454,488.43423,429.22095,488.3576,429.50192,488.25543C429.7829,488.15326,430.20435,488.06384,430.43423,488.06384C430.66412,488.06384,431.06003,487.97446,431.31546,487.87228C431.5581,487.7701,431.97958,487.68073,432.24777,487.68073C432.96295,487.68073,433.98468,486.8378,434.0613,486.18646C434.0996,485.91827,434.1124,485.6756,434.08685,485.6501C434.0828,485.64603,434.0383,485.64413,433.95908,485.64413C433.288,485.64413,430.12555,485.7812,427.94382,485.91827L427.26694,485.96936L427.26694,485.36908C427.26694,485.03705,427.35632,484.6028,427.4585,484.41125C427.56067,484.2069,427.65005,483.86206,427.65005,483.64496C427.65005,483.41507,427.73947,483.07025,427.84164,482.87866C427.94382,482.67432,428.0332,482.3295,428.0332,482.1124C428.0332,481.89526,428.12262,481.49936,428.2248,481.2567C428.32697,481.00128,428.41635,480.63092,428.41635,480.42657C428.41635,480.235,428.4802,480.00513,428.54407,479.94125C428.6207,479.86462,428.73563,479.5198,428.7995,479.175C428.86334,478.83014,429.00385,478.1788,429.10602,477.71902C429.2082,477.25928,429.36142,476.59515,429.43805,476.2503C429.51468,475.89273,429.62964,475.49683,429.69348,475.35632C429.75735,475.21585,429.84674,474.84546,429.89783,474.52618C429.93616,474.21967,430.02554,473.87485,430.08942,473.7599C430.1405,473.6577,430.2299,473.3001,430.2682,472.96808C430.30652,472.63602,430.3959,472.32953,430.47253,472.2912C430.5364,472.2401,430.5875,472.04852,430.5875,471.85696C430.5875,471.65262,430.67688,471.24396,430.77905,470.9502C430.88123,470.65643,430.97064,470.26056,430.97064,470.06897C430.97064,469.89017,431.06003,469.5709,431.1622,469.36655C431.26437,469.175,431.35376,468.8429,431.35376,468.63858C431.35376,468.42145,431.44318,468.0511,431.54535,467.79565C431.64752,467.553,431.7369,467.2082,431.7369,467.05493C431.7369,466.90167,431.82632,466.55682,431.9285,466.31418C432.03064,466.05875,432.12006,465.66284,432.12006,465.42017C432.12006,465.1903,432.20944,464.8838,432.3116,464.7433C432.4138,464.6156,432.5032,464.2963,432.5032,464.0409C432.5032,463.78546,432.5926,463.40228,432.69476,463.21075C432.79694,463.0064,432.88635,462.68713,432.88635,462.5083C432.88635,462.31677,432.97574,461.9591,433.0779,461.7165C433.18008,461.46106,433.26947,461.05237,433.26947,460.8097C433.26947,460.57983,433.3589,460.20947,433.46106,460.01788C433.56323,459.81354,433.65262,459.46875,433.65262,459.2644C433.6654,459.04724,433.74203,458.74072,433.8442,458.56195C433.94635,458.38318,434.02298,458.0,434.03577,457.7063C434.03577,457.41254,434.0996,457.13153,434.17624,457.08044C434.5083,456.8761,433.8825,456.77393,432.29886,456.77393L430.6258,456.77393L430.3959,456.0843C430.1811,455.46124,429.91202,455.17245,429.54312,455.17245C429.47345,455.17245,429.4002,455.18277,429.32312,455.20306C429.04214,455.2669,429.0294,455.35632,429.0166,456.3908C429.0166,456.71008,428.95276,457.00385,428.87613,457.05493C428.7995,457.10602,428.4291,457.1571,428.07153,457.1571C427.29248,457.1571,426.99872,457.3742,426.75607,458.1277C426.66666,458.4087,426.48788,458.83014,426.36017,459.0728C426.21967,459.31543,426.1175,459.58368,426.1175,459.67303C426.1175,459.76245,426.05365,459.8391,425.97702,459.8391C425.9004,459.8391,425.87485,459.94128,425.91315,460.06897C425.96423,460.22223,425.9004,460.401,425.73434,460.5415C425.59387,460.6692,425.51724,460.8097,425.5428,460.86078C425.58112,460.91187,425.51724,461.02686,425.41507,461.1162C425.3129,461.20563,425.2235,461.4355,425.2235,461.63983C425.2235,461.84418,425.17242,462.01025,425.0958,462.01025C425.03192,462.01025,424.96808,462.12518,424.96808,462.25287C424.96808,462.39337,424.917,462.54663,424.84036,462.58496C424.7765,462.62323,424.71265,462.75098,424.71265,462.85315C424.71265,462.95532,424.59772,463.28735,424.4572,463.56836C424.31674,463.86206,424.20178,464.19412,424.20178,464.30908C424.20178,464.424,424.08685,464.6411,423.9336,464.79437C423.79312,464.94763,423.7037,465.12643,423.74203,465.17752C423.78033,465.2414,423.7165,465.44574,423.61432,465.6373C423.5249,465.84164,423.43552,466.0843,423.43552,466.1737C423.43552,466.27588,423.32056,466.46744,423.18008,466.6079C423.03958,466.7484,422.96295,466.93997,423.00128,467.04214C423.03958,467.14432,422.96295,467.32312,422.82248,467.45084C422.682,467.5658,422.5926,467.75735,422.63092,467.87228C422.65646,468.0,422.5926,468.16602,422.49042,468.25543C422.3755,468.3576,422.28607,468.56195,422.28607,468.72797C422.28607,468.89398,422.17114,469.1494,422.04343,469.27716C421.90295,469.41763,421.82632,469.54535,421.85187,469.5709C421.8774,469.6092,421.788,469.86462,421.64752,470.17114C421.49426,470.4649,421.40485,470.74585,421.44318,470.8097C421.48148,470.86078,421.3921,471.00128,421.2516,471.129C421.09836,471.2567,421.02173,471.4355,421.06003,471.56323C421.1111,471.69092,421.00894,471.92084,420.81738,472.12518C420.63858,472.31674,420.5364,472.54663,420.5747,472.6488C420.61304,472.75098,420.54916,472.92975,420.43423,473.0447C420.31927,473.15967,420.2682,473.3129,420.30652,473.38953C420.3576,473.45337,420.29373,473.6322,420.16605,473.77267C420.03833,473.91315,419.93616,474.14304,419.92337,474.27075C419.9106,474.41125,419.79565,474.62836,419.68073,474.76886C419.553,474.90933,419.48914,475.08813,419.54022,475.16476C419.5913,475.2414,419.51468,475.42017,419.36142,475.56067C419.2082,475.70117,419.11877,475.8672,419.1571,475.94382C419.2082,476.00766,419.1954,476.13538,419.13156,476.212C419.08047,476.3014,419.0294,476.40356,419.0166,476.4419C419.00385,476.5313,418.6207,477.39975,418.32697,478.03833C418.19925,478.31927,417.98212,478.86847,417.8672,479.2516C417.73947,479.63474,417.50958,480.1839,417.34357,480.46487C417.1903,480.74585,417.0498,481.0779,417.0498,481.20563C417.0498,481.38443,416.6922,482.17624,416.4368,482.57217C416.3857,482.6488,413.95914,482.81482,412.26053,482.8659C409.9489,482.94254,405.8493,483.21072,405.12134,483.32568C404.6999,483.4023,404.30396,483.51724,404.22736,483.59387C404.14435,483.67688,403.99744,483.71838,403.87134,483.71838C403.7452,483.71838,403.63983,483.67688,403.63983,483.59387C403.63983,483.51724,403.576,483.46616,403.49936,483.46616C403.40997,483.46616,403.18008,483.28735,402.97574,483.083C402.78418,482.8659,402.56705,482.6999,402.49042,482.6999C402.42657,482.6999,402.3244,482.62323,402.27332,482.5211C401.97955,482.01022,400.2299,480.1328,399.52747,479.58365C399.25928,479.37933,399.04214,479.1239,399.04214,479.0345C399.04214,478.94507,398.97827,478.86847,398.90167,478.86847C398.71008,478.86847,398.23755,478.31927,397.9438,477.7701C397.8161,477.54022,397.61176,477.32312,397.48404,477.29758C397.35632,477.25928,397.21582,477.13153,397.16473,476.99106C397.06256,476.73563,396.89655,476.51852,396.6411,476.27588C396.2963,475.98212,395.9004,475.57343,395.19794,474.80716C394.55676,474.1277,394.0088,473.78525,393.53253,473.78525C393.37323,473.78525,393.22195,473.82355,393.0779,473.9004C392.8991,474.00256,392.51596,474.36017,392.24777,474.6922L391.76245,475.318L392.01788,475.6756C392.1584,475.8672,392.27332,476.12262,392.27332,476.212C392.27332,476.31418,392.31165,476.4419,392.36273,476.49298C392.41382,476.54407,392.46487,476.67178,392.46487,476.77396C392.46487,476.99106,392.8097,477.4253,393.65262,478.29376C393.95914,478.61304,394.17627,478.91956,394.12518,478.9834C394.08685,479.06003,394.26566,479.2516,394.54663,479.41763C394.81482,479.59644,395.17242,479.94125,395.33844,480.1839C395.51724,480.43933,395.78546,480.70755,395.95148,480.7714C396.10474,480.84802,396.2835,481.01404,396.32184,481.129C396.50064,481.58878,397.4074,482.5083,398.59515,483.4406C399.00385,483.7599,399.4253,484.33463,399.4253,484.5645C399.4253,484.84546,398.9655,484.9221,396.424,484.99872C391.5581,485.16476,386.96042,485.38187,385.32568,485.52234C384.43167,485.599,382.27332,485.71393,380.5364,485.77777C378.81226,485.84164,375.87485,485.98212,374.01022,486.0843C372.1456,486.18646,369.13153,486.32697,367.30524,486.3908C365.47894,486.46744,363.61432,486.5824,363.15454,486.64624C362.69476,486.72287,361.2005,486.81226,359.83398,486.8378C358.46744,486.87613,356.94763,486.9655,356.44955,487.0294C355.96423,487.10602,354.08685,487.22095,352.29886,487.29758C350.51086,487.3742,347.77777,487.48914,346.23242,487.553C344.6871,487.61685,343.0779,487.7318,342.65643,487.79565C342.235,487.87228,340.5364,487.93616,338.8761,487.9617C338.2122,487.96912,337.6842,487.97745,337.26065,487.97745C335.4924,487.97745,335.54376,487.83185,335.12134,486.86334C334.7765,486.07153,333.81866,484.99872,333.46106,484.99872C333.3333,484.99872,333.129,484.9221,333.02682,484.81995C332.91187,484.73053,332.38824,484.424,331.86462,484.15582C331.341,483.9004,330.60025,483.47894,330.2299,483.24905C329.8595,483.01917,329.52747,482.82758,329.47638,482.82758C329.34866,482.82758,328.23755,482.2784,328.0332,482.0996C327.71393,481.85696,326.3346,481.1673,326.1175,481.1673C326.01532,481.1673,325.38953,480.84802,324.7254,480.46487C324.0741,480.08173,323.48657,479.76245,323.4355,479.76245C323.3844,479.76245,323.19287,479.62198,323.00128,479.44318C322.8097,479.26437,322.51596,479.1239,322.33716,479.1239C322.17114,479.1239,322.03064,479.06003,322.03064,478.99615C322.03064,478.91956,321.92847,478.86847,321.80078,478.86847C321.66028,478.86847,321.35376,478.66412,321.09833,478.42145C320.8429,478.1788,320.5747,477.97446,320.51086,477.97446C320.43423,477.97446,320.15326,477.85953,319.88507,477.71902C319.3742,477.45084,319.31036,477.45084,313.98468,477.25928C312.8991,477.22095,311.66028,477.16986,311.23883,477.16986L310.47253,477.14432L310.33206,476.37805C310.20435,475.6245,309.96167,475.11368,309.48914,474.57727C309.36536,474.4358,309.20078,474.36505,309.00793,474.36505C308.78293,474.36505,308.5195,474.46133,308.23755,474.6539C308.05875,474.76886,307.82886,474.90933,307.72668,474.96042C307.6245,475.0115,307.39465,475.12643,307.21582,475.2286C307.07794,475.3101,306.99542,475.3516,306.93356,475.3516C306.86935,475.3516,306.8274,475.30692,306.76886,475.21585C306.705,475.11368,306.46234,474.81995,306.23242,474.57727C305.9898,474.30908,305.77267,473.9004,305.7216,473.59387L305.60663,473.0575L303.3844,473.0958C302.1584,473.10858,300.20435,473.18518,299.04214,473.24905C298.0,473.31778,296.32117,473.36594,295.10147,473.36594C294.96094,473.36594,294.82654,473.3653,294.6999,473.36398C294.53717,473.36273,294.3829,473.3621,294.2364,473.3621C292.8765,473.3621,292.18442,473.41718,291.59644,473.55554C291.1111,473.6705,290.45978,473.7599,290.12772,473.7599C289.79565,473.77267,289.27203,473.82376,288.95276,473.88763C288.63348,473.95148,287.73947,474.0664,286.94763,474.14304C286.16858,474.2069,285.45337,474.2963,285.3512,474.33463C285.33737,474.34055,285.3226,474.3434,285.30728,474.3434C285.2235,474.3434,285.12225,474.25784,285.0575,474.1175C284.98083,473.93872,284.80206,473.81097,284.61047,473.78546C283.7931,473.69604,283.7037,473.64496,283.7165,473.21075C283.7165,472.99362,283.67816,471.7037,283.63983,470.3755C283.56323,468.2171,283.576,467.92337,283.76758,467.77014C283.82663,467.72418,283.87897,467.66138,283.9159,467.5973L283.91302,467.5973Q348.38666,450.52673,366.6014,445.22488Q371.5321,443.82138,376.5133,442.33636L376.50955,442.33636C377.9367,441.98996,380.01044,441.43576,381.7369,440.93744C383.576,440.41382,383.9336,440.31165,384.53384,440.1584C384.80206,440.09448,385.1341,439.97955,385.2746,439.90295C385.50446,439.7752,387.66284,439.1239,388.5696,438.89398C388.81226,438.8429,389.7701,438.5492,390.67688,438.2682C391.59644,437.98724,392.45212,437.74457,392.60535,437.74457C392.74585,437.74457,392.91187,437.7063,392.96295,437.65515C393.01404,437.60413,393.6654,437.43805,394.41888,437.2848C395.17242,437.1443,396.50064,436.7995,397.38187,436.5313C398.2631,436.27588,399.2082,436.0077,399.48914,435.93103C399.75732,435.8672,400.0511,435.765,400.12772,435.71393C400.1916,435.6501,400.52362,435.56067,400.85568,435.52234C401.18774,435.47125,401.49426,435.38184,401.5326,435.3308C401.5581,435.2669,401.83908,435.1903,402.1328,435.13922C402.42657,435.08813,402.7331,435.01147,402.8097,434.94763C402.87357,434.89655,403.18008,434.78162,403.48657,434.6922C403.92084,434.5645,404.023,434.48785,404.023,434.23242C404.023,434.0664,403.9336,433.8493,403.83142,433.73438C403.72925,433.6322,403.63983,433.4406,403.63983,433.3001C403.63983,433.03696,402.97592,432.39264,402.72168,432.39264 Z"/> </g> </g> </svg>