<?xml version="1.0" encoding="UTF-8"?>
<svg id="Layer_2" data-name="Layer 2" xmlns="http://www.w3.org/2000/svg" xmlns:xlink="http://www.w3.org/1999/xlink" viewBox="0 0 145.2 365.37">
  <defs>
    <style>
      .cls-1, .cls-2, .cls-3 {
        stroke-width: 0px;
      }

      .cls-1, .cls-4 {
        fill: #000;
      }

      .cls-2 {
        fill: none;
      }

      .cls-4 {
        stroke: #000;
        stroke-miterlimit: 3.32;
        stroke-width: .83px;
      }

      .cls-3 {
        fill: url(#a);
      }
    </style>
    <pattern id="a" x="0" y="0" width="30.07" height="5.18" patternTransform="translate(3343.11 -15521.33) scale(1.11 -.91)" patternUnits="userSpaceOnUse" viewBox="0 0 30.07 5.18">
      <g>
        <rect class="cls-2" width="30.07" height="5.18"/>
        <path class="cls-1" d="M7.6,5.12c-2.52.25-4.94-.24-7.61-1.73v-1.27c2.78,1.63,5.18,2.01,7.48,1.78s4.5-1.08,6.78-1.94c4.57-1.71,9.55-3.46,15.81.16v1.27c-6.44-3.71-10.82-1.98-15.38-.27-2.28.85-4.58,1.75-7.09,2Z"/>
      </g>
    </pattern>
  </defs>
  <g id="Layer_1-2" data-name="Layer 1">
    <g>
      <path class="cls-4" d="M63.14,364.85l18.8.11s6.75-9.68-.11-14.07l.56-83.4-3.38-3.6-12.63.38-3.49,3.49.02,84.26s-5.97,1.8.23,12.83h0Z"/>
      <path class="cls-1" d="M72.59,0C32.49,0,0,42.69,0,95.38s32.49,95.41,72.59,95.41,72.61-42.72,72.61-95.41S112.68,0,72.59,0ZM72.59,11.76c34.64,0,62.72,37.44,62.72,83.63s-28.08,83.63-62.72,83.63S9.87,141.57,9.87,95.39,37.95,11.76,72.59,11.76Z"/>
      <path class="cls-3" d="M135.25,95.39c0,46.18-28.08,83.62-62.72,83.62S9.81,141.57,9.81,95.39,37.89,11.77,72.53,11.77s62.72,37.44,62.72,83.62Z"/>
      <path class="cls-1" d="M15.32,129.72c-5.37.13-9.92-.16-10.16.11-.82.91,24.98,57.81,25.53,58.97.81,1.69,40.61,85.12,42.16,85.7,1.07.4,26.91-58.22,27.47-59.38.81-1.69,40.13-83.38,39.78-85.28-.06-.34-4.79-.06-10.23-.21-11.61,24.77-28.99,62.78-29.55,63.94-.56,1.17-27.52,58.22-28.58,57.82-1.55-.58-40.23-82.45-41.04-84.14-.33-.7-7.58-20.92-15.37-37.52h0Z"/>
    </g>
  </g>
</svg>