<?xml version='1.0' encoding='utf-8'?>
<svg xmlns="http://www.w3.org/2000/svg" enable-background="new 0 0 4642.5439 8452.1289" version="1.1" viewBox="0 0 4642.5 8452.1"> <path d="m4417.1 8077.9c-1.0557-1.9731-5.959-2.9048-8.1318-3.4521-0.8613-84.135-0.7666-94.089-2.2969-95.78-0.8789-0.9712-1.333-3.0654-1.333-6.1538 0-6.8257-1.251-7.9146-10.104-8.791-10.364-1.0264-577.22 0.6377-726.67 0.9761 0-166.8 0.1748-189.32-1.2363-191.19-0.8467-1.1201-1.2441-3.8047-1.2627-8.5215-0.0303-7.7632-0.7129-9-5.459-9.8901-1.6436-0.3086-2.9961-0.8271-3.0049-1.1538-1.0137-36.586-0.7891-92.954-2.9199-95.309-0.8418-0.9307-1.2734-3.1372-1.2734-6.5107 0-7.2163-1.1445-8.292-10.028-9.4326-8.9189-1.144-175.83-0.9087-314.99-0.9087 0-4.623-0.3291-5.0522 2.4971-5.0522 3.0166 0 3.4697-0.7534 7.3008-12.128 9.6641-28.698 8.7256-58.233-2.7998-88.073-2.2744-5.8882-2.6221-6.3335-5.1396-6.5791-2.6387-0.2583-2.7002-0.3584-2.7002-4.4209 0-3.1338 0.3115-4.1567 1.2637-4.1567 2.582 0-0.0586-12.785 2.5254-13.776 1.0459-0.4014 1.2637-2.6685 1.2637-13.142 0-7.8765 0.3174-12.657 0.8418-12.657 1.1748 0 0.3691-3.1318 2.041-7.1348 1.3828-3.3086 2.8525-3.3159 8.0635-4.7192v-9.7871l-13.894-4.145c-0.0469-7.9399-0.7949-135.1-0.8418-143.04-7.9033 0.3677-7.1611 0.0947-12.71 5.4731h-42.792l-6.3857-6.2363c0-16.128 0.2534-16.815-1.8945-18.78-1.042-0.9536-9.0938-6.4883-17.893-12.301-19.553-12.916-23.998-17.856-23.998-26.671 0-3.0659-1.647-5.8994-3.4282-5.8994-0.4297 0-0.7822-3.0308-0.7822-6.7363 0-6.0273 0.1665-6.7363 1.5806-6.7363 1.9399 0 3.5747-3.6816 8.7856-19.788 6.1108-18.891 7.6958-29.896 7.7041-53.468 0.0073-23.092-1.0444-29.736-8.0347-50.757-4.6792-14.071-7.7988-20.814-9.6284-20.814-0.9731 0-1.249-1.186-1.249-5.3755 0-4.5537 0.2422-5.4375 1.5845-5.7886 1.9453-0.5083 5.46-9.3857 4.7837-12.081-1.1118-4.4302 27.46-26.5 26.627-39.907-0.792-12.77-0.1396-78.491-2.2666-80.841-1.4175-1.5659-1.3145-11.353-1.6787-56.659l-62.73-38.673v-17.408c-5.5801-4.1328-6.2637-4.5176-15.156-9.7417 0-36.877 0.2349-40.409-1.4736-42.377-1.8848-2.1699-37.023-24.096-41.817-27.116 11.977 0 11.476 2.7485 10.778-22.601-0.4072-14.799-0.8384-20.257-1.6768-21.226-1.8057-2.0854-2.8569-82.715-2.8613-84.764-9.4263-4.3184-6.0942-2.792-15.156-6.9429 0.0024-17.051-5.5684-250.65-6.4917-277.82 7.1563-0.5234 6.8423 0.1074 7.3667-4.4536 0.6626-5.7622 4.8408-9.5801 11.755-10.742l2.9473-0.4956v-24.257c-7.3623-3.1035-13.688-5.77-21.051-8.8735-0.7324-9.2744-0.7725 10.679-5.4458-253.97-4.79-271.33-5.5122-257.24-3.5908-257.24 1.7998 0 5.2476-3.3101 5.2476-5.0381 0-0.7568 3.0649-4.1572 6.811-7.5566 6.7432-6.1182 6.8081-6.2163 6.52-9.8442-0.2017-2.5356 0.0347-3.6641 0.7671-3.6641 1.2754 0 1.0586-8.1572 1.0586-22.793-7.6567-3.604-14.236-6.7007-21.893-10.305v-50.967c5.8892-3.6401 5.894-2.9473 5.894-8.5649 0-5.5337-0.3887-5.2285-4.5063-8.4673 3.6533-2.5601 9.1577-7.0786 15.234-12.067 15.208-12.486 24.478-22.316 28.362-30.081 4.499-8.9927 3.1177-10.724 0.4419-15.897 9.0317 0 14.728 0.3521 16.403-1.3232 2.5103-2.5098 0.3999-59.124 2.2275-67.647 2.3188-10.814 7.7695-7.8384 12.357-10.715l1.8945-1.1875c0-224.83-0.0347-131.5-2.9473-187.31-4.8501-0.2402-19.395-0.769-23.577-1.9531-4.7476-1.3447-13.726-1.2192-18.601 0.2598-5.1108 1.5508-16.334 1.2666-22.237 1.2725 0 5.6196 0.3643 15.181-1.2632 19.075-1.0259 2.4897-1.4585 5.1841-1.2632 7.8696h-80.987c0.8418-59.28 1.0298-87.569 2.7388-87.569 0.4302 0 0.7822-1.6787 0.7822-3.729 0-3.875 1.2236-5.8486 4.2148-6.7979 1.9229-0.6099 1.6768-2.1245 1.6768-8.4185-6.0811-3.1743-3.5151-1.835-9.6787-5.0522-0.2217-30.047-0.8296-117.84-1.0669-118.09-0.1387-0.1494-8.9165-0.2104-47.349-0.2104v-55.574h2.0171c2.4473 0 7.2451-6.8901 7.2451-10.405 0-3.021 3.3506-8.2036 9.6289-14.894 6.5498-6.98 8.4312-10.764 8.4556-17.011 0.0303-7.6924 1.4341-3.1353 3.5767-5.897 1.1265-1.4507 11.178-28.878 11.178-30.5 0-2.0298 0.0015-1.7378-66.52-36.896 0-23.682 0.2773-143.74-0.8062-146.59-0.9258-2.4346-1.5244-2.1519-12.148-2.6201-7.4502-20.894-8.083-24.154-19.121-35.07-6.481-6.4102-7.8823-7.3945-11.684-8.21-1.9189-0.4424-3.8662-0.752-5.8281-0.9263-1.3867 0-1.5527-1.4775-2.061-18.314-1.228-40.674 1.4834-19.243-7.6895-121.99-10.835-121.37-16.484-212.42-19.728-289.11 3.3701-3.436 6.2822-6.7773 18.44-16.411 23.292-18.456 23.042-19.996 28.033-29.361-0.502-11.907-0.7813-22.23-3.646-60.77-3.7197-50.043-3.7314-81.237-7.9155-127.57-2.3936-26.502-6.3672-81.112-6.3672-87.508 0-1.144 0.8408-1.7031 3.1577-2.1001 5.3721-0.9209 9.2783-3.0386 10.342-5.606 1.2427-3 0.9395-5.8179-2.7583-25.616-4.6997-25.166-4.5381-22.994-1.7573-23.664 7.8374-1.8892 18.854-9.7744 21.812-15.612 6.749-13.32-5.6147-38.276-1.7461-124.8l4.21-0.9595c6.2144-1.416 16.659-7.5063 20.821-12.141 11.298-12.579 7.1216-26.657-4.4268-120.06-12.454-100.72-14.745-93.046-10.341-93.046 1.2319 0.04 2.4443-0.314 3.4614-1.0103 1.2681-1.2676 1.3267-22.512 0.1572-56.824-1.522-44.655-8.5381-85.308-20.219-196.03-6.6851-63.374-7.6079-57.597-26.32-195.6 4.3921-4.4785 8.1665-8.3267 12.559-12.806 27.129 0 51.48-6.9116 65.756-14.771 7.7075-4.2432 9.2788-5.5459 16.02-13.281 6.2915-7.2188 8.626-10.802 14.752-22.639 9.2861-17.945 8.4668-18.668 19.582-55.825 8.8633-29.63 7.9434-29.253 15.141-70.309 6.0884-34.73 6.0586-40.226 7.2861-57.612 45.705-79.718 40.992-74.585 50.661-74.585 4.5566-0.3428 9.0898-0.9453 13.578-1.8037 12.248-2.1772 20.497-5.9922 38.689-17.894 10.738-7.0259 12.958-8.9341 23.24-19.969 27.588-29.611 34.39-38.278 57.616-73.424 11.58-17.522 15.398-22.66 18.581-25.001 4.2876-3.1543 15.367-16.164 21.687-25.465 4.541-6.6836 6.811-14.542 9.2622-21.9-2.3315-6.1377-4.2568-12.452-13.492-27.562-13.114-21.458-12.34-19.907-22.81-30.748 2.1577-3.3706 55.46-86.02 55.46-88.5 0-2.3184-7.6318-8.4712-15.177-14.992 24.339-24.462 31.363-31.146 31.036-33.443-0.3232-2.2681-60.005-44.859-236.89-171.89-39.535-19.248-43.254-21.525-45.03-17.252-1.2002 2.8877-7.375 38.02-7.8403 39.516-0.0977 0.3149-4.5352-1.5151-9.8613-4.0664-7.4712-3.5801-10.113-4.4795-11.565-3.9409-3.4795 1.291-75.127 123.21-77.363 123.21-0.127 0-2.1724-2.0527-4.5454-4.562-7.3477-7.769-10.824-7.2261-14.564-7.2261 0.5337-8.8555 1.4399-22.133 1.4839-35.509 0.0366-11.133-0.0313-11.586-2.0674-13.797-4.0278-4.3726-10.218-6.3477-22.635-7.2227-6.2031-0.437-12.079-1.2217-13.057-1.7432-3.3906-1.8101-19.075-17.125-24.831-24.247-7.9492-9.835-14.19-20.747-24.672-35.839-7.5737-10.903-16.106-27.986-21.626-38.68-6.7124-57.96-19.225-107.68-33.397-144-12.564-32.193-8.2202-29.06-18.801-44.853-13.814-20.618-15.554-12.648-21.604-27.972-4.6816-11.859-13.56-27.527-18.273-32.248-3.3457-3.3516-4.0361-4.5713-4.0532-7.1572-0.0542-8.4399-4.1592-15.092-11.341-18.38-2.3579-1.0801-9.0078-2.75-14.777-3.7139-14.629-2.4414-18.431-3.6201-29.099-9.0234-15.482-7.8418-5.5874-4.2119-19.887-19.154 3.2397-10.006 6.9688-18.682 1.9487-22.256-5.7729-4.1104-9.208-0.6992-20.856 8.0771l-9.8032-26.17c-14.628-39.048-39.31-110.25-39.31-113.4 0-0.4409 0.9565-1.2378 2.1255-1.7705 1.6167-0.9814 2.9639-2.3496 3.9199-3.9814 2.7295-4.584 6.7227-7.4751 8.6699-12.275 0.8589-2.019 2.2524-3.7661 4.0303-5.0522 4.1201-2.4424 6.6084-6.9131 6.5127-11.702-0.0049-8.4824-26.942-119.85-26.942-130.38 0-1.4961 19.367-9.2598 19.367-17.799 0-6.5698-11.252-29.68-14.848-42.62-2.3369-8.4102-5.8589-17.159-7.9463-22.551 6.6885-16.807 10.964-27 13.162-39.57 1.3037-7.457 1.7539-8.6992 3.2573-8.9912 5.9771-1.1597 254.95-14.458 257.51-17.446 1.8477-2.1621 1.9351-7.6924 0.1499-9.4775-1.8945-1.8945 14.933 0.2129-260.1-21.152-2.7251-19.172-4.1592-19.681-3.5171-20.323 0.6182-0.6182 227.61-73.354 235.05-75.741-0.0562-4.4521 0.3862-10.41-4.0825-10.41-2.354 0-246.72 42.165-252.34 43.132-6.8013-6.4453-15.477-15.077-27.394-22.29-2.4888-1.5063-4.4414-2.9868-4.3403-3.29s32.392-28.473 71.756-62.599c77.652-67.317 73.677-63.582 73.677-66.231 0-2.144-4.9199-7.4468-6.9087-7.4468-1.2729 0-188.92 108.87-193.07 112.02-0.4634 0.3506-6.7095-1.0176-13.88-3.0415-21.773-6.145-45.759-7.1157-48.823-8.7041-2.4946-1.293-21.981-171.14-24.481-172.72-1.9458-1.23-8.0581-0.9479-9.1978 0.4253-1.3477 1.624-24.935 166.65-25.803 172.65-21.147 1.9468-40.696 4.2456-62.161 10.946-5.1924 1.6206-9.9065 2.9468-10.476 2.9468-1.502 0-188.09-107.78-190.8-107.78-2.1582 0-4.4468 2.8989-5.1533 6.5293-0.5752 2.9556-4.5693-0.8569 71.223 67.989 31.081 28.233 61.163 55.52 66.538 60.676-17.624 11.806-19.247 12.542-34.962 27.008-141.78 4.96-151.29 5.2222-173.88 6.4487 0-25.113 0.9146-38.602-9.7456-113.36-4.3638-30.604-5.229-35.06-13.488-69.467-13.878-57.818-28.356-113-30.599-127.28-5.1475-32.777-8.7432-59.67-10.936-81.806-2.3818-24.038-2.4434-25.733-1.6475-45.469 3.7554-93.123 25.401-128.21-12.5-205.02-7.0664-14.321-14.436-24.318-20.528-27.847-4.562-2.6426-14.668-12.92-18.438-16.626 0.0166-7.814 0.2783-40.874 2.5723-49.518 0.8735-3.9297 3.6045-7.189 7.3213-8.7368 4.3901-1.8696 1.2266-2.5435 4.5161-9.3394 1.4575-3.0112 1.6899-4.6206 1.2837-8.8965-0.9624-10.127-1.4058-11.588-3.7939-12.495-1.978-0.7529-2.0581-0.9321-0.7427-1.668 2.2017-1.2324 2.0908-8.3154-0.1396-8.8984-4.6748-1.2227-1.4907-9.6455 5.6011-14.814 19.925-14.522 44.903-12.037 46.752-15.339 1.3853-2.4746 32.366-0.168 34.112-2.3169 1.0811-1.3306 4.7822-14.206 5.5059-16.63 8.4678 0 8.7739 0.3569 10.243-2.4844 1.7188-3.3232 1.6187-5.2842-0.3989-7.8501-0.8062-0.9248-1.3833-2.0273-1.6841-3.2168 0-1.4502-3.3857-4.9741-4.7778-4.9741-0.6143 0-1.1167-0.3296-1.1167-0.7339 0-2.5117-14.132-18.504-13.682-29.276 0.4321-10.332-4.3008 1.8105-1.3882-23.735 0.7549-6.6211 1.4629-9.1123 3.7891-13.332 1.5732-2.8535 2.8608-5.7158 2.8608-6.3599 0-1.6514 5.6504-6.2744 6.835-8.4487 1.2417-2.2798-0.5464-4.8413-3.3789-4.8413-2.5713 0-8.0391 3.2554-10.384 6.1831-1.3896 1.7349-1.4561 1-1.4736-16.408-0.0161-15.78 0.1582-18.292 1.3008-18.73 1.6426-0.6299 0.999-3.2935 0.7856-5.147-10.63-0.0532-76.801-0.3833-87.361-0.436 0.6812-17.793 0.4214-18.84 2.9053-22.332 1.2798-1.7988 1.9912-3.7153 1.7378-4.6836-0.4912-1.8789-4.1025-4.9663-5.8081-4.9663-0.6943 0-1.1504-0.9219-1.1504-2.3267 0-1.8901 1.1621-3.2363 6.1914-7.1763 15.574-12.199 29.011-28.701 27.752-48.36-0.521-8.1357-0.1406-9.439 5.1978-17.821 3.7207-5.7607 5.1899-12.69 4.1274-19.464-1.209-8.8623 1.1787-7.2817 1.2974-22.314 0.1318-16.503 1.3462-20.762 10.561-37.049 7.5991-13.431 9.7686-23.213 7.9185-35.701-1.5054-10.161-1.2915-12.434 1.8364-19.52 7.4521-16.883-1.8247-20.36 0.1289-23.851 1.1201-2 0.2188-3.8672-1.8662-3.8672-6.6982 0-18.682 11.602-22.787 22.062-4.0366 10.285-12.519 11.859-28.149 24.16l-1.6836-1.9971c-2.7979-3.3179-9.7021-8.8594-11.038-8.8594-1.6074 0-2.1191 2.8926-7.3735 10.685-3.8335 5.686-4.3369 6.1089-8.2671 6.9517-1.9478 0.3809-3.8535 0.9517-5.6904 1.7036-1.2583 0.6733-1.7568 0.2485-3.0337-2.5825-0.8398-1.8633-2.1929-3.7437-3.0054-4.1787-1.8955-1.0146-14.81-1.0361-15.435-0.0254-0.2598 0.4209 0.0449 2.7871 0.6768 5.2583 2.2773 8.897-1.7075 9.5571-7.4629 19.658-4.3975 7.7178-9.2129 12.504-19.492 19.377-19.951 13.339-28.626 19.723-32.807 24.144-1.7456 1.7168-3.3042 3.6138-4.6489 5.6597-0.3213 0.9634-0.6753 0.9668-2.1875 0.0225-1.5181-0.9478-2.1646-0.9341-4.0752 0.0884-3.4341 1.8379-4.8535 4.6655-5.5322 11.018-0.9305 8.7021-5.1771 14.779-7.4672 22.208-1.3071 4.2402-8.7368 21.151-10.516 25.261 0.1538 20.567-0.4502 29.991 12.321 46.994 5.1152 6.8101 6.1532 9.8418 3.3701 9.8418-2.0244 0-5.7573 2.9375-6.4316 5.061-0.3364 1.061 0.2075 2.6304 1.5269 4.3989 3.4971 4.6904 3.3496 8.231 4.0684 22.522-10.722 0.0532-77.459 0.3833-88.111 0.436-0.2148 1.8701-0.8638 4.5142 0.7856 5.147 1.5034 0.5767 1.3193 4.8633 1.3193 36.748l-3.7129-3.4229c-3.5952-3.3135-8.582-5.1963-10.546-3.9824-1.9395 1.1992-0.8589 4.939 2.4712 8.5513 4.8926 5.3076 1.7197 3.5728 6.167 10.623 2.5195 3.9946 2.937 5.5883 4.1924 16.005 2.7529 22.845-2.1758 10.477-1.7314 21.102 0.4561 10.906-13.68 26.741-13.68 29.327 0 0.4033-0.4497 0.7339-0.9985 0.7339-1.4272 0-4.8955 3.4399-4.8955 4.8555-0.2803 1.2329-0.8589 2.3779-1.6846 3.3354-2.0176 2.5649-2.1172 4.5259-0.3989 7.8496 1.4634 2.8301 1.75 2.4844 10.244 2.4844 0.8335 2.792 4.4248 15.299 5.5059 16.63 1.6973 2.0903 34.329-0.0669 34.329 2.2412 0 1.1943 1.4175 1.5376 10.946 2.6504 20.679 2.4155 40.219 12.367 42.827 21.81 1.5947 5.7769-0.9282 7.5464-3.624 2.541-1.5996-2.499-3.5127-4.7832-5.6924-6.7959-10.254-9.5923-23.407-10.375-32.964-1.9624-7.5625 6.6563-5.4863 11.19-4.019 27.856 0.8799 9.9819 2.9233 14.68 12.528 28.788 21.57 31.684 44.748 45.175 42.476 45.175-2.7388 0-22.542-5.8574-32.077-2.042-3.6157 1.4468-7.1875 5.8574-8.5278 10.53-1.0933 3.812-1.0508 16.054 0.0659 19.033 1.3257 3.5381 9.7725 11.713 15.681 15.177l5.2021 3.0503c-1.9463 1.8218-4.2139 3.4385-7.3877 10.094-3.1436 6.5938-2.8984 8.5488-3.6201 21.203 5.2144 6.7627 8.6045 10.68 8.5928 15.998-0.0107 4.6885-2.0371 10.885-5.0449 15.425-10.602 16.007 0.9697 28.865 9.8525 54.463 3.4014 9.7998 11.029 27.435 14.75 34.102 2.9463 4.9316 6.2421 9.646 9.8612 14.107 0.9697 31.264 1.2559 33.051-0.5024 36.414-0.7769 1.5513-1.9653 2.8584-3.4351 3.7783-1.708 0.75-1.895 1.4189-1.895 6.7783 0 3.2715 0.4165 6.3638 0.9258 6.873 1.4854 1.4854 0.1143 4.0913-3.0482 5.7949l-2.9292 1.5771c0 19.449-0.312 18.874 2.105 19.48 2.3491 0.5903 2.5684 1.311 1.1074 3.6504-0.7109 1.1377-0.771 2.7671-0.21 5.6714 0.7822 4.0527 0.8066 4.0762 4.1552 4.1182 4.0356 0.0508 7.5078 2.1499 8.7012 5.2612 1.7002 4.4292 0.519 19.439 2.8545 24.588 2.8408 6.2646 0.0854 10.361 7.6729 21.37 1.6392 2.3784 1.6611 3.4564 1.1084 55.153-1.0264 96.022-6.6514 128.69-0.9111 175.55 3.6963 30.18 9.8584 71.277 12.578 83.89 4.3545 20.177 4.0796 30.018 14.312 57.646 6.502 17.555 9.3945 24.184 14.117 95.422-33.099 45.2-27.02 41.716-55.994 98.153-21.441 41.762-27.803 68.205-35.07 84.23-8.3086 18.323-9.7036 35.896-13.826 51.036-3.3198 12.192-2.6641 5.2158-2.4966 31.996 0.3047 48.743 4.207 41.494 5.6802 60.001 0.9316 11.701 3.8755 12.57 8.0356 31.602 3.2397 15.217 7.5815 30.177 12.99 44.764 4.54 12.646 6.3555 16.52 11.073 23.628 8.7396 13.17 16.556 17.726 30.848 17.978 3.585 0.0625 6.5259 0.1309 6.5259 0.1499 0.062 0.293-11.781 26.643-11.781 38.086-0.0615 2.6738-0.5044 5.3252-1.3154 7.8735-1.7935 5.022-2.4438 13.905-1.3213 18.039 1.9941 7.3423 10.219 11.156 21.731 10.077 6.0239-0.5645 6.0605-0.5552 7.3037 1.8149 1.8447 3.5156 7.1318 7.2017 10.877 13.75 4.1289 7.2188 27.405 28.997 31.575 36.285 2.8521 4.9849 9.1187 25.324 9.9644 32.339 0.7534 6.2554-3.3042 17.014-12.703 33.681-6.9248 12.279-9.4258 21.336-8.4385 30.556 0.6899 6.439 3.4976 10.201 8.96 12.003 3.5957 1.187 8.3066 4.5342 8.3066 5.9028 0 1.0532-4.7612 7.6606-5.4775 10.921-1.502 6.8389 4.7529 12.936 8.8545 17.498-6.2178 10.783-6.3169 11.71-11.68 14.426-9.7837 4.9551-11.802 17.246-17.984 36.215-2.4771 7.6016-2.5498 8.2266-1.646 14.042 1.396 8.9775 7.5933 18.275 17.899 26.852 14.083 11.722 14.238 9.2461 14.257 14.203 0.0342 8.8247 4.3062 18.419 9.792 21.991 1.6973 1.105 4.127 4.5791 7.0674 10.104 7.1104 13.362 11.507 18.622 22.489 26.902 4.7871 3.6094 4.7798 3.5923 5.7168 14.778 1.4746 17.606 10.359 49.408 18.155 64.983 5.207 10.403 13.5 24.79 21.861 35.03-3.9727 40.315-3.1011 44.602-4.2153 49.896-0.8213 3.9038-15.579 25.146-27.478 39.551-12.03 14.564-34.934 48.738-44.298 66.094-11.885 22.029-24.018 51.084-29.319 70.214-4.5898 16.56-5.7109 31.118-10.35 41.862-3.2754 7.5854-9.0732 29.899-11.136 42.856-0.7373 4.6313-1.5586 16.567-1.8242 26.524-0.4556 17.037-0.3716 18.518 1.4277 25.137 2.5278 9.3003 4.1831 9.3521 11.907 21.23 9.0864 13.973 17.124 18.12 39.032 20.139 38.896 3.585 45.084-4.0234 60.416-3.1592 3.5898 0.2021 6.7349 0.5757 6.9888 0.8301 0.6816 0.6816 1.7549 25.297 2.5176 30.55 0.3086 2.125-0.3066 7.2168-1.6675 13.798-4.145 20.053-1.186 58.61 0.1567 78.808-13.702 44.888-12.14 41.765-26.513 72.43-35.502 75.752-55.964 106.26-54.82 135.11 0.2871 7.2324 0.3267 7.3481 3.9746 11.704 5.606 6.6938 2.8188 5.1958 6.8892 26.388 1.3711 7.1377 2.0425 8.8066 5.3511 13.301 6.0435 8.209 8.5967 13.35 10.935 22.016 6.0327 22.353-3.5435 23.886 9.8872 85.352 3.9292 17.981 4.6201 18.674 17.563 49.493 0.0742 63.403-0.1191 60.595 3.1045 106.28 25.649 118.62 21.162 93.14 24.663 128.41 1.4478 14.588 2.6821 27.282 2.7437 28.208 0.1499 2.2744 0.3472-2.3979-27.802 61.051-7.2373 16.314-9.2388 21.896-14.385 40.13-5.8921 20.874-5.9863 21.368-6.5376 34.144-0.5415 12.551-0.4883 13.176 1.6826 19.653 0.8291 2.644 1.8071 5.2393 2.9292 7.7729 0.8711 1.374 12.931 8.584 15.018 9.8628l-4.7666 11.367c-10.346 24.672-5.5137 41.568-22.436 78.847-9.5186 20.967-7.1035 19.993-16.613 56.036-8.7388 33.122-6.9063 72.597-9.0269 106.67-1.5771 25.337 0.4717 44.993 6.0459 57.997 4.9648 11.582 6.0439 96.378 6.1387 116.83-4.1177 5.9346-4.5464 5.7578-4.5303 12.958 0.0342 15.304 10.752 45.854 5.0479 47.664-2.5786 0.8184-12.958 11.336-15.375 15.581-5.1885 9.1099-4.8438 35.868-4.8438 45.948 6.4912 16.92 7.4893 20.675 18.143 36.934 2.3584 3.6001-3.127 6.6465-11.32 31.952-4.8262 14.904-4.6924 17.425-6.7056 36.31-33.78 74.736-36.043 81.632-68.672 124.62-40.88 53.857-40.52 45.336-48.992 63.151-8.9351 18.792-1.4893 15.614-9.6709 27.113-4.7588 6.689-8.5835 8.8047-18.873 15.83-3.9692 16.13-3.6655 13.312-4.8901 48.346l-11.108 0.4917-0.8423 148.12c-67.922 35.961-66.941 35.119-66.941 37.184 0 1.5991 10.065 29.035 11.178 30.468 2.1079 2.7153 3.5469-1.7368 3.5767 5.897 0.0244 6.2979 1.5044 9.1348 9.3335 17.89 7.0742 7.9121 8.751 10.593 8.751 13.989 0 3.5347 4.79 10.43 7.2451 10.43h2.0171v55.574h-47.153v117.79c-10.706 5.6616-10.487 4.978-10.775 9.3911-0.2378 3.6445-0.1084 3.8921 2.7363 5.249 2.834 1.3516 2.9863 1.6392 2.9863 5.6479 0 2.3228 0.3208 4.2236 0.7124 4.2236 1.0103 0 1.4976 21.914 2.668 23.084 1.1299 1.1299 0.8296 54.402 0.8296 64.486h-83.918c-1.9492-7.0205-2.1782-6.834-2.9116-26.944-6.106-0.0078-17.866 0.3267-22.212-1.2388-4.4229-1.5938-15.085-1.6108-20.285-0.0337-5.1113 1.5508-16.334 1.2661-22.237 1.2725 0 7.1279 0.3086 16.034-1.269 19.981-1.4453 3.6172-1.2197 21.724-0.8359 168.99 14.407 3.6685 14.735 1.8711 14.735 47.089 0 22.618 0.2617 30.786 1.0098 31.534 1.3433 1.3428 12.809 1.0107 16.573 1.0107l-1.208 2.3154c-2.8921 5.5444-0.2036 13.13 8.4468 23.837 5.8696 7.2646 28.899 26.09 36.226 31.916-3.2705 2.8042-3.7896 2.6636-3.7896 8.4048 0 5.7881-0.1948 5.041 5.894 8.6333v50.88c-7.6567 3.6006-14.235 6.6943-21.893 10.295 0 19.772-0.1714 22.861 1.293 22.861 1.0508 0 1.1162 0.3301 0.3496 1.7627-1.5898 2.9712-0.2358 5.3906 6.5615 11.724 12.073 11.25 2.9248 8.4453 12.811 13.038 0.064 24.442-9.2734 510.17-9.4565 510.36-0.0166 0.0166-20.213 8.7402-21.441 9.7598-1.3047 1.082-0.96 8.2236-0.6421 23.787 7.6973 1.312 14.314 2.583 15.536 11.732 0.4404 3.3047 0.6128 3.4819 3.6206 3.7305 2.9277 0.2422 3.1597 0.4575 3.1841 2.9473 0.0532 5.2183-5.7231 261.46-6.9058 275.16l-14.03 6.9585c-2.125 37.582-1.0303 82.703-3.1943 84.298-0.917 0.6753-1.2881 5.3364-1.7139 21.492-0.6694 25.406-1.3901 22.416 10.031 23.156-38.682 24.498-36.599 23.242-42.314 27.376-0.0142 14.564-0.0264 27.107-0.04 41.67l-15.116 8.9136v18.057l-62.731 38.722c-0.3706 46.28-0.2524 55.246-1.6865 56.315-2.1737 1.6216-1.4199 64.308-2.2748 81.34-0.208 4.146 0.1421 5.2651 3.3446 10.684 1.9678 3.3296 8.0054 10.846 13.417 16.705 9.124 9.8765 9.8472 10.907 9.9482 14.156 0.1421 4.5898 2.4717 9.856 4.6064 10.414 1.4756 0.3862 1.6948 1.1401 1.6948 5.8184 0 4.3159-0.2593 5.375-1.3174 5.375-2.7065 0-11.932 24.06-15.498 40.418-5.1807 28.905-3.1313 58.644 5.9658 86.565 5.1338 15.704 6.1353 17.846 8.3452 17.846 1.5122 0 1.6621 0.5898 1.6621 6.5366 0 5.9707-0.1641 6.6089-1.895 7.3677-1.5264 0.6699-1.9912 1.731-2.3936 5.4624-1.3403 12.425-8.0249 15.925-43.707 39.776v17.966l-7.4775 6.251h-42.225c-4.9077-5.4609-4.0044-5.0986-12.186-5.4731-0.0522 17.37-0.3779 125.25-0.4302 142.59-9.0273 3.0093-5.6909 1.8975-14.726 4.9092 0 9.2534-0.4316 8.9829 2.8838 10.054 8.2676 2.6724 4.6426 9.9834 7.2202 10.973 1.0469 0.4023 1.2632 2.7021 1.2632 13.446 0 8.0791 0.3169 12.961 0.8418 12.961 0.4878 0 0.8423 2.6929 0.8423 6.394 0 5.686 0.1865 6.4434 1.6841 6.835 1.394 0.3643 1.6836 1.1489 1.6836 4.5522 0 4.6982 0.2754 4.1123-5.5718 4.1123-9.3062 26.037-18.976 54.458-4.9985 95.876 1.6191 4.7998 3.3799 9.2524 3.9131 9.894 0.9497 0.791 2.1563 1.2061 3.3916 1.167 2.7285 0 2.4229 0.4399 2.4229 5.0522-305.67 0-320.18-0.5098-323.82 3.1245-2.3999 2.3975 0.1353 11.287-2.6792 13.343-1.3525 0.9878-2.0581 2.0034-2.7368 96.176-8.0435 1.5039-8.4199 0.8755-8.4199 10.034 0 5.2012-0.3403 7.4541-1.2632 8.3774-1.4063 1.4063-1.2632 17.82-1.2632 197.96-671.02 2.7275-732.46 0.6001-737.4 4.6172-0.6387 0.52-1.0527 2.9282-1.0527 6.1235 0 5.8872-0.4019 5.5332-3.7891 7.7813-1.3076 102.92-0.3359 94.955-3.5786 95.752-5.48 1.3477-6.1045 2.3813-6.1045 10.108 0 3.8984-0.3789 7.3223-0.8423 7.6084-1.3286 0.8218-1.1299 219.49 0.1724 218.33 1.2812 1.2861 3.3623 1.29 4.6479 0.0088 0.0835-0.083 0.1621-0.1699 0.2358-0.2607 1.1953-1.4414 17.432-1.2637 152.66-1.2637h34.606c0.0283 2e-3 0.0527 0.0098 0.082 0.0098 0.0259 0 0.0474-0.0078 0.0718-0.0098h280.24c0.0283 2e-3 0.0532 0.0098 0.0825 0.0098 0.0259 0 0.0474-0.0078 0.0718-0.0098h28.475c0.0283 2e-3 0.0527 0.0098 0.0825 0.0098 0.0259 0 0.0469-0.0078 0.0718-0.0098h27.54v-0.4219h3149.8v0.4316h360.39v0.207c141.64-1.2002 148.03-1.4658 149.84 0.1689 1.833 1.6582 4.2949 1.1133 6.3555 0.8779 0.2252-120.7 1.2389-236.68-2.1332-242.98zm-2414.9-6662.8v-15.434c14.79 1.6855 145.12 12.916 145.38 13.134 0.1846 0.1509-2.813 11.74-3.4839 15.044-0.1479 1.3071-1.0791 2.3911-2.3491 2.7338-2.3916 0.5479-111.65 15.593-112.16 15.593-0.3604 0-5.7046-6.0381-27.396-31.072zm156.64 150.22c-1.4995 4.0156-3.229 7.9419-5.1792 11.759-3.9888 8.1377-4.5259 9.8506-4.5259 14.436 0 3.6821 0.4121 5.6606 1.4092 6.7656 1.2637 1.3999 1.2783 1.7363 0.1421 3.2461-2.9878 3.9697-14.178 29.086-41.968 58.534l-17.69-17.419c4.3696-19.006 6.3203-36.717 6.3115-42.624-0.021-15.102-5.0063-37.726-9.6865-43.959-3.1436-4.187-9.6689-10.088-9.6689-12.338 0-0.8999-1.8848-4.7686-4.1885-8.5967-2.6177-4.0371-4.478-8.5171-5.4902-13.221-3.3091-15.917-9.002-25.279-17.805-41.626 29.09-1.3921 36.264-1.1924 92.488-0.8423l5.2729 14.735c7.3423 20.52 15.78 35.174 17.199 38.906 1.5327 4.0307-3.7788 21.25-6.6206 32.245z"/> <path d="m0 0" fill="none"/> <path d="m4642.5 0" fill="none"/> <path d="m4642.5 8452.1" fill="none"/> <path d="m0 8452.1" fill="none"/> </svg>