<?xml version="1.0" encoding="UTF-8"?>
<svg id="Layer_2" data-name="Layer 2" xmlns="http://www.w3.org/2000/svg" viewBox="0 0 124.85 124.85">
  <defs>
    <style>
      .cls-1 {
        stroke-width: 4.7px;
      }

      .cls-1, .cls-2 {
        fill: #000;
        stroke: #000;
        stroke-linecap: round;
        stroke-linejoin: round;
      }

      .cls-2 {
        stroke-width: 4.4px;
      }
    </style>
  </defs>
  <g id="Layer_1-2" data-name="Layer 1">
    <g>
      <path class="cls-1" d="M94.1,62.42c0,17.44-14.18,31.59-31.67,31.59s-31.67-14.14-31.67-31.59,14.18-31.59,31.67-31.59,31.67,14.14,31.67,31.59Z"/>
      <g>
        <path class="cls-2" d="M36.82,2.68c.54-.23,1.33.44,1.78,1.49l6.35,14.81c.45,1.06.39,2.09-.15,2.32s-1.33-.44-1.78-1.49l-6.35-14.81c-.45-1.06-.39-2.09.15-2.32Z"/>
        <path class="cls-2" d="M86.4,2.24c.54.22.64,1.25.21,2.31l-5.94,14.92c-.42,1.06-1.2,1.74-1.74,1.53s-.64-1.25-.21-2.31l5.94-14.92c.42-1.06,1.2-1.74,1.74-1.53h0Z"/>
        <path class="cls-2" d="M121.93,37.05c.23.54-.43,1.33-1.48,1.78l-14.75,6.29c-1.05.45-2.08.38-2.31-.16s.43-1.33,1.48-1.78l14.75-6.29c1.05-.45,2.08-.38,2.31.16Z"/>
        <path class="cls-2" d="M122.61,86.73c-.22.54-1.25.63-2.31.2l-14.92-6.02c-1.06-.43-1.75-1.21-1.53-1.75s1.25-.63,2.31-.2l14.92,6.02c1.06.43,1.75,1.21,1.53,1.75Z"/>
        <path class="cls-2" d="M88.03,122.16c-.54.23-1.33-.44-1.78-1.49l-6.35-14.81c-.45-1.06-.39-2.09.15-2.32s1.33.44,1.78,1.49l6.35,14.81c.45,1.06.39,2.09-.15,2.32Z"/>
        <path class="cls-2" d="M38.45,122.61c-.54-.22-.64-1.25-.21-2.31l5.94-14.92c.42-1.06,1.2-1.74,1.74-1.53s.64,1.25.21,2.31l-5.94,14.92c-.42,1.06-1.2,1.74-1.74,1.53h0Z"/>
        <path class="cls-2" d="M2.92,87.8c-.23-.54.43-1.33,1.48-1.78l14.75-6.29c1.05-.45,2.08-.38,2.31.16s-.43,1.33-1.48,1.78l-14.75,6.29c-1.05.45-2.08.38-2.31-.16Z"/>
        <path class="cls-2" d="M2.24,38.12c.22-.54,1.25-.63,2.31-.2l14.92,6.02c1.06.43,1.75,1.21,1.53,1.75s-1.25.63-2.31.2l-14.92-6.02c-1.06-.43-1.75-1.21-1.53-1.75Z"/>
      </g>
    </g>
  </g>
</svg>