<?xml version="1.0" encoding="UTF-8"?>
<svg id="Layer_2" data-name="Layer 2" xmlns="http://www.w3.org/2000/svg" viewBox="0 0 326.37 650.25">
  <defs>
    <style>
      .cls-1, .cls-2, .cls-3, .cls-4, .cls-5, .cls-6, .cls-7, .cls-8, .cls-9 {
        stroke-linecap: round;
        stroke-width: 1.35px;
      }

      .cls-1, .cls-2, .cls-5, .cls-6 {
        fill: #fff;
      }

      .cls-1, .cls-3, .cls-4, .cls-5, .cls-7, .cls-8 {
        stroke: #000;
      }

      .cls-1, .cls-4, .cls-6, .cls-9 {
        stroke-linejoin: bevel;
      }

      .cls-10 {
        stroke-width: 0px;
      }

      .cls-10, .cls-3, .cls-4 {
        fill: #000;
      }

      .cls-2 {
        stroke: #fff;
      }

      .cls-2, .cls-3, .cls-5, .cls-7, .cls-8 {
        stroke-linejoin: round;
      }

      .cls-6 {
        stroke: #fcfcfc;
      }

      .cls-7, .cls-9 {
        fill: #fcfcfc;
      }

      .cls-8 {
        fill: #fffcfc;
      }

      .cls-9 {
        stroke: #fcfbf9;
      }
    </style>
  </defs>
  <g id="Layer_1-2" data-name="Layer 1">
    <g>
      <g>
        <path class="cls-1" d="M196.85,324.88c-94.32-31.03-135.14-37.73-165.1,41.27C2.49,443.3-7.63,511.5,7.95,560.94c15.62,49.57,54.28,81.91,68.55,86.6,14.27,4.69,69.5,3.24,115.08-26.2,44.34-28.63,86.49-89.02,116.54-168.24,29.96-79-19.45-98.03-111.27-128.23h0Z"/>
        <path class="cls-10" d="M198.15,325.41c139.64,41.82,121.11,85.73,102.65,135.99-18.46,50.27-54.51,135.17-118.92,166.53-64.41,31.36-90.84,13.71-105.38,19.73l121.66-322.25h0Z"/>
      </g>
      <g>
        <path class="cls-9" d="M171.08,459.86c3.86-4.96,13.63-5.89,32.3.28,19.41,6.41,55.69,32.94,51.83,37.91-2.58,3.32-50.17-8.67-67.26-18.06-17.11-9.39-20.42-15.56-16.88-20.12h0Z"/>
        <path class="cls-4" d="M129.76,444.72c.25-6.24-6.68-13.06-25.08-19.98-19.12-7.19-64.31-9.42-64.56-3.18-.17,4.17,44.3,24.68,63.57,28.13,19.28,3.45,25.84.77,26.07-4.96h0Z"/>
        <path class="cls-6" d="M174.15,440.42s37.07-7.41,50.11-2.9c12.47,4.31,53.97,25.41,53.97,25.41,0,0-39.35-27.1-51.82-31.41-12.49-4.32-52.26,8.9-52.26,8.9h0Z"/>
        <path class="cls-4" d="M140.75,430.7s-24.15-28.59-37.19-33.1c-12.47-4.31-58.28-13.41-58.28-13.41,0,0,47.96,3.1,60.43,7.41,12.49,4.32,35.04,39.1,35.04,39.1h0s0,0,0,0Z"/>
        <path class="cls-6" d="M158.05,437.08c-.27,24.78-8.2,42.62-12.57,59.3-4.37,16.67-5.63,22.14-2.61,32.47,3.01,10.33,4.03,37.78-3.23,31.86-7.26-5.93-15.58-5.01-23-7.96,17.1-47.87,30.83-86.16,41.42-115.66h0s0,0,0,0Z"/>
        <path class="cls-4" d="M154.99,435.98c-15.61,19.48-20.71,38.37-27.94,54.06-7.24,15.68-9.75,20.71-18.69,26.91-8.94,6.19-27.26,26.96-17.82,26.81,9.44-.15,15.34,5.68,23,7.96,17.24-47.82,30.86-86.22,41.45-115.73h0Z"/>
        <path class="cls-6" d="M150.75,626.03s-15.23-46.86-40.44-55.45l-7.94,22.13c23.14,8.01,48.38,33.32,48.38,33.32h0Z"/>
        <path class="cls-4" d="M40.34,587.84s41.78-27.14,66.9-18.32l-7.94,22.13c-23.14-8.01-58.97-3.81-58.97-3.81h0Z"/>
      </g>
    </g>
    <g>
      <g>
        <path class="cls-5" d="M170.4,5.25C65.94,10.78,23.29-.62,30.04,89.55c6.59,88.05,21.01,163.39,58.19,206.57,37.27,43.29,88.62,60.3,104.42,59.46,15.8-.84,68.44-23.36,98.96-70.24,29.69-45.59,36.55-120.78,29.79-211.19C314.66-16.01,272.09-.14,170.4,5.25h0Z"/>
        <path class="cls-10" d="M165.88,6.5c168.96-19.91,149.98,4.02,158.6,102.36,8.63,98.34-13.69,180.02-40.47,200.83-26.78,20.8-70.3,40.43-84.45,46.28L164.91,9.43l.98-2.93h0Z"/>
      </g>
      <g>
        <g>
          <path class="cls-3" d="M110.92,250.61s52.08,47.43,80.03,45.5l-2.25-33.63c-25.71,1.66-77.78-11.87-77.78-11.87h0Z"/>
          <path class="cls-5" d="M267.75,238.91s-45.31,53.71-73.28,55.39l-2.25-33.63c25.71-1.66,75.53-21.76,75.53-21.76h0s0,0,0,0Z"/>
          <path class="cls-7" d="M205.33,131.5c-.45-6.7,6.64-14.13,25.79-21.84,19.9-8.01,67.39-11.08,67.84-4.38.3,4.48-45.88,27.17-66.05,31.16-20.19,4-27.17,1.21-27.58-4.94h0s0,0,0,0Z"/>
          <path class="cls-3" d="M158.25,134.54c-.45-6.7-8.46-13.16-28.48-18.34-20.8-5.38-68.29-2.32-67.84,4.38.3,4.48,49.1,21.04,69.63,22.41,20.55,1.37,27.1-2.29,26.69-8.45h0Z"/>
        </g>
        <path class="cls-2" d="M197.31,96.73s32.63-22.71,47.12-23.64c13.86-.89,62.81,2.81,62.81,2.81,0,0-49.41-10.54-63.26-9.65-13.88.9-46.66,30.48-46.66,30.48h0Z"/>
        <g>
          <path class="cls-3" d="M161.85,99.02s-35.38-18.32-49.86-17.38c-13.86.89-61.89,10.86-61.89,10.86,0,0,47.58-16.81,61.43-17.7,13.88-.9,50.32,24.22,50.32,24.22Z"/>
          <path class="cls-8" d="M181.2,99.76c10.21,24.67,10.09,45.64,12.92,63.97,2.82,18.33,3.92,24.27,11.19,33.26,7.27,8.99,19.85,35.77,10.34,32.9-9.51-2.86-17.15,1.49-25.55,1.65-3.73-54.52-6.65-98.15-8.9-131.78h0Z"/>
          <path class="cls-3" d="M177.78,99.94c-6.83,25.77-3.77,46.61-4.12,65.14-.36,18.54-.66,24.57-6.67,34.41-6.01,9.84-14.91,38.01-5.87,33.95,9.04-4.06,17.2-.73,25.55-1.65-3.57-54.53-6.64-98.22-8.89-131.85h0s0,0,0,0Z"/>
        </g>
      </g>
    </g>
  </g>
</svg>