<?xml version="1.0" encoding="UTF-8"?>
<svg id="Layer_2" data-name="Layer 2" xmlns="http://www.w3.org/2000/svg" viewBox="0 0 202.9 204.9">
  <defs>
    <style>
      .cls-1 {
        fill: #000;
        stroke-width: 0px;
      }
    </style>
  </defs>
  <g id="Layer_1-2" data-name="Layer 1">
    <g>
      <path class="cls-1" d="M147.62,156.08c-2.31.77-4.18,1.45-7.28,2.31-5.27,1.45-11.58,2.91-18.7,4.04-3.56.56-7.35,1.03-11.28,1.37s-8,.57-12.23.62-8.61-.06-13.08-.4-9.07-.88-13.71-1.68-9.36-1.87-14.12-3.24-9.54-3.08-14.34-5.1-9.61-4.39-14.39-7.14-9.55-5.87-14.25-9.44c-4.27-3.25-8.48-6.95-12.63-10.95,9.29,44.75,49.44,78.44,97.56,78.44,14.89,0,28.95-3.31,41.63-9.09,1.51-3.33,2.81-6.6,3.82-9.75,1.07-3.36,1.9-6.6,2.47-9.75s.9-6.23,1.03-9.18.1-5.78-.13-8.51c-.07-.87-.25-1.67-.36-2.53h0Z"/>
      <path class="cls-1" d="M3.21,77.19c-2.43,8.49-3.21,18.18-3.21,27.44,0,6.78.7,13.38,2.02,19.78,4.15,4,8.36,7.7,12.63,10.95,4.7,3.58,9.47,6.69,14.25,9.44s9.58,5.12,14.38,7.14,9.58,3.73,14.34,5.1,9.47,2.43,14.11,3.24,9.24,1.35,13.71,1.68,8.85.45,13.08.4,8.3-.27,12.23-.62,7.72-.81,11.28-1.37c7.12-1.12,13.43-2.59,18.7-4.04,3.1-.85,4.97-1.53,7.28-2.31-.23-1.82-.44-3.66-.81-5.37-.54-2.51-1.2-4.9-1.98-7.18s-1.66-4.46-2.61-6.52c-1.9-4.11-4.09-7.76-6.29-10.91s-4.44-5.83-6.43-7.98c-3.98-4.29-7.01-6.52-7.01-6.52.1,0-2.84.45-7.78.98s-11.89,1.12-19.82,1.42c-3.97.15-8.17.27-12.5.22s-8.78-.24-13.22-.58-8.84-.87-13.13-1.6-8.44-1.63-12.32-2.84-7.57-2.83-11.1-4.7-6.91-3.99-10.07-6.3-6.12-4.77-8.86-7.27-5.24-5.03-7.51-7.49c-1.2-1.3-2.34-2.96-3.4-4.2h0Z"/>
      <path class="cls-1" d="M142.01,61.24c-1.55,3.01-2.98,6.01-4.25,8.93-1.33,3.07-2.51,6.09-3.56,8.98-2.09,5.78-3.67,11.08-4.82,15.62s-1.85,8.29-2.3,10.91-.61,4.08-.61,4.08c0,0,2.92,2.25,6.77,6.6,1.92,2.17,4.07,4.89,6.2,8.08s4.24,6.88,6.07,11.04c.92,2.08,1.77,4.28,2.52,6.6s1.39,4.73,1.91,7.27.9,5.22,1.13,7.99.26,5.63.13,8.62-.44,6.1-1,9.29-1.35,6.47-2.39,9.87c-.97,3.2-2.23,6.5-3.69,9.87,13.7-6.55,25.52-16.44,34.84-28.5.03-.16.06-.29.09-.45.74-4.06,1.34-8.48,1.69-13.11s.43-9.48.17-14.5-.85-10.18-1.95-15.39c-.55-2.61-1.24-5.23-2.04-7.85s-1.74-5.23-2.82-7.85c-2.17-5.24-4.46-10.05-6.85-14.41s-4.86-8.31-7.33-11.85-4.96-6.68-7.37-9.47-4.77-5.22-6.98-7.32c-1.27-1.21-2.39-2.05-3.56-3.05h0Z"/>
      <path class="cls-1" d="M142.77,58c1.21.99,2.37,1.82,3.69,3.02,2.29,2.08,4.73,4.47,7.24,7.23s5.08,5.86,7.64,9.36,5.12,7.4,7.6,11.71,4.86,9.05,7.1,14.23c1.12,2.59,2.09,5.16,2.92,7.76s1.54,5.18,2.11,7.76c1.14,5.16,1.75,10.26,2.02,15.21.27,4.95.19,9.75-.18,14.32s-.99,8.94-1.75,12.95l-.09.44c13.57-16.75,21.84-37.85,21.84-60.97,0-30.08-13.74-56.97-35.32-74.98-1.37,1.25-2.85,2.43-4.13,3.72-2.89,2.91-5.54,5.93-8,9s-4.72,6.21-6.79,9.36-3.95,6.31-5.66,9.44c-.08.15-.14.29-.22.44h0Z"/>
      <path class="cls-1" d="M133.82,6.08c-3.73,1.34-7.29,2.91-10.64,4.79-3.44,1.93-6.73,4.15-9.8,6.56s-5.93,5.03-8.65,7.83-5.25,5.78-7.63,8.87-4.59,6.27-6.65,9.54-3.95,6.62-5.72,10-3.39,6.8-4.88,10.18c-2.98,6.76-5.45,13.42-7.45,19.63s-3.53,11.97-4.7,16.87c-.95,3.97-.78,3.9-1.29,6.56,1.69.19,3.35.5,5.05.63,4.37.35,8.77.54,13.04.59s8.42-.07,12.33-.23c7.82-.31,14.68-.91,19.55-1.45s7.77-1,7.67-1c0,0,.16-1.48.62-4.12s1.18-6.42,2.35-10.99,2.78-9.91,4.92-15.74c1.07-2.91,2.27-5.95,3.64-9.05s2.88-6.26,4.57-9.45,3.55-6.43,5.59-9.63,4.27-6.41,6.7-9.54,5.04-6.21,7.89-9.18c1.26-1.32,2.73-2.53,4.08-3.8-8.96-7.73-19.32-13.79-30.6-17.87h0Z"/>
      <path class="cls-1" d="M21.52,89.1c.81.65,1.52,1.35,2.36,1.98,3.12,2.34,6.47,4.49,9.97,6.39s7.15,3.55,10.99,4.77,7.95,2.14,12.19,2.88c2.58.45,5.27.69,7.92.99.5-2.64.34-2.58,1.29-6.53,1.18-4.87,2.71-10.61,4.72-16.79s4.48-12.81,7.48-19.54c1.5-3.36,3.12-6.77,4.9-10.13s3.67-6.69,5.74-9.95,4.29-6.43,6.68-9.5,4.93-6.04,7.65-8.82,5.6-5.39,8.68-7.79,6.38-4.6,9.83-6.53c3.37-1.88,6.94-3.44,10.68-4.77-10.29-3.69-21.34-5.76-32.89-5.76-9.25,0-18.09,1.55-26.57,3.96-.81.5-1.7.9-2.49,1.44-3.04,2.06-5.92,4.37-8.63,6.84s-5.29,5.09-7.7,7.88-4.69,5.73-6.81,8.73-4.08,6.09-5.92,9.23-3.54,6.33-5.12,9.5c-3.16,6.33-5.82,12.61-8.01,18.5s-3.91,11.39-5.25,16.07c-1.2,4.17-1.08,4.28-1.69,6.93h0Z"/>
      <path class="cls-1" d="M20.14,88.72c.63-2.66.52-2.78,1.74-6.97,1.37-4.71,3.12-10.23,5.33-16.15s4.89-12.22,8.04-18.56c1.58-3.17,3.27-6.38,5.11-9.52s3.78-6.23,5.88-9.23,4.36-5.94,6.74-8.72,4.92-5.39,7.59-7.85,5.5-4.75,8.48-6.79c.78-.53,1.64-.92,2.44-1.42C39.37,12.51,13.72,38.39,4.24,71.88c1,1.29,1.5,2.18,2.63,3.53,2.15,2.55,4.52,5.18,7.12,7.77,1.9,1.9,4.03,3.72,6.15,5.53h0Z"/>
    </g>
  </g>
</svg>